;Layer: Drill PTH
;EasyEDA v6.2.43, 2019-09-06T10:08:58+02:00
;e2e4465fc3ca44109e84c49d15151505,91cc4837159741479c5be70faa949f3f,10
;Gerber Generator version 0.2
M48
METRIC,LZ,000.000
;Holesize 1 = 0.305 METRIC
T01C0.305
;Holesize 2 = 1.001 METRIC
T02C1.001
;Holesize 3 = 1.101 METRIC
T03C1.101
;Holesize 4 = 1.200 METRIC
T04C1.200
;Holesize 5 = 2.800 METRIC
T05C2.800
%
G05
G90
T01
X+021082Y+050038
X+021082Y+047498
X+021082Y+044958
X+021082Y+042418
X+023368Y+032258
X+021082Y+034798
X+022098Y+029718
X+020828Y+029718
X+019558Y+029718
X+018288Y+029718
X+015748Y+029718
X+017018Y+029718
X+014478Y+030607
X+013208Y+020955
X+013208Y+023495
X+013208Y+026035
X+014351Y+040640
X+014351Y+041910
X+014351Y+043180
X+014351Y+044450
X+014351Y+045720
X+014351Y+046990
X+025908Y+035560
X+023749Y+036322
X+033020Y+010309
T02
X+033020Y+003175
X+033020Y+005715
T03
X+003429Y+013533
X+003429Y+010033
X+003429Y+051693
X+003429Y+048192
X+003429Y+044693
X+003429Y+041192
X+003429Y+037693
X+003429Y+034192
X+003429Y+030693
X+003429Y+027192
X+003429Y+023693
X+003429Y+020193
X+047371Y+028346
X+047371Y+031847
X+047371Y+035346
X+047371Y+038847
X+047371Y+042346
X+047371Y+045847
X+047371Y+003835
X+047371Y+007336
X+047371Y+010835
X+047371Y+014336
X+047371Y+017835
X+047371Y+021336
T04
X+042164Y+053340
X+039624Y+053340
X+037084Y+053340
X+034544Y+053340
T05
X+047300Y+052380
X+003499Y+003499
M30
