G04 Layer: BottomSolderMaskLayer*
G04 EasyEDA v6.2.43, 2019-09-06T10:08:58+02:00*
G04 e2e4465fc3ca44109e84c49d15151505,91cc4837159741479c5be70faa949f3f,10*
G04 Gerber Generator version 0.2*
G04 Scale: 100 percent, Rotated: No, Reflected: No *
G04 Dimensions in millimeters *
G04 leading zeros omitted , absolute positions ,3 integer and 3 decimal *
%FSLAX33Y33*%
%MOMM*%
G90*
G71D02*

%ADD41R,2.402840X0.904240*%
%ADD46C,2.403196*%
%ADD52C,2.003196*%
%ADD57C,6.403188*%

%LPD*%
G36*
G01X27259Y6784D02*
G01X27259Y8455D01*
G01X28620Y8455D01*
G01X28620Y6784D01*
G01X27259Y6784D01*
G37*
G36*
G01X25227Y6784D02*
G01X25227Y8455D01*
G01X26588Y8455D01*
G01X26588Y6784D01*
G01X25227Y6784D01*
G37*
G54D41*
G01X31242Y19685D03*
G01X31242Y18415D03*
G01X31242Y17145D03*
G01X31242Y15875D03*
G01X31242Y14605D03*
G01X31242Y13335D03*
G01X31242Y12065D03*
G01X31242Y10795D03*
G01X23842Y10795D03*
G01X23842Y12065D03*
G01X23842Y13335D03*
G01X23842Y14605D03*
G01X23842Y15875D03*
G01X23842Y17145D03*
G01X23842Y18415D03*
G01X23842Y19685D03*
G36*
G01X26497Y22024D02*
G01X26497Y23695D01*
G01X27858Y23695D01*
G01X27858Y22024D01*
G01X26497Y22024D01*
G37*
G36*
G01X24465Y22024D02*
G01X24465Y23695D01*
G01X25826Y23695D01*
G01X25826Y22024D01*
G01X24465Y22024D01*
G37*
G01X31242Y34798D03*
G01X31242Y33528D03*
G01X31242Y32258D03*
G01X31242Y30988D03*
G01X31242Y29718D03*
G01X31242Y28448D03*
G01X31242Y27178D03*
G01X31242Y25908D03*
G01X23842Y25908D03*
G01X23842Y27178D03*
G01X23842Y28448D03*
G01X23842Y29718D03*
G01X23842Y30988D03*
G01X23842Y32258D03*
G01X23842Y33528D03*
G01X23842Y34798D03*
G36*
G01X27259Y37264D02*
G01X27259Y38935D01*
G01X28620Y38935D01*
G01X28620Y37264D01*
G01X27259Y37264D01*
G37*
G36*
G01X25227Y37264D02*
G01X25227Y38935D01*
G01X26588Y38935D01*
G01X26588Y37264D01*
G01X25227Y37264D01*
G37*
G36*
G01X30040Y49585D02*
G01X30040Y50490D01*
G01X32443Y50490D01*
G01X32443Y49585D01*
G01X30040Y49585D01*
G37*
G36*
G01X30040Y48315D02*
G01X30040Y49220D01*
G01X32443Y49220D01*
G01X32443Y48315D01*
G01X30040Y48315D01*
G37*
G36*
G01X30040Y47045D02*
G01X30040Y47950D01*
G01X32443Y47950D01*
G01X32443Y47045D01*
G01X30040Y47045D01*
G37*
G36*
G01X30040Y45775D02*
G01X30040Y46680D01*
G01X32443Y46680D01*
G01X32443Y45775D01*
G01X30040Y45775D01*
G37*
G36*
G01X30040Y44505D02*
G01X30040Y45410D01*
G01X32443Y45410D01*
G01X32443Y44505D01*
G01X30040Y44505D01*
G37*
G36*
G01X30040Y43235D02*
G01X30040Y44140D01*
G01X32443Y44140D01*
G01X32443Y43235D01*
G01X30040Y43235D01*
G37*
G36*
G01X30040Y41965D02*
G01X30040Y42870D01*
G01X32443Y42870D01*
G01X32443Y41965D01*
G01X30040Y41965D01*
G37*
G36*
G01X30040Y40695D02*
G01X30040Y41600D01*
G01X32443Y41600D01*
G01X32443Y40695D01*
G01X30040Y40695D01*
G37*
G36*
G01X22641Y40695D02*
G01X22641Y41600D01*
G01X25044Y41600D01*
G01X25044Y40695D01*
G01X22641Y40695D01*
G37*
G36*
G01X22641Y41965D02*
G01X22641Y42870D01*
G01X25044Y42870D01*
G01X25044Y41965D01*
G01X22641Y41965D01*
G37*
G36*
G01X22641Y43235D02*
G01X22641Y44140D01*
G01X25044Y44140D01*
G01X25044Y43235D01*
G01X22641Y43235D01*
G37*
G36*
G01X22641Y44505D02*
G01X22641Y45410D01*
G01X25044Y45410D01*
G01X25044Y44505D01*
G01X22641Y44505D01*
G37*
G36*
G01X22641Y45775D02*
G01X22641Y46680D01*
G01X25044Y46680D01*
G01X25044Y45775D01*
G01X22641Y45775D01*
G37*
G36*
G01X22641Y47045D02*
G01X22641Y47950D01*
G01X25044Y47950D01*
G01X25044Y47045D01*
G01X22641Y47045D01*
G37*
G36*
G01X22641Y48315D02*
G01X22641Y49220D01*
G01X25044Y49220D01*
G01X25044Y48315D01*
G01X22641Y48315D01*
G37*
G36*
G01X22641Y49585D02*
G01X22641Y50490D01*
G01X25044Y50490D01*
G01X25044Y49585D01*
G01X22641Y49585D01*
G37*
G36*
G01X11765Y28247D02*
G01X11765Y29918D01*
G01X13126Y29918D01*
G01X13126Y28247D01*
G01X11765Y28247D01*
G37*
G36*
G01X13797Y28247D02*
G01X13797Y29918D01*
G01X15158Y29918D01*
G01X15158Y28247D01*
G01X13797Y28247D01*
G37*
G36*
G01X8557Y52476D02*
G01X8557Y54203D01*
G01X11762Y54203D01*
G01X11762Y52476D01*
G01X8557Y52476D01*
G37*
G36*
G01X8557Y49936D02*
G01X8557Y51663D01*
G01X11762Y51663D01*
G01X11762Y49936D01*
G01X8557Y49936D01*
G37*
G36*
G01X8557Y47396D02*
G01X8557Y49123D01*
G01X11762Y49123D01*
G01X11762Y47396D01*
G01X8557Y47396D01*
G37*
G36*
G01X8557Y44856D02*
G01X8557Y46583D01*
G01X11762Y46583D01*
G01X11762Y44856D01*
G01X8557Y44856D01*
G37*
G36*
G01X8557Y42316D02*
G01X8557Y44043D01*
G01X11762Y44043D01*
G01X11762Y42316D01*
G01X8557Y42316D01*
G37*
G36*
G01X8557Y39776D02*
G01X8557Y41503D01*
G01X11762Y41503D01*
G01X11762Y39776D01*
G01X8557Y39776D01*
G37*
G36*
G01X8557Y37236D02*
G01X8557Y38963D01*
G01X11762Y38963D01*
G01X11762Y37236D01*
G01X8557Y37236D01*
G37*
G36*
G01X8557Y34696D02*
G01X8557Y36423D01*
G01X11762Y36423D01*
G01X11762Y34696D01*
G01X8557Y34696D01*
G37*
G36*
G01X2227Y12331D02*
G01X2227Y14734D01*
G01X4630Y14734D01*
G01X4630Y12331D01*
G01X2227Y12331D01*
G37*
G54D46*
G01X3429Y10033D03*
G36*
G01X2227Y50492D02*
G01X2227Y52895D01*
G01X4630Y52895D01*
G01X4630Y50492D01*
G01X2227Y50492D01*
G37*
G01X3429Y48192D03*
G01X3429Y44693D03*
G01X3429Y41192D03*
G01X3429Y37693D03*
G01X3429Y34192D03*
G01X3429Y30693D03*
G01X3429Y27192D03*
G01X3429Y23693D03*
G01X3429Y20193D03*
G36*
G01X46169Y27144D02*
G01X46169Y29547D01*
G01X48572Y29547D01*
G01X48572Y27144D01*
G01X46169Y27144D01*
G37*
G01X47371Y31847D03*
G01X47371Y35346D03*
G01X47371Y38847D03*
G01X47371Y42346D03*
G01X47371Y45847D03*
G36*
G01X46169Y2633D02*
G01X46169Y5036D01*
G01X48572Y5036D01*
G01X48572Y2633D01*
G01X46169Y2633D01*
G37*
G01X47371Y7336D03*
G01X47371Y10835D03*
G01X47371Y14336D03*
G01X47371Y17835D03*
G01X47371Y21336D03*
G36*
G01X41163Y52339D02*
G01X41163Y54340D01*
G01X43164Y54340D01*
G01X43164Y52339D01*
G01X41163Y52339D01*
G37*
G54D52*
G01X39624Y53340D03*
G01X37084Y53340D03*
G01X34544Y53340D03*
G36*
G01X31953Y2108D02*
G01X31953Y4241D01*
G01X34086Y4241D01*
G01X34086Y2108D01*
G01X31953Y2108D01*
G37*
G36*
G01X31953Y4648D02*
G01X31953Y6781D01*
G01X34086Y6781D01*
G01X34086Y4648D01*
G01X31953Y4648D01*
G37*
G54D57*
G01X47300Y52379D03*
G01X3500Y3499D03*
M00*
M02*
