G04 Layer: BottomPasteMaskLayer*
G04 EasyEDA v6.2.43, 2019-09-06T10:08:58+02:00*
G04 e2e4465fc3ca44109e84c49d15151505,91cc4837159741479c5be70faa949f3f,10*
G04 Gerber Generator version 0.2*
G04 Scale: 100 percent, Rotated: No, Reflected: No *
G04 Dimensions in millimeters *
G04 leading zeros omitted , absolute positions ,3 integer and 3 decimal *
%FSLAX33Y33*%
%MOMM*%
G90*
G71D02*


%LPD*%
G36*
G01X28520Y8355D02*
G01X27360Y8355D01*
G01X27360Y6885D01*
G01X28520Y6885D01*
G01X28520Y8355D01*
G37*
G36*
G01X26488Y8355D02*
G01X25328Y8355D01*
G01X25328Y6885D01*
G01X26488Y6885D01*
G01X26488Y8355D01*
G37*
G36*
G01X30142Y20035D02*
G01X30142Y19334D01*
G01X32341Y19334D01*
G01X32341Y20035D01*
G01X30142Y20035D01*
G37*
G36*
G01X30142Y18765D02*
G01X30142Y18064D01*
G01X32341Y18064D01*
G01X32341Y18765D01*
G01X30142Y18765D01*
G37*
G36*
G01X30142Y17495D02*
G01X30142Y16794D01*
G01X32341Y16794D01*
G01X32341Y17495D01*
G01X30142Y17495D01*
G37*
G36*
G01X30142Y16225D02*
G01X30142Y15524D01*
G01X32341Y15524D01*
G01X32341Y16225D01*
G01X30142Y16225D01*
G37*
G36*
G01X30142Y14955D02*
G01X30142Y14254D01*
G01X32341Y14254D01*
G01X32341Y14955D01*
G01X30142Y14955D01*
G37*
G36*
G01X30142Y13685D02*
G01X30142Y12984D01*
G01X32341Y12984D01*
G01X32341Y13685D01*
G01X30142Y13685D01*
G37*
G36*
G01X30142Y12415D02*
G01X30142Y11714D01*
G01X32341Y11714D01*
G01X32341Y12415D01*
G01X30142Y12415D01*
G37*
G36*
G01X30142Y11145D02*
G01X30142Y10444D01*
G01X32341Y10444D01*
G01X32341Y11145D01*
G01X30142Y11145D01*
G37*
G36*
G01X22743Y11145D02*
G01X22743Y10444D01*
G01X24942Y10444D01*
G01X24942Y11145D01*
G01X22743Y11145D01*
G37*
G36*
G01X22743Y12415D02*
G01X22743Y11714D01*
G01X24942Y11714D01*
G01X24942Y12415D01*
G01X22743Y12415D01*
G37*
G36*
G01X22743Y13685D02*
G01X22743Y12984D01*
G01X24942Y12984D01*
G01X24942Y13685D01*
G01X22743Y13685D01*
G37*
G36*
G01X22743Y14955D02*
G01X22743Y14254D01*
G01X24942Y14254D01*
G01X24942Y14955D01*
G01X22743Y14955D01*
G37*
G36*
G01X22743Y16225D02*
G01X22743Y15524D01*
G01X24942Y15524D01*
G01X24942Y16225D01*
G01X22743Y16225D01*
G37*
G36*
G01X22743Y17495D02*
G01X22743Y16794D01*
G01X24942Y16794D01*
G01X24942Y17495D01*
G01X22743Y17495D01*
G37*
G36*
G01X22743Y18765D02*
G01X22743Y18064D01*
G01X24942Y18064D01*
G01X24942Y18765D01*
G01X22743Y18765D01*
G37*
G36*
G01X22743Y20035D02*
G01X22743Y19334D01*
G01X24942Y19334D01*
G01X24942Y20035D01*
G01X22743Y20035D01*
G37*
G36*
G01X27757Y23594D02*
G01X26597Y23594D01*
G01X26597Y22124D01*
G01X27757Y22124D01*
G01X27757Y23594D01*
G37*
G36*
G01X25725Y23594D02*
G01X24565Y23594D01*
G01X24565Y22124D01*
G01X25725Y22124D01*
G01X25725Y23594D01*
G37*
G36*
G01X30142Y35148D02*
G01X30142Y34447D01*
G01X32341Y34447D01*
G01X32341Y35148D01*
G01X30142Y35148D01*
G37*
G36*
G01X30142Y33878D02*
G01X30142Y33177D01*
G01X32341Y33177D01*
G01X32341Y33878D01*
G01X30142Y33878D01*
G37*
G36*
G01X30142Y32608D02*
G01X30142Y31907D01*
G01X32341Y31907D01*
G01X32341Y32608D01*
G01X30142Y32608D01*
G37*
G36*
G01X30142Y31338D02*
G01X30142Y30637D01*
G01X32341Y30637D01*
G01X32341Y31338D01*
G01X30142Y31338D01*
G37*
G36*
G01X30142Y30068D02*
G01X30142Y29367D01*
G01X32341Y29367D01*
G01X32341Y30068D01*
G01X30142Y30068D01*
G37*
G36*
G01X30142Y28798D02*
G01X30142Y28097D01*
G01X32341Y28097D01*
G01X32341Y28798D01*
G01X30142Y28798D01*
G37*
G36*
G01X30142Y27528D02*
G01X30142Y26827D01*
G01X32341Y26827D01*
G01X32341Y27528D01*
G01X30142Y27528D01*
G37*
G36*
G01X30142Y26258D02*
G01X30142Y25557D01*
G01X32341Y25557D01*
G01X32341Y26258D01*
G01X30142Y26258D01*
G37*
G36*
G01X22743Y26258D02*
G01X22743Y25557D01*
G01X24942Y25557D01*
G01X24942Y26258D01*
G01X22743Y26258D01*
G37*
G36*
G01X22743Y27528D02*
G01X22743Y26827D01*
G01X24942Y26827D01*
G01X24942Y27528D01*
G01X22743Y27528D01*
G37*
G36*
G01X22743Y28798D02*
G01X22743Y28097D01*
G01X24942Y28097D01*
G01X24942Y28798D01*
G01X22743Y28798D01*
G37*
G36*
G01X22743Y30068D02*
G01X22743Y29367D01*
G01X24942Y29367D01*
G01X24942Y30068D01*
G01X22743Y30068D01*
G37*
G36*
G01X22743Y31338D02*
G01X22743Y30637D01*
G01X24942Y30637D01*
G01X24942Y31338D01*
G01X22743Y31338D01*
G37*
G36*
G01X22743Y32608D02*
G01X22743Y31907D01*
G01X24942Y31907D01*
G01X24942Y32608D01*
G01X22743Y32608D01*
G37*
G36*
G01X22743Y33878D02*
G01X22743Y33177D01*
G01X24942Y33177D01*
G01X24942Y33878D01*
G01X22743Y33878D01*
G37*
G36*
G01X22743Y35148D02*
G01X22743Y34447D01*
G01X24942Y34447D01*
G01X24942Y35148D01*
G01X22743Y35148D01*
G37*
G36*
G01X28519Y38834D02*
G01X27359Y38834D01*
G01X27359Y37364D01*
G01X28519Y37364D01*
G01X28519Y38834D01*
G37*
G36*
G01X26487Y38834D02*
G01X25327Y38834D01*
G01X25327Y37364D01*
G01X26487Y37364D01*
G01X26487Y38834D01*
G37*
G36*
G01X30141Y50388D02*
G01X30141Y49687D01*
G01X32341Y49687D01*
G01X32341Y50388D01*
G01X30141Y50388D01*
G37*
G36*
G01X30141Y49118D02*
G01X30141Y48417D01*
G01X32341Y48417D01*
G01X32341Y49118D01*
G01X30141Y49118D01*
G37*
G36*
G01X30141Y47848D02*
G01X30141Y47147D01*
G01X32341Y47147D01*
G01X32341Y47848D01*
G01X30141Y47848D01*
G37*
G36*
G01X30141Y46578D02*
G01X30141Y45877D01*
G01X32341Y45877D01*
G01X32341Y46578D01*
G01X30141Y46578D01*
G37*
G36*
G01X30141Y45308D02*
G01X30141Y44607D01*
G01X32341Y44607D01*
G01X32341Y45308D01*
G01X30141Y45308D01*
G37*
G36*
G01X30141Y44038D02*
G01X30141Y43337D01*
G01X32341Y43337D01*
G01X32341Y44038D01*
G01X30141Y44038D01*
G37*
G36*
G01X30141Y42768D02*
G01X30141Y42067D01*
G01X32341Y42067D01*
G01X32341Y42768D01*
G01X30141Y42768D01*
G37*
G36*
G01X30141Y41498D02*
G01X30141Y40797D01*
G01X32341Y40797D01*
G01X32341Y41498D01*
G01X30141Y41498D01*
G37*
G36*
G01X22742Y41498D02*
G01X22742Y40797D01*
G01X24942Y40797D01*
G01X24942Y41498D01*
G01X22742Y41498D01*
G37*
G36*
G01X22742Y42768D02*
G01X22742Y42067D01*
G01X24942Y42067D01*
G01X24942Y42768D01*
G01X22742Y42768D01*
G37*
G36*
G01X22742Y44038D02*
G01X22742Y43337D01*
G01X24942Y43337D01*
G01X24942Y44038D01*
G01X22742Y44038D01*
G37*
G36*
G01X22742Y45308D02*
G01X22742Y44607D01*
G01X24942Y44607D01*
G01X24942Y45308D01*
G01X22742Y45308D01*
G37*
G36*
G01X22742Y46578D02*
G01X22742Y45877D01*
G01X24942Y45877D01*
G01X24942Y46578D01*
G01X22742Y46578D01*
G37*
G36*
G01X22742Y47848D02*
G01X22742Y47147D01*
G01X24942Y47147D01*
G01X24942Y47848D01*
G01X22742Y47848D01*
G37*
G36*
G01X22742Y49118D02*
G01X22742Y48417D01*
G01X24942Y48417D01*
G01X24942Y49118D01*
G01X22742Y49118D01*
G37*
G36*
G01X22742Y50388D02*
G01X22742Y49687D01*
G01X24942Y49687D01*
G01X24942Y50388D01*
G01X22742Y50388D01*
G37*
G36*
G01X11866Y28348D02*
G01X13026Y28348D01*
G01X13026Y29818D01*
G01X11866Y29818D01*
G01X11866Y28348D01*
G37*
G36*
G01X13898Y28348D02*
G01X15058Y28348D01*
G01X15058Y29818D01*
G01X13898Y29818D01*
G01X13898Y28348D01*
G37*
G36*
G01X11659Y52578D02*
G01X11659Y54102D01*
G01X8660Y54102D01*
G01X8660Y52578D01*
G01X11659Y52578D01*
G37*
G36*
G01X11659Y50038D02*
G01X11659Y51562D01*
G01X8660Y51562D01*
G01X8660Y50038D01*
G01X11659Y50038D01*
G37*
G36*
G01X11659Y47498D02*
G01X11659Y49022D01*
G01X8660Y49022D01*
G01X8660Y47498D01*
G01X11659Y47498D01*
G37*
G36*
G01X11659Y44958D02*
G01X11659Y46482D01*
G01X8660Y46482D01*
G01X8660Y44958D01*
G01X11659Y44958D01*
G37*
G36*
G01X11659Y42418D02*
G01X11659Y43942D01*
G01X8660Y43942D01*
G01X8660Y42418D01*
G01X11659Y42418D01*
G37*
G36*
G01X11659Y39878D02*
G01X11659Y41402D01*
G01X8660Y41402D01*
G01X8660Y39878D01*
G01X11659Y39878D01*
G37*
G36*
G01X11659Y37338D02*
G01X11659Y38862D01*
G01X8660Y38862D01*
G01X8660Y37338D01*
G01X11659Y37338D01*
G37*
G36*
G01X11659Y34798D02*
G01X11659Y36322D01*
G01X8660Y36322D01*
G01X8660Y34798D01*
G01X11659Y34798D01*
G37*
M00*
M02*
