G04 Layer: BottomSilkLayer*
G04 EasyEDA v6.2.43, 2019-09-06T10:08:58+02:00*
G04 e2e4465fc3ca44109e84c49d15151505,91cc4837159741479c5be70faa949f3f,10*
G04 Gerber Generator version 0.2*
G04 Scale: 100 percent, Rotated: No, Reflected: No *
G04 Dimensions in millimeters *
G04 leading zeros omitted , absolute positions ,3 integer and 3 decimal *
%FSLAX33Y33*%
%MOMM*%
G90*
G71D02*

%ADD10C,0.254000*%
%ADD11C,0.499999*%
%ADD32C,0.199898*%
%ADD33C,0.228600*%
%ADD36C,0.100000*%
%ADD38C,0.200000*%

%LPD*%

%LPD*%
G36*
G01X19998Y7075D02*
G01X19943Y7076D01*
G01X19898Y7074D01*
G01X19863Y7070D01*
G01X19836Y7061D01*
G01X19815Y7046D01*
G01X19798Y7023D01*
G01X19786Y6991D01*
G01X19774Y6948D01*
G01X19763Y6894D01*
G01X19751Y6825D01*
G01X19736Y6741D01*
G01X19699Y6537D01*
G01X19513Y6460D01*
G01X19326Y6382D01*
G01X19120Y6525D01*
G01X19037Y6581D01*
G01X18966Y6626D01*
G01X18912Y6657D01*
G01X18885Y6668D01*
G01X18859Y6654D01*
G01X18813Y6616D01*
G01X18755Y6562D01*
G01X18691Y6499D01*
G01X18629Y6435D01*
G01X18576Y6376D01*
G01X18539Y6330D01*
G01X18525Y6304D01*
G01X18535Y6278D01*
G01X18564Y6229D01*
G01X18605Y6164D01*
G01X18656Y6088D01*
G01X18707Y6014D01*
G01X18748Y5948D01*
G01X18776Y5897D01*
G01X18786Y5870D01*
G01X18781Y5845D01*
G01X18765Y5796D01*
G01X18740Y5733D01*
G01X18711Y5661D01*
G01X18635Y5483D01*
G01X18415Y5447D01*
G01X18326Y5433D01*
G01X18248Y5418D01*
G01X18188Y5406D01*
G01X18156Y5398D01*
G01X18139Y5376D01*
G01X18126Y5327D01*
G01X18120Y5244D01*
G01X18118Y5125D01*
G01X18117Y5058D01*
G01X18117Y5004D01*
G01X18118Y4960D01*
G01X18122Y4926D01*
G01X18130Y4899D01*
G01X18145Y4878D01*
G01X18166Y4862D01*
G01X18197Y4849D01*
G01X18238Y4838D01*
G01X18291Y4827D01*
G01X18357Y4814D01*
G01X18437Y4799D01*
G01X18626Y4761D01*
G01X18709Y4563D01*
G01X18791Y4364D01*
G01X18658Y4171D01*
G01X18606Y4094D01*
G01X18564Y4026D01*
G01X18535Y3975D01*
G01X18525Y3949D01*
G01X18539Y3922D01*
G01X18577Y3876D01*
G01X18630Y3818D01*
G01X18693Y3753D01*
G01X18757Y3691D01*
G01X18816Y3638D01*
G01X18863Y3601D01*
G01X18889Y3587D01*
G01X18914Y3597D01*
G01X18963Y3625D01*
G01X19028Y3666D01*
G01X19102Y3716D01*
G01X19286Y3845D01*
G01X19385Y3797D01*
G01X19424Y3781D01*
G01X19459Y3769D01*
G01X19486Y3764D01*
G01X19500Y3767D01*
G01X19507Y3779D01*
G01X19520Y3805D01*
G01X19539Y3846D01*
G01X19562Y3897D01*
G01X19590Y3959D01*
G01X19620Y4029D01*
G01X19652Y4106D01*
G01X19687Y4187D01*
G01X19857Y4589D01*
G01X19759Y4671D01*
G01X19705Y4721D01*
G01X19658Y4775D01*
G01X19618Y4831D01*
G01X19585Y4889D01*
G01X19561Y4949D01*
G01X19543Y5011D01*
G01X19534Y5074D01*
G01X19532Y5138D01*
G01X19538Y5202D01*
G01X19552Y5266D01*
G01X19574Y5329D01*
G01X19604Y5392D01*
G01X19635Y5442D01*
G01X19671Y5486D01*
G01X19711Y5526D01*
G01X19755Y5560D01*
G01X19802Y5588D01*
G01X19852Y5612D01*
G01X19903Y5630D01*
G01X19957Y5643D01*
G01X20011Y5651D01*
G01X20066Y5654D01*
G01X20120Y5651D01*
G01X20174Y5643D01*
G01X20228Y5630D01*
G01X20279Y5612D01*
G01X20329Y5588D01*
G01X20376Y5560D01*
G01X20420Y5526D01*
G01X20460Y5486D01*
G01X20496Y5442D01*
G01X20527Y5392D01*
G01X20557Y5329D01*
G01X20579Y5266D01*
G01X20593Y5202D01*
G01X20599Y5138D01*
G01X20597Y5074D01*
G01X20588Y5011D01*
G01X20570Y4949D01*
G01X20546Y4889D01*
G01X20513Y4831D01*
G01X20473Y4775D01*
G01X20426Y4721D01*
G01X20372Y4671D01*
G01X20274Y4589D01*
G01X20444Y4187D01*
G01X20479Y4106D01*
G01X20511Y4029D01*
G01X20541Y3959D01*
G01X20569Y3897D01*
G01X20592Y3846D01*
G01X20611Y3805D01*
G01X20624Y3779D01*
G01X20631Y3767D01*
G01X20645Y3764D01*
G01X20672Y3769D01*
G01X20707Y3781D01*
G01X20746Y3797D01*
G01X20845Y3845D01*
G01X21029Y3716D01*
G01X21103Y3666D01*
G01X21168Y3625D01*
G01X21217Y3597D01*
G01X21242Y3587D01*
G01X21268Y3601D01*
G01X21315Y3638D01*
G01X21374Y3691D01*
G01X21438Y3753D01*
G01X21501Y3818D01*
G01X21554Y3876D01*
G01X21592Y3922D01*
G01X21606Y3949D01*
G01X21596Y3975D01*
G01X21567Y4026D01*
G01X21525Y4094D01*
G01X21473Y4171D01*
G01X21340Y4364D01*
G01X21422Y4563D01*
G01X21505Y4761D01*
G01X21694Y4799D01*
G01X21774Y4814D01*
G01X21840Y4827D01*
G01X21893Y4838D01*
G01X21934Y4849D01*
G01X21965Y4862D01*
G01X21986Y4878D01*
G01X22001Y4899D01*
G01X22009Y4926D01*
G01X22013Y4960D01*
G01X22014Y5004D01*
G01X22014Y5058D01*
G01X22013Y5125D01*
G01X22011Y5244D01*
G01X22005Y5327D01*
G01X21992Y5376D01*
G01X21975Y5398D01*
G01X21943Y5406D01*
G01X21883Y5418D01*
G01X21805Y5433D01*
G01X21716Y5447D01*
G01X21496Y5483D01*
G01X21420Y5661D01*
G01X21391Y5733D01*
G01X21366Y5796D01*
G01X21350Y5845D01*
G01X21345Y5870D01*
G01X21355Y5897D01*
G01X21383Y5948D01*
G01X21424Y6014D01*
G01X21475Y6088D01*
G01X21526Y6164D01*
G01X21567Y6230D01*
G01X21596Y6279D01*
G01X21606Y6305D01*
G01X21592Y6332D01*
G01X21554Y6377D01*
G01X21501Y6436D01*
G01X21439Y6500D01*
G01X21375Y6563D01*
G01X21316Y6616D01*
G01X21270Y6654D01*
G01X21244Y6668D01*
G01X21218Y6657D01*
G01X21165Y6626D01*
G01X21094Y6581D01*
G01X21011Y6525D01*
G01X20805Y6382D01*
G01X20618Y6460D01*
G01X20432Y6537D01*
G01X20395Y6741D01*
G01X20379Y6825D01*
G01X20364Y6904D01*
G01X20351Y6968D01*
G01X20342Y7009D01*
G01X20327Y7046D01*
G01X20291Y7065D01*
G01X20210Y7073D01*
G01X20066Y7075D01*
G01X19998Y7075D01*
G37*

%LPC*%
G36*
G01X20127Y6958D02*
G01X20066Y6959D01*
G01X19980Y6957D01*
G01X19926Y6948D01*
G01X19895Y6933D01*
G01X19880Y6908D01*
G01X19873Y6879D01*
G01X19864Y6838D01*
G01X19855Y6790D01*
G01X19847Y6741D01*
G01X19831Y6649D01*
G01X19816Y6578D01*
G01X19797Y6522D01*
G01X19772Y6479D01*
G01X19737Y6444D01*
G01X19691Y6414D01*
G01X19629Y6384D01*
G01X19549Y6351D01*
G01X19326Y6260D01*
G01X19180Y6352D01*
G01X19073Y6420D01*
G01X18994Y6468D01*
G01X18937Y6499D01*
G01X18895Y6513D01*
G01X18863Y6511D01*
G01X18833Y6493D01*
G01X18799Y6462D01*
G01X18635Y6298D01*
G01X18773Y6091D01*
G01X18822Y6016D01*
G01X18858Y5955D01*
G01X18881Y5903D01*
G01X18890Y5856D01*
G01X18886Y5806D01*
G01X18871Y5748D01*
G01X18843Y5676D01*
G01X18803Y5585D01*
G01X18774Y5522D01*
G01X18747Y5473D01*
G01X18718Y5435D01*
G01X18685Y5406D01*
G01X18643Y5383D01*
G01X18589Y5365D01*
G01X18519Y5349D01*
G01X18430Y5331D01*
G01X18234Y5295D01*
G01X18234Y4929D01*
G01X18445Y4894D01*
G01X18529Y4878D01*
G01X18604Y4861D01*
G01X18660Y4844D01*
G01X18691Y4831D01*
G01X18712Y4801D01*
G01X18742Y4742D01*
G01X18779Y4661D01*
G01X18817Y4567D01*
G01X18907Y4333D01*
G01X18643Y3950D01*
G01X18899Y3693D01*
G01X19080Y3814D01*
G01X19198Y3887D01*
G01X19286Y3926D01*
G01X19346Y3932D01*
G01X19382Y3906D01*
G01X19397Y3888D01*
G01X19412Y3882D01*
G01X19428Y3890D01*
G01X19448Y3915D01*
G01X19473Y3957D01*
G01X19503Y4020D01*
G01X19540Y4105D01*
G01X19586Y4213D01*
G01X19725Y4549D01*
G01X19620Y4656D01*
G01X19582Y4700D01*
G01X19547Y4744D01*
G01X19517Y4789D01*
G01X19491Y4837D01*
G01X19470Y4884D01*
G01X19452Y4933D01*
G01X19439Y4983D01*
G01X19431Y5033D01*
G01X19426Y5083D01*
G01X19425Y5133D01*
G01X19429Y5184D01*
G01X19437Y5233D01*
G01X19449Y5283D01*
G01X19466Y5331D01*
G01X19486Y5379D01*
G01X19511Y5425D01*
G01X19539Y5471D01*
G01X19572Y5515D01*
G01X19610Y5557D01*
G01X19651Y5597D01*
G01X19695Y5633D01*
G01X19740Y5664D01*
G01X19787Y5691D01*
G01X19835Y5712D01*
G01X19884Y5730D01*
G01X19934Y5742D01*
G01X19984Y5751D01*
G01X20035Y5755D01*
G01X20085Y5755D01*
G01X20135Y5751D01*
G01X20184Y5743D01*
G01X20233Y5731D01*
G01X20280Y5716D01*
G01X20327Y5697D01*
G01X20372Y5674D01*
G01X20414Y5648D01*
G01X20456Y5620D01*
G01X20495Y5588D01*
G01X20531Y5552D01*
G01X20564Y5514D01*
G01X20595Y5474D01*
G01X20622Y5430D01*
G01X20646Y5384D01*
G01X20666Y5336D01*
G01X20682Y5285D01*
G01X20694Y5231D01*
G01X20702Y5176D01*
G01X20705Y5119D01*
G01X20702Y5054D01*
G01X20693Y4991D01*
G01X20678Y4931D01*
G01X20657Y4872D01*
G01X20630Y4816D01*
G01X20596Y4761D01*
G01X20557Y4708D01*
G01X20511Y4656D01*
G01X20406Y4549D01*
G01X20545Y4213D01*
G01X20591Y4105D01*
G01X20628Y4020D01*
G01X20658Y3957D01*
G01X20683Y3915D01*
G01X20703Y3890D01*
G01X20719Y3882D01*
G01X20734Y3888D01*
G01X20749Y3906D01*
G01X20785Y3932D01*
G01X20845Y3926D01*
G01X20933Y3887D01*
G01X21051Y3814D01*
G01X21232Y3693D01*
G01X21361Y3822D01*
G01X21490Y3950D01*
G01X21385Y4096D01*
G01X21334Y4168D01*
G01X21296Y4227D01*
G01X21271Y4277D01*
G01X21257Y4322D01*
G01X21255Y4367D01*
G01X21263Y4416D01*
G01X21280Y4474D01*
G01X21306Y4546D01*
G01X21344Y4644D01*
G01X21376Y4720D01*
G01X21406Y4775D01*
G01X21439Y4815D01*
G01X21479Y4843D01*
G01X21529Y4863D01*
G01X21594Y4878D01*
G01X21677Y4893D01*
G01X21897Y4928D01*
G01X21897Y5295D01*
G01X21701Y5331D01*
G01X21614Y5348D01*
G01X21546Y5364D01*
G01X21493Y5381D01*
G01X21453Y5400D01*
G01X21421Y5424D01*
G01X21395Y5456D01*
G01X21373Y5496D01*
G01X21349Y5546D01*
G01X21315Y5622D01*
G01X21288Y5685D01*
G01X21266Y5737D01*
G01X21252Y5782D01*
G01X21243Y5820D01*
G01X21240Y5854D01*
G01X21244Y5886D01*
G01X21254Y5918D01*
G01X21270Y5953D01*
G01X21292Y5991D01*
G01X21321Y6036D01*
G01X21357Y6089D01*
G01X21496Y6298D01*
G01X21332Y6462D01*
G01X21298Y6493D01*
G01X21268Y6511D01*
G01X21236Y6513D01*
G01X21194Y6499D01*
G01X21137Y6468D01*
G01X21058Y6420D01*
G01X20951Y6352D01*
G01X20805Y6260D01*
G01X20582Y6351D01*
G01X20502Y6384D01*
G01X20440Y6414D01*
G01X20394Y6444D01*
G01X20359Y6479D01*
G01X20334Y6522D01*
G01X20315Y6578D01*
G01X20300Y6649D01*
G01X20284Y6741D01*
G01X20273Y6813D01*
G01X20262Y6868D01*
G01X20249Y6907D01*
G01X20232Y6932D01*
G01X20207Y6948D01*
G01X20173Y6956D01*
G01X20127Y6958D01*
G37*

%LPD*%
G36*
G01X18786Y2917D02*
G01X18786Y3178D01*
G01X18717Y3152D01*
G01X18686Y3142D01*
G01X18658Y3140D01*
G01X18635Y3145D01*
G01X18618Y3156D01*
G01X18600Y3167D01*
G01X18575Y3172D01*
G01X18545Y3173D01*
G01X18514Y3168D01*
G01X18462Y3142D01*
G01X18456Y3108D01*
G01X18492Y3076D01*
G01X18564Y3058D01*
G01X18656Y3049D01*
G01X18664Y2852D01*
G01X18671Y2749D01*
G01X18681Y2690D01*
G01X18699Y2662D01*
G01X18729Y2656D01*
G01X18760Y2663D01*
G01X18778Y2697D01*
G01X18785Y2775D01*
G01X18786Y2917D01*
G37*

%LPD*%
G36*
G01X20827Y3175D02*
G01X20780Y3176D01*
G01X20731Y3158D01*
G01X20682Y3120D01*
G01X20649Y3082D01*
G01X20629Y3035D01*
G01X20620Y2965D01*
G01X20618Y2859D01*
G01X20620Y2750D01*
G01X20627Y2689D01*
G01X20645Y2662D01*
G01X20676Y2656D01*
G01X20707Y2662D01*
G01X20724Y2687D01*
G01X20733Y2745D01*
G01X20734Y2846D01*
G01X20736Y2939D01*
G01X20744Y3001D01*
G01X20758Y3037D01*
G01X20782Y3054D01*
G01X20844Y3062D01*
G01X20889Y3029D01*
G01X20918Y2954D01*
G01X20932Y2835D01*
G01X20938Y2742D01*
G01X20949Y2687D01*
G01X20967Y2662D01*
G01X20997Y2656D01*
G01X21028Y2663D01*
G01X21045Y2695D01*
G01X21053Y2771D01*
G01X21054Y2907D01*
G01X21053Y3051D01*
G01X21045Y3124D01*
G01X21024Y3148D01*
G01X20983Y3144D01*
G01X20952Y3140D01*
G01X20922Y3141D01*
G01X20895Y3146D01*
G01X20874Y3154D01*
G01X20827Y3175D01*
G37*

%LPD*%
G36*
G01X18990Y3144D02*
G01X18960Y3151D01*
G01X18929Y3144D01*
G01X18912Y3112D01*
G01X18904Y3037D01*
G01X18903Y2903D01*
G01X18903Y2655D01*
G01X18982Y2655D01*
G01X19021Y2654D01*
G01X19064Y2654D01*
G01X19108Y2653D01*
G01X19148Y2652D01*
G01X19190Y2655D01*
G01X19225Y2666D01*
G01X19253Y2686D01*
G01X19275Y2715D01*
G01X19291Y2755D01*
G01X19301Y2808D01*
G01X19308Y2873D01*
G01X19310Y2953D01*
G01X19308Y3058D01*
G01X19300Y3118D01*
G01X19283Y3145D01*
G01X19253Y3151D01*
G01X19223Y3144D01*
G01X19204Y3117D01*
G01X19194Y3058D01*
G01X19188Y2954D01*
G01X19181Y2844D01*
G01X19170Y2786D01*
G01X19147Y2763D01*
G01X19106Y2758D01*
G01X19065Y2763D01*
G01X19042Y2786D01*
G01X19031Y2844D01*
G01X19025Y2954D01*
G01X19019Y3058D01*
G01X19008Y3117D01*
G01X18990Y3144D01*
G37*

%LPD*%
G36*
G01X18248Y3171D02*
G01X18195Y3176D01*
G01X18145Y3163D01*
G01X18094Y3133D01*
G01X18062Y3108D01*
G01X18048Y3088D01*
G01X18048Y3068D01*
G01X18063Y3045D01*
G01X18080Y3028D01*
G01X18097Y3020D01*
G01X18113Y3022D01*
G01X18128Y3033D01*
G01X18180Y3062D01*
G01X18237Y3062D01*
G01X18289Y3035D01*
G01X18324Y2984D01*
G01X18337Y2930D01*
G01X18335Y2879D01*
G01X18322Y2833D01*
G01X18298Y2794D01*
G01X18267Y2766D01*
G01X18230Y2750D01*
G01X18188Y2749D01*
G01X18146Y2767D01*
G01X18119Y2780D01*
G01X18098Y2784D01*
G01X18080Y2777D01*
G01X18062Y2760D01*
G01X18048Y2733D01*
G01X18053Y2707D01*
G01X18072Y2684D01*
G01X18104Y2665D01*
G01X18145Y2652D01*
G01X18191Y2646D01*
G01X18242Y2649D01*
G01X18292Y2660D01*
G01X18360Y2694D01*
G01X18405Y2743D01*
G01X18430Y2811D01*
G01X18437Y2903D01*
G01X18430Y2992D01*
G01X18406Y3063D01*
G01X18367Y3116D01*
G01X18312Y3150D01*
G01X18248Y3171D01*
G37*

%LPD*%
G36*
G01X21369Y3175D02*
G01X21342Y3180D01*
G01X21277Y3159D01*
G01X21211Y3106D01*
G01X21160Y3036D01*
G01X21135Y2962D01*
G01X21133Y2911D01*
G01X21149Y2884D01*
G01X21197Y2872D01*
G01X21294Y2866D01*
G01X21386Y2860D01*
G01X21433Y2849D01*
G01X21443Y2831D01*
G01X21429Y2797D01*
G01X21409Y2767D01*
G01X21382Y2751D01*
G01X21344Y2748D01*
G01X21285Y2755D01*
G01X21241Y2759D01*
G01X21202Y2760D01*
G01X21173Y2755D01*
G01X21158Y2747D01*
G01X21159Y2712D01*
G01X21197Y2679D01*
G01X21260Y2654D01*
G01X21337Y2645D01*
G01X21386Y2649D01*
G01X21429Y2662D01*
G01X21466Y2683D01*
G01X21496Y2713D01*
G01X21518Y2751D01*
G01X21535Y2799D01*
G01X21545Y2854D01*
G01X21548Y2919D01*
G01X21545Y2993D01*
G01X21534Y3044D01*
G01X21510Y3083D01*
G01X21472Y3119D01*
G01X21438Y3142D01*
G01X21402Y3162D01*
G01X21369Y3175D01*
G37*

%LPC*%
G36*
G01X21398Y3043D02*
G01X21354Y3061D01*
G01X21307Y3056D01*
G01X21263Y3028D01*
G01X21233Y2990D01*
G01X21236Y2965D01*
G01X21273Y2951D01*
G01X21346Y2947D01*
G01X21409Y2948D01*
G01X21440Y2956D01*
G01X21446Y2973D01*
G01X21432Y3005D01*
G01X21398Y3043D01*
G37*

%LPD*%
G36*
G01X20179Y3165D02*
G01X20125Y3177D01*
G01X20064Y3172D01*
G01X19992Y3150D01*
G01X19934Y3116D01*
G01X19929Y3084D01*
G01X19973Y3062D01*
G01X20058Y3058D01*
G01X20127Y3060D01*
G01X20172Y3053D01*
G01X20195Y3039D01*
G01X20197Y3021D01*
G01X20177Y3000D01*
G01X20137Y2976D01*
G01X20078Y2954D01*
G01X20000Y2934D01*
G01X19949Y2913D01*
G01X19916Y2880D01*
G01X19899Y2839D01*
G01X19900Y2792D01*
G01X19916Y2746D01*
G01X19948Y2703D01*
G01X19993Y2668D01*
G01X20053Y2644D01*
G01X20128Y2644D01*
G01X20219Y2668D01*
G01X20295Y2703D01*
G01X20327Y2740D01*
G01X20317Y2771D01*
G01X20293Y2788D01*
G01X20260Y2789D01*
G01X20226Y2773D01*
G01X20171Y2750D01*
G01X20103Y2749D01*
G01X20046Y2768D01*
G01X20022Y2801D01*
G01X20029Y2820D01*
G01X20051Y2838D01*
G01X20086Y2852D01*
G01X20134Y2863D01*
G01X20193Y2878D01*
G01X20239Y2904D01*
G01X20274Y2937D01*
G01X20296Y2975D01*
G01X20303Y3017D01*
G01X20296Y3058D01*
G01X20273Y3098D01*
G01X20234Y3134D01*
G01X20179Y3165D01*
G37*

%LPD*%
G36*
G01X17803Y3172D02*
G01X17744Y3173D01*
G01X17691Y3152D01*
G01X17637Y3108D01*
G01X17607Y3072D01*
G01X17584Y3032D01*
G01X17570Y2990D01*
G01X17566Y2948D01*
G01X17568Y2897D01*
G01X17586Y2871D01*
G01X17633Y2861D01*
G01X17725Y2860D01*
G01X17788Y2858D01*
G01X17838Y2852D01*
G01X17872Y2844D01*
G01X17885Y2834D01*
G01X17870Y2798D01*
G01X17831Y2768D01*
G01X17774Y2751D01*
G01X17708Y2749D01*
G01X17638Y2746D01*
G01X17607Y2726D01*
G01X17616Y2695D01*
G01X17670Y2660D01*
G01X17722Y2644D01*
G01X17774Y2640D01*
G01X17824Y2649D01*
G01X17870Y2670D01*
G01X17912Y2701D01*
G01X17946Y2742D01*
G01X17973Y2792D01*
G01X17990Y2850D01*
G01X17993Y2943D01*
G01X17971Y3033D01*
G01X17929Y3107D01*
G01X17873Y3151D01*
G01X17803Y3172D01*
G37*

%LPC*%
G36*
G01X17864Y3045D02*
G01X17822Y3061D01*
G01X17765Y3056D01*
G01X17713Y3033D01*
G01X17687Y2998D01*
G01X17687Y2973D01*
G01X17700Y2957D01*
G01X17730Y2949D01*
G01X17782Y2947D01*
G01X17844Y2955D01*
G01X17880Y2976D01*
G01X17888Y3007D01*
G01X17864Y3045D01*
G37*

%LPD*%
G36*
G01X22413Y3168D02*
G01X22373Y3173D01*
G01X22324Y3167D01*
G01X22247Y3145D01*
G01X22195Y3107D01*
G01X22160Y3050D01*
G01X22139Y2967D01*
G01X22135Y2890D01*
G01X22145Y2818D01*
G01X22170Y2756D01*
G01X22206Y2705D01*
G01X22251Y2668D01*
G01X22305Y2645D01*
G01X22364Y2640D01*
G01X22428Y2654D01*
G01X22490Y2689D01*
G01X22533Y2743D01*
G01X22558Y2818D01*
G01X22565Y2917D01*
G01X22562Y2977D01*
G01X22549Y3027D01*
G01X22526Y3070D01*
G01X22491Y3112D01*
G01X22450Y3148D01*
G01X22413Y3168D01*
G37*

%LPC*%
G36*
G01X22399Y3058D02*
G01X22343Y3063D01*
G01X22312Y3059D01*
G01X22288Y3046D01*
G01X22270Y3025D01*
G01X22259Y2994D01*
G01X22249Y2937D01*
G01X22249Y2884D01*
G01X22259Y2838D01*
G01X22275Y2800D01*
G01X22299Y2770D01*
G01X22329Y2751D01*
G01X22363Y2745D01*
G01X22402Y2752D01*
G01X22424Y2768D01*
G01X22438Y2796D01*
G01X22446Y2839D01*
G01X22449Y2898D01*
G01X22446Y2985D01*
G01X22431Y3035D01*
G01X22399Y3058D01*
G37*

%LPD*%
G36*
G01X19680Y3168D02*
G01X19641Y3173D01*
G01X19592Y3167D01*
G01X19511Y3142D01*
G01X19456Y3100D01*
G01X19423Y3034D01*
G01X19405Y2937D01*
G01X19399Y2863D01*
G01X19407Y2811D01*
G01X19433Y2766D01*
G01X19481Y2713D01*
G01X19530Y2668D01*
G01X19570Y2643D01*
G01X19609Y2634D01*
G01X19652Y2640D01*
G01X19697Y2656D01*
G01X19736Y2680D01*
G01X19769Y2712D01*
G01X19796Y2750D01*
G01X19817Y2792D01*
G01X19831Y2838D01*
G01X19838Y2885D01*
G01X19837Y2934D01*
G01X19830Y2982D01*
G01X19814Y3029D01*
G01X19791Y3072D01*
G01X19758Y3112D01*
G01X19718Y3148D01*
G01X19680Y3168D01*
G37*

%LPC*%
G36*
G01X19664Y3061D02*
G01X19622Y3062D01*
G01X19578Y3048D01*
G01X19544Y3022D01*
G01X19521Y2963D01*
G01X19520Y2885D01*
G01X19539Y2811D01*
G01X19575Y2764D01*
G01X19634Y2742D01*
G01X19678Y2758D01*
G01X19707Y2811D01*
G01X19717Y2898D01*
G01X19715Y2948D01*
G01X19711Y2993D01*
G01X19705Y3026D01*
G01X19697Y3044D01*
G01X19664Y3061D01*
G37*

%LPD*%
G36*
G01X19288Y2334D02*
G01X19237Y2336D01*
G01X19178Y2333D01*
G01X19130Y2322D01*
G01X19092Y2302D01*
G01X19063Y2271D01*
G01X19042Y2228D01*
G01X19029Y2172D01*
G01X19021Y2101D01*
G01X19019Y2014D01*
G01X19019Y1821D01*
G01X19181Y1820D01*
G01X19242Y1822D01*
G01X19295Y1829D01*
G01X19342Y1842D01*
G01X19381Y1860D01*
G01X19413Y1882D01*
G01X19436Y1909D01*
G01X19450Y1939D01*
G01X19455Y1973D01*
G01X19436Y2032D01*
G01X19386Y2083D01*
G01X19315Y2119D01*
G01X19235Y2133D01*
G01X19184Y2135D01*
G01X19154Y2143D01*
G01X19140Y2159D01*
G01X19141Y2184D01*
G01X19152Y2208D01*
G01X19173Y2224D01*
G01X19207Y2232D01*
G01X19257Y2235D01*
G01X19330Y2239D01*
G01X19375Y2252D01*
G01X19392Y2274D01*
G01X19384Y2305D01*
G01X19366Y2318D01*
G01X19332Y2327D01*
G01X19288Y2334D01*
G37*

%LPC*%
G36*
G01X19298Y2030D02*
G01X19218Y2046D01*
G01X19179Y2043D01*
G01X19154Y2034D01*
G01X19139Y2017D01*
G01X19135Y1991D01*
G01X19146Y1949D01*
G01X19174Y1923D01*
G01X19220Y1913D01*
G01X19278Y1920D01*
G01X19336Y1953D01*
G01X19340Y1994D01*
G01X19298Y2030D01*
G37*

%LPD*%
G36*
G01X21427Y2330D02*
G01X21347Y2335D01*
G01X21263Y2327D01*
G01X21197Y2306D01*
G01X21168Y2283D01*
G01X21151Y2241D01*
G01X21143Y2168D01*
G01X21141Y2049D01*
G01X21141Y1822D01*
G01X21279Y1820D01*
G01X21342Y1822D01*
G01X21395Y1829D01*
G01X21442Y1842D01*
G01X21480Y1860D01*
G01X21510Y1884D01*
G01X21531Y1913D01*
G01X21544Y1948D01*
G01X21548Y1987D01*
G01X21536Y2051D01*
G01X21498Y2097D01*
G01X21435Y2124D01*
G01X21347Y2133D01*
G01X21302Y2136D01*
G01X21275Y2145D01*
G01X21261Y2164D01*
G01X21257Y2195D01*
G01X21261Y2228D01*
G01X21277Y2244D01*
G01X21312Y2248D01*
G01X21374Y2241D01*
G01X21452Y2239D01*
G01X21502Y2253D01*
G01X21516Y2278D01*
G01X21486Y2310D01*
G01X21427Y2330D01*
G37*

%LPC*%
G36*
G01X21418Y2035D02*
G01X21340Y2046D01*
G01X21301Y2043D01*
G01X21276Y2034D01*
G01X21261Y2017D01*
G01X21257Y1991D01*
G01X21270Y1947D01*
G01X21303Y1920D01*
G01X21351Y1914D01*
G01X21405Y1930D01*
G01X21454Y1971D01*
G01X21458Y2008D01*
G01X21418Y2035D01*
G37*

%LPD*%
G36*
G01X18934Y2330D02*
G01X18758Y2333D01*
G01X18690Y2332D01*
G01X18634Y2328D01*
G01X18597Y2322D01*
G01X18583Y2314D01*
G01X18593Y2277D01*
G01X18616Y2249D01*
G01X18646Y2234D01*
G01X18680Y2237D01*
G01X18713Y2245D01*
G01X18740Y2242D01*
G01X18763Y2229D01*
G01X18782Y2205D01*
G01X18797Y2170D01*
G01X18807Y2123D01*
G01X18813Y2066D01*
G01X18815Y1996D01*
G01X18817Y1899D01*
G01X18824Y1844D01*
G01X18840Y1820D01*
G01X18867Y1819D01*
G01X18893Y1833D01*
G01X18909Y1872D01*
G01X18919Y1950D01*
G01X18926Y2079D01*
G01X18934Y2330D01*
G37*

%LPD*%
G36*
G01X19544Y2328D02*
G01X19516Y2336D01*
G01X19488Y2330D01*
G01X19482Y2299D01*
G01X19499Y2223D01*
G01X19541Y2082D01*
G01X19566Y2008D01*
G01X19588Y1946D01*
G01X19609Y1895D01*
G01X19629Y1858D01*
G01X19647Y1832D01*
G01X19665Y1819D01*
G01X19681Y1818D01*
G01X19698Y1828D01*
G01X19714Y1850D01*
G01X19731Y1884D01*
G01X19747Y1929D01*
G01X19764Y1986D01*
G01X19785Y2053D01*
G01X19804Y2106D01*
G01X19820Y2138D01*
G01X19830Y2146D01*
G01X19839Y2128D01*
G01X19854Y2090D01*
G01X19872Y2039D01*
G01X19891Y1979D01*
G01X19916Y1905D01*
G01X19940Y1854D01*
G01X19964Y1827D01*
G01X19988Y1824D01*
G01X20013Y1845D01*
G01X20040Y1890D01*
G01X20070Y1959D01*
G01X20103Y2054D01*
G01X20134Y2150D01*
G01X20158Y2231D01*
G01X20176Y2290D01*
G01X20182Y2316D01*
G01X20178Y2324D01*
G01X20166Y2331D01*
G01X20149Y2335D01*
G01X20128Y2336D01*
G01X20101Y2329D01*
G01X20078Y2302D01*
G01X20058Y2252D01*
G01X20039Y2174D01*
G01X20023Y2113D01*
G01X20007Y2066D01*
G01X19993Y2037D01*
G01X19983Y2031D01*
G01X19972Y2049D01*
G01X19956Y2084D01*
G01X19937Y2132D01*
G01X19918Y2186D01*
G01X19894Y2248D01*
G01X19870Y2293D01*
G01X19848Y2320D01*
G01X19826Y2327D01*
G01X19803Y2318D01*
G01X19781Y2289D01*
G01X19758Y2242D01*
G01X19735Y2178D01*
G01X19715Y2115D01*
G01X19696Y2064D01*
G01X19682Y2029D01*
G01X19674Y2017D01*
G01X19666Y2029D01*
G01X19652Y2064D01*
G01X19635Y2114D01*
G01X19616Y2177D01*
G01X19592Y2252D01*
G01X19568Y2301D01*
G01X19544Y2328D01*
G37*

%LPD*%
G36*
G01X21833Y3172D02*
G01X21809Y3175D01*
G01X21787Y3173D01*
G01X21759Y3165D01*
G01X21729Y3152D01*
G01X21700Y3134D01*
G01X21667Y3105D01*
G01X21647Y3068D01*
G01X21638Y3013D01*
G01X21635Y2933D01*
G01X21637Y2869D01*
G01X21641Y2809D01*
G01X21646Y2760D01*
G01X21654Y2729D01*
G01X21689Y2684D01*
G01X21746Y2654D01*
G01X21810Y2643D01*
G01X21870Y2657D01*
G01X21901Y2670D01*
G01X21918Y2656D01*
G01X21925Y2605D01*
G01X21926Y2503D01*
G01X21926Y2319D01*
G01X21829Y2330D01*
G01X21776Y2333D01*
G01X21734Y2327D01*
G01X21700Y2310D01*
G01X21674Y2282D01*
G01X21656Y2241D01*
G01X21644Y2186D01*
G01X21637Y2115D01*
G01X21635Y2027D01*
G01X21637Y1912D01*
G01X21644Y1848D01*
G01X21659Y1821D01*
G01X21686Y1819D01*
G01X21712Y1832D01*
G01X21730Y1867D01*
G01X21742Y1930D01*
G01X21752Y2032D01*
G01X21761Y2145D01*
G01X21774Y2206D01*
G01X21798Y2230D01*
G01X21839Y2235D01*
G01X21880Y2230D01*
G01X21903Y2206D01*
G01X21916Y2145D01*
G01X21926Y2032D01*
G01X21935Y1930D01*
G01X21948Y1867D01*
G01X21965Y1832D01*
G01X21991Y1819D01*
G01X22003Y1818D01*
G01X22012Y1821D01*
G01X22019Y1830D01*
G01X22025Y1848D01*
G01X22030Y1874D01*
G01X22035Y1912D01*
G01X22038Y1963D01*
G01X22040Y2029D01*
G01X22041Y2111D01*
G01X22042Y2213D01*
G01X22042Y3147D01*
G01X21948Y3158D01*
G01X21868Y3168D01*
G01X21833Y3172D01*
G37*

%LPC*%
G36*
G01X21881Y3055D02*
G01X21832Y3058D01*
G01X21797Y3049D01*
G01X21777Y3026D01*
G01X21768Y2980D01*
G01X21766Y2903D01*
G01X21768Y2823D01*
G01X21777Y2780D01*
G01X21799Y2761D01*
G01X21839Y2758D01*
G01X21877Y2762D01*
G01X21900Y2777D01*
G01X21914Y2811D01*
G01X21921Y2870D01*
G01X21923Y2965D01*
G01X21911Y3025D01*
G01X21881Y3055D01*
G37*

%LPD*%
G36*
G01X18407Y2333D02*
G01X18353Y2336D01*
G01X18268Y2325D01*
G01X18204Y2289D01*
G01X18158Y2228D01*
G01X18130Y2140D01*
G01X18111Y2049D01*
G01X18481Y2032D01*
G01X18417Y1966D01*
G01X18382Y1937D01*
G01X18351Y1920D01*
G01X18320Y1917D01*
G01X18285Y1926D01*
G01X18203Y1942D01*
G01X18157Y1926D01*
G01X18160Y1890D01*
G01X18221Y1847D01*
G01X18298Y1820D01*
G01X18364Y1817D01*
G01X18424Y1838D01*
G01X18483Y1885D01*
G01X18511Y1921D01*
G01X18532Y1966D01*
G01X18547Y2017D01*
G01X18554Y2072D01*
G01X18554Y2126D01*
G01X18547Y2180D01*
G01X18532Y2229D01*
G01X18508Y2272D01*
G01X18482Y2302D01*
G01X18449Y2322D01*
G01X18407Y2333D01*
G37*

%LPC*%
G36*
G01X18420Y2221D02*
G01X18377Y2247D01*
G01X18323Y2246D01*
G01X18269Y2214D01*
G01X18240Y2177D01*
G01X18241Y2152D01*
G01X18272Y2138D01*
G01X18336Y2133D01*
G01X18379Y2136D01*
G01X18411Y2143D01*
G01X18431Y2155D01*
G01X18437Y2172D01*
G01X18420Y2221D01*
G37*

%LPD*%
G36*
G01X20346Y2540D02*
G01X20329Y2553D01*
G01X20298Y2549D01*
G01X20280Y2542D01*
G01X20266Y2531D01*
G01X20256Y2513D01*
G01X20249Y2483D01*
G01X20244Y2439D01*
G01X20241Y2377D01*
G01X20240Y2294D01*
G01X20240Y2086D01*
G01X20242Y2006D01*
G01X20244Y1945D01*
G01X20248Y1898D01*
G01X20255Y1866D01*
G01X20264Y1844D01*
G01X20275Y1830D01*
G01X20289Y1822D01*
G01X20309Y1817D01*
G01X20327Y1818D01*
G01X20341Y1825D01*
G01X20349Y1837D01*
G01X20358Y1851D01*
G01X20371Y1856D01*
G01X20392Y1852D01*
G01X20420Y1839D01*
G01X20484Y1820D01*
G01X20547Y1828D01*
G01X20602Y1861D01*
G01X20642Y1916D01*
G01X20657Y1958D01*
G01X20668Y2006D01*
G01X20674Y2055D01*
G01X20674Y2106D01*
G01X20670Y2154D01*
G01X20661Y2201D01*
G01X20647Y2241D01*
G01X20628Y2275D01*
G01X20600Y2309D01*
G01X20569Y2328D01*
G01X20528Y2333D01*
G01X20468Y2328D01*
G01X20356Y2313D01*
G01X20356Y2438D01*
G01X20355Y2504D01*
G01X20346Y2540D01*
G37*

%LPC*%
G36*
G01X20485Y2245D02*
G01X20455Y2249D01*
G01X20424Y2239D01*
G01X20391Y2214D01*
G01X20368Y2166D01*
G01X20358Y2096D01*
G01X20362Y2021D01*
G01X20382Y1963D01*
G01X20397Y1949D01*
G01X20420Y1939D01*
G01X20447Y1933D01*
G01X20476Y1934D01*
G01X20511Y1944D01*
G01X20534Y1963D01*
G01X20547Y1998D01*
G01X20554Y2055D01*
G01X20555Y2112D01*
G01X20547Y2160D01*
G01X20531Y2199D01*
G01X20511Y2228D01*
G01X20485Y2245D01*
G37*

%LPD*%
G36*
G01X21025Y2330D02*
G01X20850Y2333D01*
G01X20783Y2332D01*
G01X20727Y2328D01*
G01X20690Y2321D01*
G01X20676Y2312D01*
G01X20687Y2281D01*
G01X20714Y2255D01*
G01X20748Y2239D01*
G01X20782Y2240D01*
G01X20837Y2243D01*
G01X20876Y2203D01*
G01X20901Y2122D01*
G01X20909Y1998D01*
G01X20910Y1899D01*
G01X20918Y1844D01*
G01X20936Y1819D01*
G01X20967Y1813D01*
G01X20998Y1820D01*
G01X21016Y1853D01*
G01X21023Y1930D01*
G01X21025Y2072D01*
G01X21025Y2330D01*
G37*

%LPD*%
G36*
G01X12349Y8530D02*
G01X12292Y8531D01*
G01X12227Y8530D01*
G01X12157Y8527D01*
G01X12083Y8524D01*
G01X12010Y8520D01*
G01X11937Y8514D01*
G01X11868Y8508D01*
G01X11805Y8502D01*
G01X11751Y8494D01*
G01X11706Y8487D01*
G01X11649Y8474D01*
G01X11591Y8461D01*
G01X11534Y8445D01*
G01X11478Y8429D01*
G01X11421Y8411D01*
G01X11365Y8392D01*
G01X11310Y8371D01*
G01X11255Y8349D01*
G01X11200Y8326D01*
G01X11146Y8302D01*
G01X11093Y8276D01*
G01X11040Y8249D01*
G01X10988Y8221D01*
G01X10937Y8192D01*
G01X10886Y8162D01*
G01X10786Y8098D01*
G01X10690Y8030D01*
G01X10643Y7994D01*
G01X10597Y7957D01*
G01X10552Y7920D01*
G01X10508Y7881D01*
G01X10465Y7841D01*
G01X10423Y7801D01*
G01X10382Y7759D01*
G01X10343Y7717D01*
G01X10304Y7674D01*
G01X10266Y7630D01*
G01X10230Y7585D01*
G01X10195Y7539D01*
G01X10161Y7493D01*
G01X10123Y7437D01*
G01X10086Y7380D01*
G01X10051Y7322D01*
G01X10017Y7262D01*
G01X9984Y7201D01*
G01X9953Y7139D01*
G01X9923Y7076D01*
G01X9895Y7011D01*
G01X9868Y6946D01*
G01X9843Y6880D01*
G01X9820Y6814D01*
G01X9798Y6747D01*
G01X9778Y6680D01*
G01X9760Y6612D01*
G01X9744Y6544D01*
G01X9730Y6477D01*
G01X9723Y6435D01*
G01X9717Y6387D01*
G01X9712Y6336D01*
G01X9707Y6280D01*
G01X9704Y6221D01*
G01X9702Y6161D01*
G01X9700Y6098D01*
G01X9700Y5972D01*
G01X9702Y5909D01*
G01X9704Y5848D01*
G01X9707Y5790D01*
G01X9712Y5734D01*
G01X9717Y5682D01*
G01X9723Y5635D01*
G01X9730Y5593D01*
G01X9743Y5529D01*
G01X9758Y5466D01*
G01X9774Y5404D01*
G01X9792Y5342D01*
G01X9811Y5281D01*
G01X9831Y5220D01*
G01X9853Y5160D01*
G01X9876Y5101D01*
G01X9900Y5043D01*
G01X9926Y4986D01*
G01X9953Y4929D01*
G01X9982Y4873D01*
G01X10011Y4818D01*
G01X10042Y4764D01*
G01X10075Y4711D01*
G01X10108Y4659D01*
G01X10143Y4607D01*
G01X10179Y4557D01*
G01X10216Y4507D01*
G01X10254Y4459D01*
G01X10293Y4411D01*
G01X10334Y4365D01*
G01X10376Y4319D01*
G01X10418Y4275D01*
G01X10462Y4231D01*
G01X10507Y4189D01*
G01X10553Y4148D01*
G01X10600Y4108D01*
G01X10648Y4069D01*
G01X10698Y4031D01*
G01X10748Y3995D01*
G01X10799Y3959D01*
G01X10851Y3925D01*
G01X10904Y3893D01*
G01X10958Y3861D01*
G01X11013Y3831D01*
G01X11069Y3802D01*
G01X11125Y3774D01*
G01X11183Y3748D01*
G01X11241Y3723D01*
G01X11354Y3680D01*
G01X11430Y3662D01*
G01X11484Y3668D01*
G01X11527Y3696D01*
G01X11536Y3706D01*
G01X11542Y3724D01*
G01X11547Y3752D01*
G01X11552Y3795D01*
G01X11555Y3854D01*
G01X11558Y3935D01*
G01X11560Y4040D01*
G01X11562Y4174D01*
G01X11564Y4289D01*
G01X11566Y4388D01*
G01X11569Y4473D01*
G01X11573Y4545D01*
G01X11579Y4605D01*
G01X11585Y4657D01*
G01X11594Y4700D01*
G01X11605Y4738D01*
G01X11617Y4771D01*
G01X11633Y4802D01*
G01X11651Y4832D01*
G01X11673Y4863D01*
G01X11722Y4931D01*
G01X11594Y4951D01*
G01X11526Y4964D01*
G01X11461Y4978D01*
G01X11398Y4994D01*
G01X11338Y5012D01*
G01X11280Y5032D01*
G01X11224Y5054D01*
G01X11171Y5078D01*
G01X11120Y5104D01*
G01X11072Y5132D01*
G01X11026Y5162D01*
G01X10983Y5194D01*
G01X10941Y5229D01*
G01X10903Y5265D01*
G01X10866Y5304D01*
G01X10832Y5344D01*
G01X10800Y5387D01*
G01X10771Y5432D01*
G01X10744Y5479D01*
G01X10719Y5528D01*
G01X10696Y5579D01*
G01X10676Y5633D01*
G01X10658Y5688D01*
G01X10642Y5746D01*
G01X10629Y5806D01*
G01X10617Y5868D01*
G01X10608Y5933D01*
G01X10602Y5999D01*
G01X10597Y6068D01*
G01X10595Y6140D01*
G01X10597Y6209D01*
G01X10601Y6275D01*
G01X10609Y6339D01*
G01X10620Y6400D01*
G01X10634Y6459D01*
G01X10652Y6516D01*
G01X10674Y6571D01*
G01X10698Y6623D01*
G01X10726Y6674D01*
G01X10758Y6723D01*
G01X10793Y6771D01*
G01X10823Y6810D01*
G01X10836Y6838D01*
G01X10835Y6869D01*
G01X10823Y6915D01*
G01X10812Y6962D01*
G01X10806Y7019D01*
G01X10803Y7082D01*
G01X10803Y7149D01*
G01X10807Y7217D01*
G01X10814Y7282D01*
G01X10824Y7342D01*
G01X10837Y7393D01*
G01X10868Y7493D01*
G01X10976Y7491D01*
G01X11023Y7489D01*
G01X11070Y7482D01*
G01X11117Y7471D01*
G01X11167Y7456D01*
G01X11220Y7434D01*
G01X11279Y7407D01*
G01X11343Y7374D01*
G01X11416Y7334D01*
G01X11564Y7248D01*
G01X11690Y7275D01*
G01X11749Y7287D01*
G01X11807Y7297D01*
G01X11865Y7306D01*
G01X11923Y7314D01*
G01X12037Y7324D01*
G01X12094Y7326D01*
G01X12152Y7328D01*
G01X12210Y7327D01*
G01X12268Y7325D01*
G01X12327Y7322D01*
G01X12386Y7317D01*
G01X12446Y7311D01*
G01X12507Y7303D01*
G01X12570Y7294D01*
G01X12633Y7283D01*
G01X12816Y7250D01*
G01X12952Y7331D01*
G01X13012Y7365D01*
G01X13077Y7397D01*
G01X13143Y7426D01*
G01X13209Y7451D01*
G01X13273Y7472D01*
G01X13332Y7488D01*
G01X13385Y7498D01*
G01X13430Y7502D01*
G01X13504Y7502D01*
G01X13534Y7397D01*
G01X13547Y7344D01*
G01X13556Y7280D01*
G01X13562Y7209D01*
G01X13565Y7136D01*
G01X13565Y7064D01*
G01X13562Y6998D01*
G01X13555Y6942D01*
G01X13544Y6899D01*
G01X13534Y6863D01*
G01X13534Y6835D01*
G01X13550Y6804D01*
G01X13585Y6757D01*
G01X13612Y6719D01*
G01X13638Y6679D01*
G01X13661Y6638D01*
G01X13683Y6595D01*
G01X13703Y6550D01*
G01X13721Y6503D01*
G01X13737Y6453D01*
G01X13751Y6402D01*
G01X13760Y6360D01*
G01X13766Y6312D01*
G01X13770Y6257D01*
G01X13773Y6198D01*
G01X13773Y6136D01*
G01X13771Y6071D01*
G01X13768Y6006D01*
G01X13763Y5942D01*
G01X13756Y5880D01*
G01X13747Y5822D01*
G01X13737Y5768D01*
G01X13726Y5721D01*
G01X13705Y5656D01*
G01X13682Y5595D01*
G01X13656Y5536D01*
G01X13628Y5480D01*
G01X13597Y5426D01*
G01X13563Y5376D01*
G01X13526Y5328D01*
G01X13486Y5284D01*
G01X13443Y5241D01*
G01X13398Y5202D01*
G01X13349Y5165D01*
G01X13297Y5131D01*
G01X13243Y5100D01*
G01X13185Y5071D01*
G01X13124Y5045D01*
G01X13060Y5021D01*
G01X12993Y5000D01*
G01X12923Y4981D01*
G01X12849Y4965D01*
G01X12772Y4951D01*
G01X12645Y4931D01*
G01X12698Y4860D01*
G01X12721Y4827D01*
G01X12743Y4787D01*
G01X12761Y4745D01*
G01X12773Y4708D01*
G01X12782Y4675D01*
G01X12790Y4645D01*
G01X12796Y4622D01*
G01X12800Y4608D01*
G01X12811Y4598D01*
G01X12836Y4586D01*
G01X12872Y4573D01*
G01X12914Y4560D01*
G01X12965Y4548D01*
G01X13018Y4541D01*
G01X13070Y4538D01*
G01X13122Y4539D01*
G01X13172Y4543D01*
G01X13219Y4552D01*
G01X13262Y4565D01*
G01X13301Y4581D01*
G01X13328Y4598D01*
G01X13359Y4621D01*
G01X13392Y4650D01*
G01X13427Y4683D01*
G01X13462Y4722D01*
G01X13499Y4764D01*
G01X13535Y4809D01*
G01X13570Y4857D01*
G01X13598Y4891D01*
G01X13632Y4927D01*
G01X13669Y4961D01*
G01X13704Y4988D01*
G01X13748Y5016D01*
G01X13789Y5033D01*
G01X13835Y5044D01*
G01X13895Y5049D01*
G01X13953Y5051D01*
G01X13988Y5049D01*
G01X14008Y5041D01*
G01X14018Y5028D01*
G01X14016Y4999D01*
G01X13993Y4963D01*
G01X13952Y4923D01*
G01X13898Y4884D01*
G01X13873Y4864D01*
G01X13844Y4836D01*
G01X13813Y4799D01*
G01X13780Y4756D01*
G01X13747Y4707D01*
G01X13715Y4655D01*
G01X13684Y4599D01*
G01X13655Y4542D01*
G01X13627Y4488D01*
G01X13597Y4440D01*
G01X13565Y4397D01*
G01X13531Y4360D01*
G01X13493Y4327D01*
G01X13453Y4300D01*
G01X13408Y4278D01*
G01X13360Y4260D01*
G01X13306Y4246D01*
G01X13249Y4236D01*
G01X13185Y4230D01*
G01X13116Y4228D01*
G01X13046Y4228D01*
G01X12979Y4229D01*
G01X12922Y4232D01*
G01X12883Y4235D01*
G01X12816Y4243D01*
G01X12812Y4010D01*
G01X12810Y3916D01*
G01X12811Y3834D01*
G01X12813Y3771D01*
G01X12816Y3738D01*
G01X12824Y3720D01*
G01X12839Y3703D01*
G01X12859Y3688D01*
G01X12884Y3675D01*
G01X12918Y3663D01*
G01X12948Y3661D01*
G01X12987Y3668D01*
G01X13043Y3686D01*
G01X13097Y3705D01*
G01X13158Y3731D01*
G01X13225Y3762D01*
G01X13296Y3796D01*
G01X13367Y3832D01*
G01X13436Y3870D01*
G01X13501Y3907D01*
G01X13558Y3942D01*
G01X13610Y3977D01*
G01X13662Y4014D01*
G01X13712Y4051D01*
G01X13762Y4090D01*
G01X13858Y4172D01*
G01X13904Y4215D01*
G01X13949Y4259D01*
G01X13993Y4304D01*
G01X14036Y4350D01*
G01X14078Y4398D01*
G01X14119Y4446D01*
G01X14158Y4496D01*
G01X14196Y4546D01*
G01X14233Y4598D01*
G01X14269Y4650D01*
G01X14304Y4704D01*
G01X14337Y4758D01*
G01X14368Y4813D01*
G01X14399Y4869D01*
G01X14428Y4926D01*
G01X14456Y4983D01*
G01X14482Y5041D01*
G01X14507Y5100D01*
G01X14530Y5160D01*
G01X14552Y5220D01*
G01X14573Y5281D01*
G01X14592Y5342D01*
G01X14609Y5404D01*
G01X14625Y5467D01*
G01X14639Y5530D01*
G01X14652Y5593D01*
G01X14659Y5638D01*
G01X14666Y5687D01*
G01X14671Y5740D01*
G01X14675Y5796D01*
G01X14679Y5854D01*
G01X14683Y5976D01*
G01X14683Y6101D01*
G01X14682Y6162D01*
G01X14679Y6222D01*
G01X14676Y6280D01*
G01X14671Y6335D01*
G01X14666Y6386D01*
G01X14660Y6434D01*
G01X14652Y6477D01*
G01X14639Y6542D01*
G01X14624Y6606D01*
G01X14608Y6670D01*
G01X14590Y6733D01*
G01X14570Y6795D01*
G01X14550Y6856D01*
G01X14527Y6917D01*
G01X14504Y6977D01*
G01X14479Y7036D01*
G01X14425Y7152D01*
G01X14365Y7264D01*
G01X14333Y7319D01*
G01X14300Y7372D01*
G01X14266Y7425D01*
G01X14230Y7477D01*
G01X14193Y7528D01*
G01X14155Y7578D01*
G01X14115Y7627D01*
G01X14075Y7675D01*
G01X14033Y7722D01*
G01X13989Y7768D01*
G01X13945Y7813D01*
G01X13899Y7857D01*
G01X13853Y7899D01*
G01X13805Y7941D01*
G01X13756Y7981D01*
G01X13706Y8020D01*
G01X13654Y8058D01*
G01X13602Y8095D01*
G01X13549Y8130D01*
G01X13494Y8164D01*
G01X13438Y8197D01*
G01X13382Y8229D01*
G01X13324Y8259D01*
G01X13273Y8285D01*
G01X13223Y8309D01*
G01X13173Y8331D01*
G01X13123Y8352D01*
G01X13073Y8372D01*
G01X13022Y8390D01*
G01X12970Y8408D01*
G01X12917Y8424D01*
G01X12863Y8440D01*
G01X12808Y8454D01*
G01X12751Y8468D01*
G01X12692Y8480D01*
G01X12631Y8493D01*
G01X12568Y8504D01*
G01X12502Y8515D01*
G01X12433Y8525D01*
G01X12397Y8529D01*
G01X12349Y8530D01*
G37*

%LPD*%
G36*
G01X15757Y14810D02*
G01X15507Y14810D01*
G01X15445Y14809D01*
G01X15390Y14804D01*
G01X15342Y14795D01*
G01X15298Y14782D01*
G01X15260Y14764D01*
G01X15227Y14740D01*
G01X15199Y14709D01*
G01X15175Y14671D01*
G01X15156Y14625D01*
G01X15139Y14571D01*
G01X15127Y14507D01*
G01X15117Y14435D01*
G01X15109Y14352D01*
G01X15104Y14257D01*
G01X15101Y14151D01*
G01X15100Y14032D01*
G01X15098Y13927D01*
G01X15095Y13832D01*
G01X15091Y13749D01*
G01X15085Y13678D01*
G01X15077Y13625D01*
G01X15069Y13588D01*
G01X15061Y13570D01*
G01X15052Y13574D01*
G01X15024Y13598D01*
G01X14976Y13613D01*
G01X14913Y13622D01*
G01X14839Y13622D01*
G01X14759Y13615D01*
G01X14677Y13602D01*
G01X14596Y13581D01*
G01X14522Y13553D01*
G01X14497Y13547D01*
G01X14476Y13552D01*
G01X14461Y13574D01*
G01X14450Y13613D01*
G01X14442Y13674D01*
G01X14437Y13759D01*
G01X14434Y13871D01*
G01X14434Y14014D01*
G01X14433Y14104D01*
G01X14431Y14186D01*
G01X14427Y14262D01*
G01X14421Y14331D01*
G01X14412Y14394D01*
G01X14401Y14451D01*
G01X14388Y14502D01*
G01X14371Y14548D01*
G01X14352Y14589D01*
G01X14328Y14624D01*
G01X14301Y14656D01*
G01X14270Y14684D01*
G01X14235Y14708D01*
G01X14196Y14728D01*
G01X14151Y14745D01*
G01X14102Y14760D01*
G01X14048Y14772D01*
G01X13988Y14782D01*
G01X13923Y14790D01*
G01X13852Y14797D01*
G01X13756Y14804D01*
G01X13668Y14808D01*
G01X13589Y14807D01*
G01X13517Y14804D01*
G01X13450Y14796D01*
G01X13389Y14783D01*
G01X13331Y14767D01*
G01X13276Y14745D01*
G01X13223Y14718D01*
G01X13170Y14686D01*
G01X13117Y14648D01*
G01X13063Y14605D01*
G01X13013Y14561D01*
G01X12974Y14522D01*
G01X12946Y14486D01*
G01X12927Y14451D01*
G01X12917Y14413D01*
G01X12914Y14371D01*
G01X12918Y14324D01*
G01X12928Y14267D01*
G01X12941Y14211D01*
G01X12956Y14167D01*
G01X12973Y14132D01*
G01X12995Y14106D01*
G01X13024Y14086D01*
G01X13060Y14072D01*
G01X13106Y14062D01*
G01X13163Y14056D01*
G01X13258Y14054D01*
G01X13343Y14071D01*
G01X13418Y14105D01*
G01X13488Y14158D01*
G01X13535Y14197D01*
G01X13579Y14224D01*
G01X13622Y14238D01*
G01X13661Y14241D01*
G01X13697Y14233D01*
G01X13728Y14213D01*
G01X13755Y14184D01*
G01X13777Y14145D01*
G01X13794Y14096D01*
G01X13804Y14038D01*
G01X13808Y13972D01*
G01X13805Y13896D01*
G01X13797Y13834D01*
G01X13784Y13780D01*
G01X13766Y13733D01*
G01X13745Y13695D01*
G01X13722Y13665D01*
G01X13696Y13645D01*
G01X13669Y13635D01*
G01X13643Y13635D01*
G01X13617Y13645D01*
G01X13593Y13668D01*
G01X13571Y13702D01*
G01X13552Y13748D01*
G01X13532Y13787D01*
G01X13499Y13819D01*
G01X13455Y13844D01*
G01X13403Y13862D01*
G01X13346Y13873D01*
G01X13285Y13877D01*
G01X13223Y13874D01*
G01X13163Y13863D01*
G01X13105Y13846D01*
G01X13054Y13822D01*
G01X13011Y13790D01*
G01X12979Y13751D01*
G01X12933Y13698D01*
G01X12872Y13661D01*
G01X12792Y13640D01*
G01X12691Y13633D01*
G01X12603Y13629D01*
G01X12528Y13613D01*
G01X12467Y13587D01*
G01X12419Y13551D01*
G01X12384Y13504D01*
G01X12362Y13447D01*
G01X12353Y13378D01*
G01X12356Y13299D01*
G01X12372Y13212D01*
G01X12406Y13162D01*
G01X12469Y13139D01*
G01X12575Y13133D01*
G01X12667Y13140D01*
G01X12742Y13162D01*
G01X12798Y13198D01*
G01X12839Y13251D01*
G01X12866Y13298D01*
G01X12889Y13341D01*
G01X12908Y13374D01*
G01X12918Y13392D01*
G01X12933Y13389D01*
G01X12964Y13363D01*
G01X13006Y13319D01*
G01X13055Y13260D01*
G01X13082Y13226D01*
G01X13108Y13198D01*
G01X13134Y13174D01*
G01X13162Y13155D01*
G01X13193Y13139D01*
G01X13229Y13128D01*
G01X13272Y13119D01*
G01X13323Y13112D01*
G01X13384Y13108D01*
G01X13456Y13105D01*
G01X13541Y13104D01*
G01X13641Y13104D01*
G01X13777Y13105D01*
G01X13888Y13108D01*
G01X13976Y13116D01*
G01X14045Y13127D01*
G01X14101Y13143D01*
G01X14147Y13166D01*
G01X14187Y13195D01*
G01X14226Y13233D01*
G01X14272Y13287D01*
G01X14310Y13338D01*
G01X14336Y13381D01*
G01X14345Y13409D01*
G01X14353Y13428D01*
G01X14372Y13443D01*
G01X14402Y13453D01*
G01X14438Y13457D01*
G01X14479Y13448D01*
G01X14504Y13419D01*
G01X14515Y13370D01*
G01X14512Y13295D01*
G01X14506Y13245D01*
G01X14507Y13205D01*
G01X14515Y13176D01*
G01X14532Y13155D01*
G01X14561Y13140D01*
G01X14604Y13129D01*
G01X14663Y13122D01*
G01X14740Y13116D01*
G01X14818Y13110D01*
G01X14879Y13110D01*
G01X14925Y13115D01*
G01X14960Y13128D01*
G01X14986Y13151D01*
G01X15007Y13184D01*
G01X15025Y13231D01*
G01X15043Y13292D01*
G01X15099Y13486D01*
G01X15105Y13295D01*
G01X15107Y13233D01*
G01X15113Y13187D01*
G01X15124Y13153D01*
G01X15145Y13130D01*
G01X15177Y13116D01*
G01X15224Y13108D01*
G01X15288Y13104D01*
G01X15373Y13104D01*
G01X15501Y13109D01*
G01X15592Y13129D01*
G01X15654Y13164D01*
G01X15696Y13218D01*
G01X15704Y13240D01*
G01X15712Y13275D01*
G01X15720Y13320D01*
G01X15727Y13377D01*
G01X15733Y13442D01*
G01X15739Y13515D01*
G01X15744Y13596D01*
G01X15749Y13683D01*
G01X15753Y13775D01*
G01X15755Y13871D01*
G01X15757Y13970D01*
G01X15757Y14810D01*
G37*

%LPC*%
G36*
G01X15639Y14692D02*
G01X15346Y14692D01*
G01X15346Y13928D01*
G01X15347Y13840D01*
G01X15350Y13755D01*
G01X15353Y13676D01*
G01X15357Y13602D01*
G01X15361Y13534D01*
G01X15367Y13474D01*
G01X15372Y13422D01*
G01X15378Y13379D01*
G01X15385Y13346D01*
G01X15392Y13324D01*
G01X15399Y13313D01*
G01X15427Y13303D01*
G01X15464Y13300D01*
G01X15506Y13305D01*
G01X15546Y13316D01*
G01X15564Y13325D01*
G01X15580Y13340D01*
G01X15594Y13360D01*
G01X15605Y13388D01*
G01X15614Y13425D01*
G01X15622Y13471D01*
G01X15628Y13528D01*
G01X15633Y13598D01*
G01X15636Y13680D01*
G01X15638Y13778D01*
G01X15639Y13891D01*
G01X15639Y14692D01*
G37*
G36*
G01X12745Y13566D02*
G01X12698Y13575D01*
G01X12648Y13568D01*
G01X12612Y13546D01*
G01X12589Y13513D01*
G01X12581Y13467D01*
G01X12590Y13380D01*
G01X12618Y13327D01*
G01X12666Y13307D01*
G01X12734Y13320D01*
G01X12775Y13346D01*
G01X12802Y13381D01*
G01X12816Y13423D01*
G01X12816Y13466D01*
G01X12804Y13507D01*
G01X12780Y13542D01*
G01X12745Y13566D01*
G37*
G36*
G01X14888Y13566D02*
G01X14808Y13575D01*
G01X14753Y13568D01*
G01X14720Y13546D01*
G01X14706Y13505D01*
G01X14709Y13442D01*
G01X14726Y13391D01*
G01X14757Y13351D01*
G01X14799Y13324D01*
G01X14844Y13309D01*
G01X14888Y13308D01*
G01X14927Y13322D01*
G01X14955Y13352D01*
G01X14967Y13398D01*
G01X14963Y13483D01*
G01X14938Y13538D01*
G01X14888Y13566D01*
G37*
G36*
G01X13718Y14712D02*
G01X13654Y14713D01*
G01X13592Y14712D01*
G01X13531Y14708D01*
G01X13472Y14701D01*
G01X13418Y14691D01*
G01X13367Y14679D01*
G01X13322Y14663D01*
G01X13282Y14645D01*
G01X13249Y14623D01*
G01X13221Y14592D01*
G01X13193Y14544D01*
G01X13170Y14486D01*
G01X13154Y14426D01*
G01X13145Y14350D01*
G01X13160Y14306D01*
G01X13205Y14285D01*
G01X13288Y14280D01*
G01X13354Y14288D01*
G01X13413Y14306D01*
G01X13458Y14334D01*
G01X13484Y14369D01*
G01X13513Y14404D01*
G01X13565Y14431D01*
G01X13633Y14448D01*
G01X13710Y14456D01*
G01X13790Y14454D01*
G01X13866Y14442D01*
G01X13932Y14419D01*
G01X13981Y14387D01*
G01X13995Y14366D01*
G01X14008Y14335D01*
G01X14020Y14296D01*
G01X14030Y14248D01*
G01X14039Y14196D01*
G01X14046Y14138D01*
G01X14050Y14078D01*
G01X14051Y14016D01*
G01X14050Y13933D01*
G01X14045Y13861D01*
G01X14036Y13798D01*
G01X14023Y13745D01*
G01X14006Y13700D01*
G01X13983Y13663D01*
G01X13954Y13634D01*
G01X13920Y13611D01*
G01X13879Y13594D01*
G01X13830Y13583D01*
G01X13774Y13577D01*
G01X13710Y13575D01*
G01X13614Y13580D01*
G01X13547Y13601D01*
G01X13504Y13638D01*
G01X13479Y13696D01*
G01X13456Y13751D01*
G01X13420Y13786D01*
G01X13368Y13800D01*
G01X13294Y13798D01*
G01X13217Y13784D01*
G01X13173Y13756D01*
G01X13156Y13708D01*
G01X13159Y13633D01*
G01X13169Y13574D01*
G01X13184Y13521D01*
G01X13204Y13476D01*
G01X13230Y13437D01*
G01X13262Y13404D01*
G01X13301Y13377D01*
G01X13348Y13355D01*
G01X13404Y13338D01*
G01X13469Y13325D01*
G01X13543Y13317D01*
G01X13629Y13312D01*
G01X13725Y13311D01*
G01X13802Y13312D01*
G01X13873Y13315D01*
G01X13938Y13319D01*
G01X13997Y13325D01*
G01X14050Y13335D01*
G01X14097Y13347D01*
G01X14139Y13362D01*
G01X14177Y13380D01*
G01X14209Y13403D01*
G01X14238Y13429D01*
G01X14262Y13460D01*
G01X14282Y13495D01*
G01X14300Y13536D01*
G01X14313Y13581D01*
G01X14325Y13633D01*
G01X14333Y13690D01*
G01X14339Y13754D01*
G01X14343Y13823D01*
G01X14345Y13900D01*
G01X14345Y13984D01*
G01X14344Y14086D01*
G01X14340Y14181D01*
G01X14334Y14267D01*
G01X14325Y14343D01*
G01X14313Y14410D01*
G01X14300Y14466D01*
G01X14284Y14510D01*
G01X14267Y14542D01*
G01X14243Y14568D01*
G01X14212Y14592D01*
G01X14174Y14614D01*
G01X14130Y14634D01*
G01X14080Y14652D01*
G01X14026Y14667D01*
G01X13968Y14681D01*
G01X13909Y14692D01*
G01X13846Y14701D01*
G01X13782Y14708D01*
G01X13718Y14712D01*
G37*

%LPD*%
G36*
G01X15086Y12490D02*
G01X15054Y12506D01*
G01X15008Y12505D01*
G01X14957Y12487D01*
G01X14919Y12457D01*
G01X14895Y12421D01*
G01X14884Y12381D01*
G01X14888Y12344D01*
G01X14906Y12311D01*
G01X14939Y12289D01*
G01X14988Y12280D01*
G01X15043Y12288D01*
G01X15080Y12310D01*
G01X15103Y12348D01*
G01X15110Y12402D01*
G01X15104Y12456D01*
G01X15086Y12490D01*
G37*

%LPD*%
G36*
G01X17187Y12479D02*
G01X17122Y12508D01*
G01X17047Y12497D01*
G01X16981Y12453D01*
G01X16945Y12383D01*
G01X16943Y12335D01*
G01X16963Y12303D01*
G01X17006Y12286D01*
G01X17076Y12280D01*
G01X17126Y12285D01*
G01X17167Y12299D01*
G01X17199Y12319D01*
G01X17220Y12345D01*
G01X17230Y12375D01*
G01X17228Y12409D01*
G01X17214Y12443D01*
G01X17187Y12479D01*
G37*

%LPD*%
G36*
G01X16443Y12506D02*
G01X16405Y12517D01*
G01X16368Y12512D01*
G01X16333Y12494D01*
G01X16302Y12463D01*
G01X16278Y12421D01*
G01X16263Y12369D01*
G01X16257Y12309D01*
G01X16263Y12223D01*
G01X16284Y12166D01*
G01X16325Y12132D01*
G01X16390Y12115D01*
G01X16457Y12112D01*
G01X16497Y12131D01*
G01X16517Y12180D01*
G01X16522Y12267D01*
G01X16519Y12336D01*
G01X16510Y12399D01*
G01X16497Y12449D01*
G01X16481Y12479D01*
G01X16443Y12506D01*
G37*

%LPD*%
G36*
G01X15826Y12612D02*
G01X15817Y12631D01*
G01X15776Y12623D01*
G01X15739Y12605D01*
G01X15705Y12578D01*
G01X15674Y12544D01*
G01X15646Y12503D01*
G01X15623Y12459D01*
G01X15605Y12411D01*
G01X15591Y12363D01*
G01X15582Y12314D01*
G01X15578Y12267D01*
G01X15581Y12224D01*
G01X15590Y12184D01*
G01X15604Y12151D01*
G01X15627Y12126D01*
G01X15656Y12110D01*
G01X15693Y12104D01*
G01X15749Y12115D01*
G01X15786Y12156D01*
G01X15810Y12237D01*
G01X15825Y12369D01*
G01X15831Y12471D01*
G01X15831Y12555D01*
G01X15826Y12612D01*
G37*

%LPD*%
G36*
G01X18220Y15045D02*
G01X18198Y15054D01*
G01X18167Y15052D01*
G01X18130Y15040D01*
G01X18090Y15021D01*
G01X18051Y14994D01*
G01X18018Y14963D01*
G01X17992Y14928D01*
G01X17971Y14894D01*
G01X17945Y14867D01*
G01X17911Y14846D01*
G01X17866Y14831D01*
G01X17807Y14820D01*
G01X17730Y14814D01*
G01X17633Y14811D01*
G01X17512Y14810D01*
G01X17422Y14809D01*
G01X17338Y14807D01*
G01X17257Y14803D01*
G01X17181Y14798D01*
G01X17110Y14790D01*
G01X17043Y14782D01*
G01X16980Y14771D01*
G01X16921Y14757D01*
G01X16867Y14743D01*
G01X16816Y14725D01*
G01X16770Y14706D01*
G01X16726Y14683D01*
G01X16686Y14659D01*
G01X16650Y14632D01*
G01X16617Y14602D01*
G01X16587Y14569D01*
G01X16560Y14534D01*
G01X16536Y14495D01*
G01X16516Y14454D01*
G01X16497Y14409D01*
G01X16482Y14362D01*
G01X16469Y14310D01*
G01X16459Y14256D01*
G01X16450Y14198D01*
G01X16444Y14136D01*
G01X16440Y14071D01*
G01X16438Y14002D01*
G01X16438Y13928D01*
G01X16439Y13841D01*
G01X16438Y13763D01*
G01X16437Y13695D01*
G01X16434Y13639D01*
G01X16431Y13596D01*
G01X16428Y13568D01*
G01X16423Y13555D01*
G01X16419Y13561D01*
G01X16395Y13589D01*
G01X16349Y13610D01*
G01X16287Y13624D01*
G01X16214Y13631D01*
G01X16137Y13630D01*
G01X16061Y13621D01*
G01X15993Y13604D01*
G01X15937Y13578D01*
G01X15905Y13542D01*
G01X15878Y13483D01*
G01X15860Y13410D01*
G01X15853Y13329D01*
G01X15854Y13267D01*
G01X15858Y13219D01*
G01X15868Y13184D01*
G01X15887Y13159D01*
G01X15917Y13141D01*
G01X15960Y13130D01*
G01X16019Y13122D01*
G01X16096Y13116D01*
G01X16174Y13110D01*
G01X16234Y13110D01*
G01X16279Y13115D01*
G01X16313Y13128D01*
G01X16338Y13151D01*
G01X16358Y13184D01*
G01X16375Y13231D01*
G01X16393Y13292D01*
G01X16447Y13486D01*
G01X16524Y13323D01*
G01X16564Y13257D01*
G01X16618Y13198D01*
G01X16679Y13152D01*
G01X16738Y13126D01*
G01X16791Y13110D01*
G01X16830Y13092D01*
G01X16855Y13071D01*
G01X16868Y13047D01*
G01X16867Y13020D01*
G01X16853Y12987D01*
G01X16826Y12949D01*
G01X16786Y12907D01*
G01X16752Y12865D01*
G01X16724Y12817D01*
G01X16705Y12769D01*
G01X16698Y12726D01*
G01X16690Y12690D01*
G01X16669Y12660D01*
G01X16638Y12641D01*
G01X16599Y12633D01*
G01X16548Y12631D01*
G01X16531Y12622D01*
G01X16550Y12599D01*
G01X16603Y12558D01*
G01X16650Y12510D01*
G01X16679Y12446D01*
G01X16691Y12361D01*
G01X16688Y12249D01*
G01X16669Y12016D01*
G01X16140Y12016D01*
G01X16120Y12249D01*
G01X16117Y12357D01*
G01X16129Y12442D01*
G01X16153Y12505D01*
G01X16194Y12549D01*
G01X16235Y12583D01*
G01X16239Y12603D01*
G01X16203Y12611D01*
G01X16124Y12610D01*
G01X16074Y12607D01*
G01X16035Y12600D01*
G01X16006Y12587D01*
G01X15986Y12563D01*
G01X15974Y12526D01*
G01X15966Y12474D01*
G01X15964Y12403D01*
G01X15963Y12310D01*
G01X15963Y12016D01*
G01X15715Y11998D01*
G01X15640Y11993D01*
G01X15581Y11992D01*
G01X15535Y11997D01*
G01X15501Y12007D01*
G01X15476Y12024D01*
G01X15456Y12050D01*
G01X15442Y12085D01*
G01X15429Y12131D01*
G01X15416Y12203D01*
G01X15409Y12286D01*
G01X15409Y12370D01*
G01X15421Y12522D01*
G01X15413Y12574D01*
G01X15388Y12605D01*
G01X15348Y12617D01*
G01X15323Y12616D01*
G01X15304Y12608D01*
G01X15289Y12589D01*
G01X15279Y12561D01*
G01X15273Y12520D01*
G01X15271Y12464D01*
G01X15273Y12393D01*
G01X15277Y12305D01*
G01X15282Y12217D01*
G01X15284Y12145D01*
G01X15282Y12090D01*
G01X15276Y12048D01*
G01X15265Y12018D01*
G01X15250Y11999D01*
G01X15230Y11989D01*
G01X15204Y11986D01*
G01X15167Y11993D01*
G01X15137Y12012D01*
G01X15118Y12041D01*
G01X15110Y12075D01*
G01X15099Y12113D01*
G01X15066Y12141D01*
G01X15011Y12157D01*
G01X14934Y12163D01*
G01X14840Y12169D01*
G01X14787Y12192D01*
G01X14763Y12244D01*
G01X14757Y12336D01*
G01X14765Y12411D01*
G01X14785Y12478D01*
G01X14818Y12532D01*
G01X14860Y12568D01*
G01X14905Y12597D01*
G01X14910Y12614D01*
G01X14871Y12621D01*
G01X14786Y12621D01*
G01X14728Y12619D01*
G01X14685Y12614D01*
G01X14654Y12601D01*
G01X14635Y12578D01*
G01X14624Y12539D01*
G01X14621Y12484D01*
G01X14624Y12405D01*
G01X14630Y12302D01*
G01X14650Y11986D01*
G01X14406Y11986D01*
G01X14308Y11991D01*
G01X14239Y12003D01*
G01X14201Y12021D01*
G01X14199Y12045D01*
G01X14221Y12068D01*
G01X14258Y12087D01*
G01X14302Y12100D01*
G01X14349Y12104D01*
G01X14393Y12109D01*
G01X14430Y12121D01*
G01X14454Y12140D01*
G01X14463Y12163D01*
G01X14454Y12186D01*
G01X14430Y12204D01*
G01X14393Y12217D01*
G01X14349Y12221D01*
G01X14302Y12227D01*
G01X14258Y12239D01*
G01X14221Y12258D01*
G01X14199Y12280D01*
G01X14196Y12304D01*
G01X14216Y12323D01*
G01X14256Y12335D01*
G01X14312Y12339D01*
G01X14376Y12345D01*
G01X14423Y12363D01*
G01X14453Y12391D01*
G01X14463Y12428D01*
G01X14453Y12465D01*
G01X14423Y12493D01*
G01X14376Y12510D01*
G01X14312Y12516D01*
G01X14256Y12520D01*
G01X14216Y12533D01*
G01X14196Y12551D01*
G01X14199Y12575D01*
G01X14212Y12619D01*
G01X14182Y12629D01*
G01X14119Y12605D01*
G01X14033Y12549D01*
G01X13991Y12512D01*
G01X13971Y12479D01*
G01X13970Y12451D01*
G01X13990Y12429D01*
G01X14013Y12397D01*
G01X14027Y12338D01*
G01X14032Y12261D01*
G01X14027Y12173D01*
G01X14017Y12084D01*
G01X14008Y11999D01*
G01X14000Y11929D01*
G01X13996Y11884D01*
G01X13989Y11865D01*
G01X13969Y11850D01*
G01X13935Y11837D01*
G01X13887Y11827D01*
G01X13823Y11819D01*
G01X13744Y11814D01*
G01X13649Y11811D01*
G01X13537Y11809D01*
G01X13400Y11808D01*
G01X13290Y11805D01*
G01X13204Y11798D01*
G01X13137Y11786D01*
G01X13084Y11768D01*
G01X13040Y11743D01*
G01X13001Y11711D01*
G01X12963Y11670D01*
G01X12895Y11592D01*
G01X12852Y11564D01*
G01X12819Y11583D01*
G01X12780Y11649D01*
G01X12760Y11680D01*
G01X12736Y11706D01*
G01X12708Y11727D01*
G01X12674Y11743D01*
G01X12632Y11755D01*
G01X12583Y11762D01*
G01X12525Y11767D01*
G01X12456Y11768D01*
G01X12386Y11768D01*
G01X12322Y11767D01*
G01X12265Y11765D01*
G01X12213Y11762D01*
G01X12167Y11756D01*
G01X12125Y11748D01*
G01X12088Y11737D01*
G01X12055Y11722D01*
G01X12024Y11703D01*
G01X11996Y11679D01*
G01X11971Y11650D01*
G01X11947Y11615D01*
G01X11925Y11575D01*
G01X11902Y11528D01*
G01X11881Y11473D01*
G01X11858Y11411D01*
G01X11835Y11340D01*
G01X11811Y11261D01*
G01X11784Y11173D01*
G01X11755Y11074D01*
G01X11749Y11056D01*
G01X11739Y11024D01*
G01X11727Y10981D01*
G01X11711Y10930D01*
G01X11693Y10870D01*
G01X11673Y10805D01*
G01X11652Y10735D01*
G01X11630Y10663D01*
G01X11594Y10543D01*
G01X11566Y10441D01*
G01X11544Y10357D01*
G01X11531Y10287D01*
G01X11526Y10232D01*
G01X11530Y10188D01*
G01X11542Y10156D01*
G01X11564Y10134D01*
G01X11595Y10118D01*
G01X11635Y10109D01*
G01X11687Y10105D01*
G01X11748Y10104D01*
G01X11854Y10111D01*
G01X11945Y10133D01*
G01X12020Y10170D01*
G01X12081Y10221D01*
G01X12119Y10258D01*
G01X12162Y10288D01*
G01X12208Y10310D01*
G01X12256Y10327D01*
G01X12304Y10336D01*
G01X12351Y10339D01*
G01X12397Y10336D01*
G01X12439Y10326D01*
G01X12478Y10309D01*
G01X12510Y10285D01*
G01X12535Y10255D01*
G01X12552Y10218D01*
G01X12581Y10158D01*
G01X12628Y10124D01*
G01X12707Y10111D01*
G01X12830Y10116D01*
G01X12892Y10121D01*
G01X12946Y10130D01*
G01X12994Y10140D01*
G01X13035Y10154D01*
G01X13069Y10172D01*
G01X13097Y10194D01*
G01X13119Y10221D01*
G01X13134Y10253D01*
G01X13144Y10291D01*
G01X13148Y10335D01*
G01X13146Y10386D01*
G01X13139Y10444D01*
G01X13127Y10510D01*
G01X13110Y10584D01*
G01X13088Y10667D01*
G01X13062Y10759D01*
G01X13036Y10847D01*
G01X13012Y10930D01*
G01X12990Y11007D01*
G01X12971Y11075D01*
G01X12956Y11133D01*
G01X12943Y11179D01*
G01X12936Y11211D01*
G01X12934Y11226D01*
G01X12947Y11237D01*
G01X12986Y11243D01*
G01X13043Y11242D01*
G01X13113Y11234D01*
G01X13291Y11208D01*
G01X13281Y10721D01*
G01X13280Y10622D01*
G01X13281Y10527D01*
G01X13283Y10438D01*
G01X13286Y10358D01*
G01X13291Y10289D01*
G01X13297Y10233D01*
G01X13304Y10192D01*
G01X13312Y10169D01*
G01X13345Y10141D01*
G01X13399Y10121D01*
G01X13468Y10109D01*
G01X13545Y10106D01*
G01X13624Y10111D01*
G01X13698Y10124D01*
G01X13760Y10145D01*
G01X13804Y10175D01*
G01X13842Y10206D01*
G01X13875Y10216D01*
G01X13908Y10206D01*
G01X13946Y10175D01*
G01X13971Y10159D01*
G01X14012Y10145D01*
G01X14068Y10133D01*
G01X14139Y10122D01*
G01X14224Y10115D01*
G01X14322Y10109D01*
G01X14431Y10105D01*
G01X14553Y10104D01*
G01X14662Y10103D01*
G01X14765Y10101D01*
G01X14860Y10098D01*
G01X14943Y10093D01*
G01X15014Y10088D01*
G01X15070Y10082D01*
G01X15108Y10075D01*
G01X15127Y10068D01*
G01X15133Y10043D01*
G01X15125Y10002D01*
G01X15104Y9949D01*
G01X15071Y9892D01*
G01X15061Y9876D01*
G01X15050Y9860D01*
G01X15040Y9845D01*
G01X15022Y9817D01*
G01X15014Y9803D01*
G01X15007Y9790D01*
G01X15000Y9778D01*
G01X14995Y9766D01*
G01X14990Y9755D01*
G01X14987Y9743D01*
G01X14984Y9733D01*
G01X14984Y9713D01*
G01X14987Y9704D01*
G01X14991Y9695D01*
G01X14996Y9687D01*
G01X15003Y9679D01*
G01X15012Y9671D01*
G01X15024Y9664D01*
G01X15037Y9657D01*
G01X15052Y9650D01*
G01X15069Y9644D01*
G01X15090Y9639D01*
G01X15112Y9633D01*
G01X15137Y9628D01*
G01X15164Y9624D01*
G01X15194Y9619D01*
G01X15227Y9615D01*
G01X15263Y9611D01*
G01X15302Y9608D01*
G01X15344Y9604D01*
G01X15389Y9601D01*
G01X15438Y9599D01*
G01X15490Y9596D01*
G01X15545Y9594D01*
G01X15604Y9592D01*
G01X15666Y9590D01*
G01X15733Y9589D01*
G01X15802Y9587D01*
G01X15877Y9586D01*
G01X15954Y9585D01*
G01X16037Y9584D01*
G01X16123Y9583D01*
G01X16308Y9583D01*
G01X16407Y9582D01*
G01X16620Y9582D01*
G01X16733Y9583D01*
G01X16974Y9583D01*
G01X17102Y9584D01*
G01X17236Y9584D01*
G01X17374Y9585D01*
G01X17518Y9586D01*
G01X17667Y9586D01*
G01X17822Y9587D01*
G01X17982Y9588D01*
G01X18148Y9589D01*
G01X18286Y9590D01*
G01X18421Y9590D01*
G01X18553Y9591D01*
G01X18681Y9592D01*
G01X18805Y9593D01*
G01X18926Y9594D01*
G01X19043Y9595D01*
G01X19158Y9596D01*
G01X19268Y9596D01*
G01X19376Y9597D01*
G01X19480Y9598D01*
G01X19581Y9600D01*
G01X19678Y9601D01*
G01X19773Y9602D01*
G01X19864Y9603D01*
G01X19952Y9604D01*
G01X20037Y9605D01*
G01X20118Y9607D01*
G01X20197Y9608D01*
G01X20273Y9610D01*
G01X20345Y9611D01*
G01X20414Y9612D01*
G01X20481Y9614D01*
G01X20545Y9616D01*
G01X20606Y9617D01*
G01X20663Y9619D01*
G01X20719Y9621D01*
G01X20771Y9623D01*
G01X20820Y9625D01*
G01X20867Y9627D01*
G01X20911Y9629D01*
G01X20952Y9631D01*
G01X20991Y9633D01*
G01X21027Y9635D01*
G01X21060Y9637D01*
G01X21091Y9639D01*
G01X21119Y9641D01*
G01X21145Y9644D01*
G01X21168Y9646D01*
G01X21189Y9648D01*
G01X21207Y9651D01*
G01X21223Y9654D01*
G01X21236Y9657D01*
G01X21248Y9659D01*
G01X21257Y9662D01*
G01X21263Y9665D01*
G01X21267Y9668D01*
G01X21269Y9671D01*
G01X21271Y9704D01*
G01X21257Y9746D01*
G01X21232Y9790D01*
G01X21197Y9832D01*
G01X21191Y9838D01*
G01X21185Y9843D01*
G01X21178Y9848D01*
G01X21169Y9852D01*
G01X21160Y9857D01*
G01X21150Y9861D01*
G01X21126Y9869D01*
G01X21111Y9873D01*
G01X21095Y9877D01*
G01X21077Y9880D01*
G01X21058Y9883D01*
G01X21037Y9886D01*
G01X21013Y9889D01*
G01X20988Y9892D01*
G01X20960Y9895D01*
G01X20930Y9897D01*
G01X20897Y9900D01*
G01X20862Y9902D01*
G01X20823Y9904D01*
G01X20783Y9907D01*
G01X20739Y9909D01*
G01X20692Y9910D01*
G01X20643Y9912D01*
G01X20590Y9914D01*
G01X20533Y9915D01*
G01X20473Y9916D01*
G01X20410Y9918D01*
G01X20343Y9919D01*
G01X20272Y9920D01*
G01X20197Y9921D01*
G01X20118Y9922D01*
G01X20036Y9923D01*
G01X19949Y9923D01*
G01X19857Y9924D01*
G01X19761Y9925D01*
G01X19661Y9925D01*
G01X19555Y9926D01*
G01X19331Y9926D01*
G01X19211Y9927D01*
G01X18223Y9927D01*
G01X18097Y9928D01*
G01X17617Y9928D01*
G01X17504Y9929D01*
G01X17286Y9929D01*
G01X17182Y9930D01*
G01X17080Y9931D01*
G01X16981Y9931D01*
G01X16885Y9932D01*
G01X16791Y9933D01*
G01X16701Y9934D01*
G01X16613Y9934D01*
G01X16528Y9935D01*
G01X16447Y9936D01*
G01X16367Y9938D01*
G01X16291Y9939D01*
G01X16217Y9940D01*
G01X16147Y9941D01*
G01X16080Y9943D01*
G01X16015Y9944D01*
G01X15953Y9946D01*
G01X15894Y9947D01*
G01X15839Y9949D01*
G01X15786Y9950D01*
G01X15736Y9952D01*
G01X15689Y9953D01*
G01X15645Y9955D01*
G01X15604Y9957D01*
G01X15566Y9959D01*
G01X15531Y9961D01*
G01X15499Y9963D01*
G01X15470Y9965D01*
G01X15444Y9967D01*
G01X15421Y9970D01*
G01X15401Y9972D01*
G01X15384Y9974D01*
G01X15370Y9977D01*
G01X15359Y9979D01*
G01X15352Y9981D01*
G01X15347Y9984D01*
G01X15346Y9986D01*
G01X15355Y9999D01*
G01X15384Y10010D01*
G01X15429Y10020D01*
G01X15490Y10029D01*
G01X15567Y10036D01*
G01X15656Y10041D01*
G01X15757Y10044D01*
G01X15868Y10045D01*
G01X15978Y10046D01*
G01X16073Y10047D01*
G01X16152Y10049D01*
G01X16219Y10053D01*
G01X16275Y10058D01*
G01X16322Y10066D01*
G01X16359Y10077D01*
G01X16390Y10090D01*
G01X16416Y10106D01*
G01X16438Y10126D01*
G01X16459Y10150D01*
G01X16479Y10178D01*
G01X16568Y10310D01*
G01X16711Y10178D01*
G01X16853Y10045D01*
G01X19441Y10045D01*
G01X19561Y10046D01*
G01X19790Y10046D01*
G01X19899Y10047D01*
G01X20005Y10047D01*
G01X20107Y10048D01*
G01X20205Y10049D01*
G01X20300Y10050D01*
G01X20391Y10051D01*
G01X20479Y10052D01*
G01X20563Y10053D01*
G01X20644Y10054D01*
G01X20720Y10055D01*
G01X20794Y10057D01*
G01X20864Y10058D01*
G01X20930Y10060D01*
G01X20992Y10062D01*
G01X21051Y10063D01*
G01X21106Y10066D01*
G01X21157Y10068D01*
G01X21205Y10070D01*
G01X21250Y10072D01*
G01X21290Y10074D01*
G01X21327Y10076D01*
G01X21360Y10079D01*
G01X21389Y10081D01*
G01X21415Y10083D01*
G01X21438Y10086D01*
G01X21456Y10089D01*
G01X21471Y10092D01*
G01X21482Y10095D01*
G01X21489Y10098D01*
G01X21492Y10101D01*
G01X21492Y10104D01*
G01X21488Y10108D01*
G01X21478Y10112D01*
G01X21464Y10115D01*
G01X21445Y10119D01*
G01X21422Y10122D01*
G01X21394Y10125D01*
G01X21361Y10129D01*
G01X21325Y10132D01*
G01X21284Y10135D01*
G01X21238Y10138D01*
G01X21189Y10140D01*
G01X21135Y10143D01*
G01X21077Y10145D01*
G01X21015Y10147D01*
G01X20949Y10149D01*
G01X20879Y10151D01*
G01X20806Y10153D01*
G01X20728Y10155D01*
G01X20647Y10156D01*
G01X20561Y10157D01*
G01X20472Y10159D01*
G01X20379Y10160D01*
G01X20283Y10161D01*
G01X20184Y10162D01*
G01X20080Y10162D01*
G01X19974Y10163D01*
G01X19518Y10163D01*
G01X19409Y10164D01*
G01X19303Y10164D01*
G01X19202Y10165D01*
G01X19105Y10166D01*
G01X19012Y10167D01*
G01X18924Y10168D01*
G01X18840Y10169D01*
G01X18760Y10171D01*
G01X18685Y10172D01*
G01X18615Y10174D01*
G01X18548Y10176D01*
G01X18486Y10178D01*
G01X18428Y10180D01*
G01X18374Y10182D01*
G01X18326Y10185D01*
G01X18281Y10187D01*
G01X18241Y10190D01*
G01X18205Y10193D01*
G01X18174Y10196D01*
G01X18147Y10200D01*
G01X18124Y10203D01*
G01X18107Y10206D01*
G01X18093Y10210D01*
G01X18085Y10214D01*
G01X18080Y10217D01*
G01X18081Y10221D01*
G01X18085Y10226D01*
G01X18095Y10230D01*
G01X18109Y10233D01*
G01X18127Y10237D01*
G01X18149Y10240D01*
G01X18177Y10243D01*
G01X18208Y10246D01*
G01X18243Y10249D01*
G01X18283Y10252D01*
G01X18327Y10255D01*
G01X18375Y10258D01*
G01X18427Y10261D01*
G01X18483Y10263D01*
G01X18543Y10265D01*
G01X18607Y10267D01*
G01X18675Y10269D01*
G01X18746Y10271D01*
G01X18821Y10272D01*
G01X18900Y10274D01*
G01X18982Y10275D01*
G01X19068Y10276D01*
G01X19157Y10277D01*
G01X19250Y10278D01*
G01X19346Y10279D01*
G01X19446Y10280D01*
G01X19878Y10280D01*
G01X19988Y10281D01*
G01X20094Y10281D01*
G01X20196Y10282D01*
G01X20293Y10282D01*
G01X20387Y10283D01*
G01X20476Y10284D01*
G01X20561Y10285D01*
G01X20642Y10287D01*
G01X20719Y10288D01*
G01X20792Y10290D01*
G01X20861Y10292D01*
G01X20925Y10294D01*
G01X20984Y10296D01*
G01X21040Y10298D01*
G01X21092Y10300D01*
G01X21139Y10302D01*
G01X21182Y10305D01*
G01X21221Y10308D01*
G01X21255Y10311D01*
G01X21286Y10314D01*
G01X21311Y10317D01*
G01X21333Y10321D01*
G01X21350Y10324D01*
G01X21363Y10328D01*
G01X21371Y10331D01*
G01X21375Y10335D01*
G01X21375Y10339D01*
G01X21370Y10343D01*
G01X21361Y10347D01*
G01X21347Y10351D01*
G01X21329Y10354D01*
G01X21307Y10358D01*
G01X21281Y10361D01*
G01X21250Y10364D01*
G01X21215Y10367D01*
G01X21175Y10370D01*
G01X21133Y10373D01*
G01X21086Y10375D01*
G01X21034Y10378D01*
G01X20979Y10380D01*
G01X20921Y10383D01*
G01X20858Y10385D01*
G01X20792Y10387D01*
G01X20722Y10389D01*
G01X20648Y10390D01*
G01X20571Y10392D01*
G01X20490Y10393D01*
G01X20406Y10394D01*
G01X20318Y10395D01*
G01X20228Y10396D01*
G01X20134Y10397D01*
G01X20036Y10397D01*
G01X19935Y10398D01*
G01X19614Y10398D01*
G01X19506Y10399D01*
G01X19400Y10399D01*
G01X19296Y10400D01*
G01X19195Y10401D01*
G01X19098Y10402D01*
G01X19003Y10403D01*
G01X18911Y10404D01*
G01X18823Y10406D01*
G01X18740Y10407D01*
G01X18660Y10409D01*
G01X18584Y10411D01*
G01X18514Y10413D01*
G01X18448Y10416D01*
G01X18387Y10418D01*
G01X18331Y10420D01*
G01X18281Y10423D01*
G01X18238Y10425D01*
G01X18200Y10428D01*
G01X18168Y10431D01*
G01X18143Y10433D01*
G01X18125Y10436D01*
G01X18114Y10439D01*
G01X18110Y10442D01*
G01X18114Y10446D01*
G01X18125Y10448D01*
G01X18143Y10451D01*
G01X18167Y10454D01*
G01X18199Y10456D01*
G01X18236Y10458D01*
G01X18279Y10460D01*
G01X18329Y10462D01*
G01X18383Y10464D01*
G01X18443Y10466D01*
G01X18508Y10467D01*
G01X18578Y10468D01*
G01X18653Y10470D01*
G01X18731Y10471D01*
G01X18814Y10471D01*
G01X18901Y10472D01*
G01X18992Y10472D01*
G01X19085Y10473D01*
G01X19182Y10473D01*
G01X19282Y10472D01*
G01X19488Y10472D01*
G01X19595Y10471D01*
G01X19704Y10470D01*
G01X19837Y10468D01*
G01X19963Y10467D01*
G01X20081Y10466D01*
G01X20194Y10466D01*
G01X20299Y10465D01*
G01X20576Y10465D01*
G01X20656Y10466D01*
G01X20731Y10466D01*
G01X20800Y10467D01*
G01X20863Y10468D01*
G01X20921Y10470D01*
G01X20974Y10471D01*
G01X21022Y10473D01*
G01X21065Y10476D01*
G01X21104Y10479D01*
G01X21138Y10482D01*
G01X21168Y10485D01*
G01X21193Y10488D01*
G01X21215Y10492D01*
G01X21233Y10496D01*
G01X21248Y10501D01*
G01X21259Y10506D01*
G01X21267Y10511D01*
G01X21271Y10517D01*
G01X21274Y10522D01*
G01X21273Y10529D01*
G01X21269Y10535D01*
G01X21263Y10541D01*
G01X21254Y10546D01*
G01X21241Y10552D01*
G01X21225Y10557D01*
G01X21206Y10562D01*
G01X21184Y10566D01*
G01X21158Y10571D01*
G01X21128Y10575D01*
G01X21094Y10580D01*
G01X21056Y10584D01*
G01X21013Y10587D01*
G01X20967Y10591D01*
G01X20916Y10594D01*
G01X20861Y10598D01*
G01X20801Y10601D01*
G01X20736Y10605D01*
G01X20665Y10608D01*
G01X20591Y10611D01*
G01X20511Y10614D01*
G01X20425Y10617D01*
G01X20334Y10619D01*
G01X20237Y10622D01*
G01X20134Y10625D01*
G01X20026Y10627D01*
G01X19912Y10630D01*
G01X19791Y10632D01*
G01X19664Y10635D01*
G01X18081Y10666D01*
G01X19600Y10679D01*
G01X19744Y10680D01*
G01X19879Y10682D01*
G01X20006Y10683D01*
G01X20124Y10685D01*
G01X20234Y10687D01*
G01X20336Y10689D01*
G01X20431Y10691D01*
G01X20519Y10693D01*
G01X20599Y10696D01*
G01X20673Y10698D01*
G01X20739Y10702D01*
G01X20800Y10705D01*
G01X20853Y10708D01*
G01X20901Y10712D01*
G01X20943Y10716D01*
G01X20979Y10720D01*
G01X21011Y10725D01*
G01X21036Y10729D01*
G01X21058Y10735D01*
G01X21073Y10740D01*
G01X21085Y10746D01*
G01X21093Y10752D01*
G01X21096Y10759D01*
G01X21096Y10766D01*
G01X21091Y10773D01*
G01X21083Y10779D01*
G01X21071Y10785D01*
G01X21055Y10791D01*
G01X21033Y10797D01*
G01X21008Y10802D01*
G01X20978Y10807D01*
G01X20942Y10812D01*
G01X20902Y10817D01*
G01X20857Y10821D01*
G01X20806Y10826D01*
G01X20749Y10830D01*
G01X20687Y10834D01*
G01X20619Y10838D01*
G01X20545Y10842D01*
G01X20464Y10845D01*
G01X20377Y10848D01*
G01X20284Y10852D01*
G01X20183Y10855D01*
G01X20077Y10859D01*
G01X19962Y10862D01*
G01X19841Y10865D01*
G01X19712Y10867D01*
G01X19576Y10870D01*
G01X18081Y10901D01*
G01X19542Y10914D01*
G01X19679Y10916D01*
G01X19809Y10917D01*
G01X19931Y10919D01*
G01X20044Y10920D01*
G01X20150Y10922D01*
G01X20248Y10924D01*
G01X20340Y10927D01*
G01X20424Y10929D01*
G01X20501Y10931D01*
G01X20571Y10934D01*
G01X20635Y10937D01*
G01X20693Y10940D01*
G01X20745Y10943D01*
G01X20791Y10947D01*
G01X20832Y10951D01*
G01X20867Y10956D01*
G01X20897Y10960D01*
G01X20921Y10965D01*
G01X20941Y10970D01*
G01X20957Y10975D01*
G01X20968Y10981D01*
G01X20975Y10988D01*
G01X20978Y10994D01*
G01X20978Y11001D01*
G01X20974Y11008D01*
G01X20966Y11014D01*
G01X20954Y11021D01*
G01X20938Y11026D01*
G01X20917Y11032D01*
G01X20893Y11037D01*
G01X20864Y11042D01*
G01X20830Y11047D01*
G01X20791Y11052D01*
G01X20747Y11057D01*
G01X20698Y11061D01*
G01X20644Y11065D01*
G01X20584Y11069D01*
G01X20518Y11073D01*
G01X20447Y11077D01*
G01X20369Y11081D01*
G01X20285Y11084D01*
G01X20196Y11087D01*
G01X20100Y11091D01*
G01X19997Y11094D01*
G01X19888Y11097D01*
G01X19771Y11100D01*
G01X19647Y11103D01*
G01X19517Y11105D01*
G01X18081Y11136D01*
G01X19483Y11150D01*
G01X19578Y11151D01*
G01X19672Y11152D01*
G01X19764Y11153D01*
G01X19854Y11155D01*
G01X19941Y11157D01*
G01X20025Y11159D01*
G01X20107Y11161D01*
G01X20186Y11163D01*
G01X20262Y11165D01*
G01X20334Y11168D01*
G01X20402Y11170D01*
G01X20467Y11173D01*
G01X20528Y11176D01*
G01X20584Y11179D01*
G01X20635Y11182D01*
G01X20683Y11185D01*
G01X20725Y11188D01*
G01X20762Y11191D01*
G01X20794Y11194D01*
G01X20820Y11197D01*
G01X20855Y11204D01*
G01X20863Y11208D01*
G01X20865Y11211D01*
G01X20861Y11221D01*
G01X20852Y11236D01*
G01X20842Y11257D01*
G01X20828Y11282D01*
G01X20812Y11312D01*
G01X20793Y11346D01*
G01X20772Y11385D01*
G01X20748Y11427D01*
G01X20722Y11473D01*
G01X20694Y11522D01*
G01X20664Y11575D01*
G01X20632Y11631D01*
G01X20599Y11690D01*
G01X20564Y11751D01*
G01X20528Y11815D01*
G01X20490Y11881D01*
G01X20451Y11949D01*
G01X20410Y12019D01*
G01X20369Y12090D01*
G01X20327Y12164D01*
G01X20284Y12238D01*
G01X20241Y12313D01*
G01X20197Y12389D01*
G01X20152Y12465D01*
G01X20108Y12542D01*
G01X20063Y12619D01*
G01X19974Y12772D01*
G01X19885Y12924D01*
G01X19842Y12998D01*
G01X19799Y13071D01*
G01X19757Y13143D01*
G01X19715Y13214D01*
G01X19675Y13282D01*
G01X19636Y13349D01*
G01X19598Y13413D01*
G01X19561Y13476D01*
G01X19525Y13535D01*
G01X19492Y13592D01*
G01X19460Y13646D01*
G01X19430Y13696D01*
G01X19402Y13743D01*
G01X19376Y13787D01*
G01X19351Y13826D01*
G01X19330Y13862D01*
G01X19311Y13893D01*
G01X19294Y13920D01*
G01X19280Y13942D01*
G01X19269Y13959D01*
G01X19261Y13971D01*
G01X19256Y13977D01*
G01X19225Y14004D01*
G01X19195Y14018D01*
G01X19169Y14018D01*
G01X19151Y14005D01*
G01X19150Y13998D01*
G01X19153Y13986D01*
G01X19160Y13967D01*
G01X19169Y13944D01*
G01X19182Y13915D01*
G01X19198Y13881D01*
G01X19217Y13842D01*
G01X19238Y13799D01*
G01X19263Y13751D01*
G01X19290Y13699D01*
G01X19319Y13643D01*
G01X19351Y13583D01*
G01X19385Y13519D01*
G01X19421Y13452D01*
G01X19459Y13382D01*
G01X19499Y13309D01*
G01X19541Y13233D01*
G01X19585Y13155D01*
G01X19630Y13074D01*
G01X19677Y12991D01*
G01X19725Y12906D01*
G01X19774Y12820D01*
G01X19825Y12732D01*
G01X19877Y12642D01*
G01X19928Y12553D01*
G01X19979Y12465D01*
G01X20027Y12379D01*
G01X20075Y12295D01*
G01X20121Y12214D01*
G01X20166Y12135D01*
G01X20209Y12058D01*
G01X20250Y11984D01*
G01X20290Y11914D01*
G01X20327Y11847D01*
G01X20362Y11783D01*
G01X20395Y11722D01*
G01X20425Y11665D01*
G01X20453Y11613D01*
G01X20479Y11565D01*
G01X20501Y11520D01*
G01X20522Y11481D01*
G01X20539Y11447D01*
G01X20553Y11417D01*
G01X20564Y11392D01*
G01X20572Y11374D01*
G01X20577Y11360D01*
G01X20579Y11352D01*
G01X20576Y11351D01*
G01X20570Y11355D01*
G01X20562Y11364D01*
G01X20551Y11379D01*
G01X20536Y11399D01*
G01X20519Y11423D01*
G01X20499Y11453D01*
G01X20477Y11487D01*
G01X20453Y11525D01*
G01X20426Y11567D01*
G01X20397Y11613D01*
G01X20366Y11663D01*
G01X20333Y11717D01*
G01X20298Y11774D01*
G01X20262Y11834D01*
G01X20143Y12032D01*
G01X20101Y12103D01*
G01X20057Y12176D01*
G01X20013Y12251D01*
G01X19968Y12329D01*
G01X19922Y12408D01*
G01X19876Y12489D01*
G01X19828Y12570D01*
G01X19765Y12681D01*
G01X19704Y12786D01*
G01X19646Y12885D01*
G01X19591Y12979D01*
G01X19538Y13068D01*
G01X19488Y13152D01*
G01X19442Y13230D01*
G01X19397Y13302D01*
G01X19355Y13371D01*
G01X19316Y13434D01*
G01X19279Y13491D01*
G01X19245Y13544D01*
G01X19213Y13592D01*
G01X19183Y13635D01*
G01X19155Y13673D01*
G01X19130Y13707D01*
G01X19107Y13736D01*
G01X19087Y13761D01*
G01X19068Y13781D01*
G01X19052Y13796D01*
G01X19038Y13807D01*
G01X19026Y13814D01*
G01X19015Y13816D01*
G01X19007Y13814D01*
G01X19001Y13808D01*
G01X18996Y13798D01*
G01X18993Y13784D01*
G01X18993Y13765D01*
G01X18995Y13755D01*
G01X19002Y13737D01*
G01X19014Y13711D01*
G01X19052Y13637D01*
G01X19076Y13590D01*
G01X19104Y13536D01*
G01X19136Y13478D01*
G01X19170Y13414D01*
G01X19208Y13346D01*
G01X19249Y13273D01*
G01X19291Y13196D01*
G01X19336Y13117D01*
G01X19383Y13035D01*
G01X19431Y12950D01*
G01X19481Y12863D01*
G01X19566Y12715D01*
G01X19646Y12576D01*
G01X19720Y12447D01*
G01X19789Y12328D01*
G01X19853Y12216D01*
G01X19911Y12114D01*
G01X19965Y12020D01*
G01X20014Y11934D01*
G01X20059Y11856D01*
G01X20099Y11784D01*
G01X20136Y11720D01*
G01X20168Y11662D01*
G01X20197Y11610D01*
G01X20221Y11564D01*
G01X20243Y11523D01*
G01X20262Y11488D01*
G01X20277Y11457D01*
G01X20291Y11432D01*
G01X20301Y11409D01*
G01X20308Y11391D01*
G01X20314Y11376D01*
G01X20319Y11356D01*
G01X20319Y11349D01*
G01X20317Y11345D01*
G01X20314Y11342D01*
G01X20310Y11341D01*
G01X20306Y11341D01*
G01X20300Y11344D01*
G01X20290Y11355D01*
G01X20275Y11373D01*
G01X20258Y11398D01*
G01X20236Y11429D01*
G01X20211Y11466D01*
G01X20183Y11509D01*
G01X20152Y11558D01*
G01X20118Y11611D01*
G01X20082Y11669D01*
G01X20043Y11732D01*
G01X20001Y11800D01*
G01X19958Y11871D01*
G01X19913Y11946D01*
G01X19866Y12024D01*
G01X19818Y12106D01*
G01X19768Y12190D01*
G01X19717Y12278D01*
G01X19665Y12367D01*
G01X19611Y12458D01*
G01X19559Y12549D01*
G01X19507Y12639D01*
G01X19455Y12725D01*
G01X19406Y12810D01*
G01X19357Y12892D01*
G01X19310Y12970D01*
G01X19265Y13045D01*
G01X19222Y13117D01*
G01X19181Y13184D01*
G01X19142Y13247D01*
G01X19106Y13305D01*
G01X19072Y13358D01*
G01X19041Y13407D01*
G01X19013Y13449D01*
G01X18989Y13486D01*
G01X18968Y13517D01*
G01X18950Y13542D01*
G01X18936Y13560D01*
G01X18926Y13571D01*
G01X18920Y13575D01*
G01X18908Y13574D01*
G01X18898Y13570D01*
G01X18890Y13565D01*
G01X18885Y13556D01*
G01X18882Y13545D01*
G01X18882Y13530D01*
G01X18885Y13512D01*
G01X18890Y13489D01*
G01X18899Y13464D01*
G01X18910Y13433D01*
G01X18925Y13398D01*
G01X18943Y13358D01*
G01X18965Y13314D01*
G01X18990Y13263D01*
G01X19019Y13208D01*
G01X19052Y13146D01*
G01X19088Y13078D01*
G01X19129Y13004D01*
G01X19174Y12923D01*
G01X19223Y12836D01*
G01X19277Y12741D01*
G01X19336Y12639D01*
G01X19398Y12529D01*
G01X19466Y12411D01*
G01X19514Y12327D01*
G01X19562Y12244D01*
G01X19607Y12164D01*
G01X19651Y12086D01*
G01X19694Y12010D01*
G01X19734Y11937D01*
G01X19773Y11867D01*
G01X19809Y11800D01*
G01X19844Y11737D01*
G01X19876Y11678D01*
G01X19905Y11623D01*
G01X19932Y11572D01*
G01X19956Y11526D01*
G01X19976Y11485D01*
G01X19994Y11449D01*
G01X20009Y11418D01*
G01X20019Y11394D01*
G01X20027Y11375D01*
G01X20030Y11363D01*
G01X20030Y11357D01*
G01X20026Y11356D01*
G01X20021Y11358D01*
G01X20014Y11363D01*
G01X20006Y11372D01*
G01X19995Y11384D01*
G01X19982Y11400D01*
G01X19968Y11420D01*
G01X19951Y11443D01*
G01X19933Y11470D01*
G01X19912Y11502D01*
G01X19890Y11537D01*
G01X19864Y11576D01*
G01X19837Y11620D01*
G01X19807Y11668D01*
G01X19775Y11721D01*
G01X19741Y11778D01*
G01X19704Y11840D01*
G01X19664Y11907D01*
G01X19622Y11979D01*
G01X19577Y12055D01*
G01X19529Y12137D01*
G01X19478Y12224D01*
G01X19425Y12315D01*
G01X19369Y12412D01*
G01X19309Y12516D01*
G01X19247Y12624D01*
G01X19181Y12738D01*
G01X19112Y12857D01*
G01X19062Y12944D01*
G01X19015Y13023D01*
G01X18972Y13092D01*
G01X18932Y13153D01*
G01X18897Y13205D01*
G01X18865Y13249D01*
G01X18837Y13284D01*
G01X18812Y13311D01*
G01X18791Y13328D01*
G01X18774Y13338D01*
G01X18761Y13338D01*
G01X18751Y13329D01*
G01X18741Y13286D01*
G01X18748Y13225D01*
G01X18773Y13153D01*
G01X18812Y13076D01*
G01X18830Y13047D01*
G01X18852Y13008D01*
G01X18880Y12961D01*
G01X18912Y12906D01*
G01X18948Y12845D01*
G01X18987Y12778D01*
G01X19029Y12706D01*
G01X19072Y12630D01*
G01X19118Y12552D01*
G01X19164Y12472D01*
G01X19293Y12249D01*
G01X19363Y12127D01*
G01X19433Y12007D01*
G01X19467Y11949D01*
G01X19500Y11892D01*
G01X19531Y11838D01*
G01X19561Y11787D01*
G01X19590Y11738D01*
G01X19616Y11693D01*
G01X19640Y11651D01*
G01X19662Y11614D01*
G01X19681Y11581D01*
G01X19698Y11553D01*
G01X19711Y11531D01*
G01X19752Y11456D01*
G01X19777Y11395D01*
G01X19786Y11354D01*
G01X19775Y11340D01*
G01X19767Y11344D01*
G01X19754Y11358D01*
G01X19736Y11381D01*
G01X19714Y11411D01*
G01X19688Y11450D01*
G01X19657Y11496D01*
G01X19623Y11548D01*
G01X19585Y11607D01*
G01X19545Y11672D01*
G01X19502Y11742D01*
G01X19456Y11818D01*
G01X19408Y11898D01*
G01X19358Y11981D01*
G01X19307Y12069D01*
G01X19254Y12159D01*
G01X19201Y12252D01*
G01X19141Y12355D01*
G01X19084Y12453D01*
G01X19030Y12544D01*
G01X18979Y12628D01*
G01X18931Y12707D01*
G01X18885Y12779D01*
G01X18844Y12844D01*
G01X18805Y12902D01*
G01X18770Y12952D01*
G01X18739Y12996D01*
G01X18711Y13032D01*
G01X18687Y13060D01*
G01X18667Y13081D01*
G01X18652Y13093D01*
G01X18640Y13097D01*
G01X18633Y13093D01*
G01X18620Y13059D01*
G01X18616Y13016D01*
G01X18622Y12972D01*
G01X18638Y12931D01*
G01X18645Y12917D01*
G01X18656Y12898D01*
G01X18672Y12871D01*
G01X18690Y12838D01*
G01X18712Y12799D01*
G01X18737Y12755D01*
G01X18765Y12707D01*
G01X18796Y12653D01*
G01X18828Y12595D01*
G01X18863Y12534D01*
G01X18900Y12470D01*
G01X18939Y12402D01*
G01X18978Y12333D01*
G01X19020Y12261D01*
G01X19062Y12188D01*
G01X19104Y12113D01*
G01X19161Y12015D01*
G01X19215Y11920D01*
G01X19266Y11829D01*
G01X19315Y11744D01*
G01X19359Y11665D01*
G01X19400Y11593D01*
G01X19435Y11529D01*
G01X19465Y11473D01*
G01X19489Y11428D01*
G01X19507Y11393D01*
G01X19518Y11370D01*
G01X19522Y11360D01*
G01X19520Y11345D01*
G01X19514Y11338D01*
G01X19505Y11339D01*
G01X19492Y11348D01*
G01X19475Y11365D01*
G01X19453Y11391D01*
G01X19427Y11425D01*
G01X19398Y11468D01*
G01X19364Y11518D01*
G01X19325Y11579D01*
G01X19282Y11647D01*
G01X19234Y11726D01*
G01X19182Y11813D01*
G01X19125Y11910D01*
G01X19063Y12016D01*
G01X18996Y12131D01*
G01X18952Y12206D01*
G01X18910Y12280D01*
G01X18868Y12351D01*
G01X18827Y12420D01*
G01X18788Y12486D01*
G01X18750Y12548D01*
G01X18714Y12607D01*
G01X18681Y12661D01*
G01X18649Y12711D01*
G01X18620Y12756D01*
G01X18595Y12796D01*
G01X18572Y12830D01*
G01X18553Y12857D01*
G01X18537Y12879D01*
G01X18525Y12894D01*
G01X18518Y12901D01*
G01X18498Y12911D01*
G01X18482Y12916D01*
G01X18470Y12914D01*
G01X18463Y12907D01*
G01X18459Y12894D01*
G01X18460Y12875D01*
G01X18464Y12850D01*
G01X18472Y12820D01*
G01X18485Y12785D01*
G01X18500Y12744D01*
G01X18521Y12697D01*
G01X18544Y12645D01*
G01X18571Y12588D01*
G01X18603Y12526D01*
G01X18638Y12458D01*
G01X18677Y12386D01*
G01X18719Y12307D01*
G01X18765Y12225D01*
G01X18815Y12137D01*
G01X18868Y12045D01*
G01X19273Y11347D01*
G01X18110Y11310D01*
G01X18110Y11536D01*
G01X18105Y11646D01*
G01X18086Y11720D01*
G01X18052Y11766D01*
G01X17998Y11792D01*
G01X17936Y11811D01*
G01X17915Y11832D01*
G01X17936Y11868D01*
G01X17998Y11933D01*
G01X18024Y11962D01*
G01X18046Y11996D01*
G01X18066Y12035D01*
G01X18081Y12077D01*
G01X18094Y12122D01*
G01X18103Y12171D01*
G01X18108Y12224D01*
G01X18110Y12279D01*
G01X18106Y12348D01*
G01X18094Y12411D01*
G01X18076Y12469D01*
G01X18050Y12521D01*
G01X18018Y12566D01*
G01X17980Y12604D01*
G01X17937Y12635D01*
G01X17889Y12658D01*
G01X17836Y12673D01*
G01X17778Y12680D01*
G01X17718Y12678D01*
G01X17654Y12666D01*
G01X17584Y12651D01*
G01X17514Y12638D01*
G01X17451Y12629D01*
G01X17404Y12626D01*
G01X17381Y12622D01*
G01X17362Y12611D01*
G01X17348Y12590D01*
G01X17338Y12560D01*
G01X17332Y12517D01*
G01X17330Y12462D01*
G01X17331Y12392D01*
G01X17336Y12305D01*
G01X17339Y12234D01*
G01X17339Y12170D01*
G01X17334Y12114D01*
G01X17328Y12067D01*
G01X17319Y12029D01*
G01X17307Y12002D01*
G01X17294Y11985D01*
G01X17279Y11979D01*
G01X17262Y11984D01*
G01X17244Y12002D01*
G01X17225Y12031D01*
G01X17206Y12075D01*
G01X17186Y12109D01*
G01X17156Y12137D01*
G01X17119Y12156D01*
G01X17080Y12163D01*
G01X17042Y12156D01*
G01X17006Y12137D01*
G01X16975Y12109D01*
G01X16955Y12075D01*
G01X16938Y12041D01*
G01X16915Y12012D01*
G01X16892Y11993D01*
G01X16869Y11986D01*
G01X16848Y11993D01*
G01X16832Y12012D01*
G01X16820Y12041D01*
G01X16816Y12075D01*
G01X16821Y12109D01*
G01X16837Y12137D01*
G01X16859Y12156D01*
G01X16886Y12163D01*
G01X16917Y12166D01*
G01X16928Y12178D01*
G01X16917Y12199D01*
G01X16886Y12234D01*
G01X16854Y12277D01*
G01X16833Y12329D01*
G01X16820Y12385D01*
G01X16818Y12441D01*
G01X16824Y12493D01*
G01X16841Y12535D01*
G01X16867Y12564D01*
G01X16901Y12575D01*
G01X16937Y12580D01*
G01X16973Y12595D01*
G01X17004Y12616D01*
G01X17028Y12643D01*
G01X17040Y12668D01*
G01X17040Y12681D01*
G01X17027Y12681D01*
G01X16969Y12652D01*
G01X16948Y12650D01*
G01X16938Y12662D01*
G01X16939Y12687D01*
G01X16951Y12724D01*
G01X16973Y12775D01*
G01X17007Y12838D01*
G01X17051Y12913D01*
G01X17089Y12973D01*
G01X17124Y13019D01*
G01X17159Y13053D01*
G01X17200Y13076D01*
G01X17252Y13091D01*
G01X17319Y13100D01*
G01X17404Y13103D01*
G01X17514Y13104D01*
G01X17598Y13105D01*
G01X17672Y13109D01*
G01X17737Y13116D01*
G01X17793Y13126D01*
G01X17841Y13138D01*
G01X17880Y13153D01*
G01X17911Y13171D01*
G01X17933Y13192D01*
G01X17945Y13210D01*
G01X17955Y13236D01*
G01X17965Y13268D01*
G01X17974Y13309D01*
G01X17981Y13356D01*
G01X17987Y13410D01*
G01X17993Y13472D01*
G01X17997Y13540D01*
G01X18000Y13615D01*
G01X18003Y13698D01*
G01X18004Y13787D01*
G01X18004Y13995D01*
G01X18005Y14097D01*
G01X18008Y14188D01*
G01X18012Y14271D01*
G01X18018Y14346D01*
G01X18025Y14415D01*
G01X18035Y14478D01*
G01X18046Y14536D01*
G01X18059Y14591D01*
G01X18075Y14643D01*
G01X18093Y14694D01*
G01X18114Y14744D01*
G01X18158Y14846D01*
G01X18195Y14932D01*
G01X18219Y14995D01*
G01X18228Y15023D01*
G01X18220Y15045D01*
G37*

%LPC*%
G36*
G01X17992Y10268D02*
G01X17992Y11704D01*
G01X17458Y11684D01*
G01X17354Y11679D01*
G01X17262Y11674D01*
G01X17183Y11669D01*
G01X17115Y11662D01*
G01X17057Y11655D01*
G01X17008Y11645D01*
G01X16967Y11635D01*
G01X16933Y11622D01*
G01X16904Y11608D01*
G01X16880Y11591D01*
G01X16859Y11571D01*
G01X16841Y11549D01*
G01X16821Y11515D01*
G01X16805Y11471D01*
G01X16790Y11415D01*
G01X16778Y11349D01*
G01X16769Y11273D01*
G01X16762Y11187D01*
G01X16758Y11091D01*
G01X16757Y10984D01*
G01X16758Y10898D01*
G01X16760Y10819D01*
G01X16764Y10747D01*
G01X16770Y10683D01*
G01X16778Y10625D01*
G01X16790Y10573D01*
G01X16805Y10527D01*
G01X16824Y10487D01*
G01X16847Y10452D01*
G01X16875Y10421D01*
G01X16908Y10395D01*
G01X16946Y10372D01*
G01X16991Y10353D01*
G01X17041Y10338D01*
G01X17098Y10325D01*
G01X17162Y10314D01*
G01X17234Y10306D01*
G01X17314Y10299D01*
G01X17402Y10294D01*
G01X17499Y10289D01*
G01X17992Y10268D01*
G37*
G36*
G01X15110Y11692D02*
G01X14930Y11692D01*
G01X14901Y11690D01*
G01X14878Y11684D01*
G01X14860Y11671D01*
G01X14845Y11651D01*
G01X14835Y11622D01*
G01X14827Y11580D01*
G01X14821Y11526D01*
G01X14818Y11456D01*
G01X14817Y11368D01*
G01X14816Y11261D01*
G01X14816Y10575D01*
G01X14488Y10575D01*
G01X14387Y10574D01*
G01X14308Y10571D01*
G01X14251Y10565D01*
G01X14213Y10555D01*
G01X14189Y10538D01*
G01X14177Y10515D01*
G01X14175Y10484D01*
G01X14180Y10442D01*
G01X14187Y10401D01*
G01X14202Y10369D01*
G01X14226Y10345D01*
G01X14265Y10328D01*
G01X14323Y10315D01*
G01X14404Y10306D01*
G01X14514Y10299D01*
G01X14654Y10293D01*
G01X15110Y10275D01*
G01X15110Y11692D01*
G37*
G36*
G01X13788Y11692D02*
G01X13550Y11692D01*
G01X13449Y11691D01*
G01X13365Y11689D01*
G01X13296Y11686D01*
G01X13241Y11681D01*
G01X13197Y11674D01*
G01X13164Y11666D01*
G01X13141Y11655D01*
G01X13125Y11640D01*
G01X13116Y11623D01*
G01X13111Y11603D01*
G01X13110Y11578D01*
G01X13120Y11523D01*
G01X13152Y11485D01*
G01X13211Y11460D01*
G01X13301Y11446D01*
G01X13492Y11427D01*
G01X13509Y10854D01*
G01X13513Y10724D01*
G01X13517Y10616D01*
G01X13521Y10527D01*
G01X13527Y10455D01*
G01X13534Y10399D01*
G01X13543Y10356D01*
G01X13554Y10325D01*
G01X13569Y10304D01*
G01X13587Y10291D01*
G01X13609Y10284D01*
G01X13637Y10281D01*
G01X13669Y10280D01*
G01X13701Y10281D01*
G01X13728Y10284D01*
G01X13751Y10291D01*
G01X13769Y10304D01*
G01X13784Y10325D01*
G01X13795Y10356D01*
G01X13804Y10399D01*
G01X13811Y10455D01*
G01X13817Y10527D01*
G01X13821Y10616D01*
G01X13825Y10724D01*
G01X13829Y10854D01*
G01X13846Y11427D01*
G01X14037Y11446D01*
G01X14127Y11460D01*
G01X14186Y11485D01*
G01X14218Y11523D01*
G01X14228Y11578D01*
G01X14227Y11603D01*
G01X14222Y11623D01*
G01X14213Y11640D01*
G01X14197Y11655D01*
G01X14174Y11666D01*
G01X14141Y11674D01*
G01X14098Y11681D01*
G01X14042Y11686D01*
G01X13973Y11689D01*
G01X13889Y11691D01*
G01X13788Y11692D01*
G37*
G36*
G01X12641Y11674D02*
G01X12553Y11685D01*
G01X12416Y11680D01*
G01X12144Y11663D01*
G01X11951Y11045D01*
G01X11925Y10961D01*
G01X11900Y10879D01*
G01X11876Y10800D01*
G01X11854Y10724D01*
G01X11833Y10653D01*
G01X11815Y10587D01*
G01X11798Y10528D01*
G01X11785Y10476D01*
G01X11773Y10431D01*
G01X11765Y10396D01*
G01X11760Y10370D01*
G01X11758Y10354D01*
G01X11769Y10326D01*
G01X11799Y10302D01*
G01X11844Y10287D01*
G01X11898Y10280D01*
G01X11964Y10289D01*
G01X12015Y10314D01*
G01X12051Y10360D01*
G01X12076Y10428D01*
G01X12088Y10472D01*
G01X12104Y10506D01*
G01X12125Y10532D01*
G01X12154Y10551D01*
G01X12194Y10563D01*
G01X12248Y10570D01*
G01X12318Y10574D01*
G01X12407Y10575D01*
G01X12494Y10574D01*
G01X12564Y10570D01*
G01X12619Y10562D01*
G01X12661Y10550D01*
G01X12693Y10531D01*
G01X12718Y10505D01*
G01X12739Y10471D01*
G01X12757Y10428D01*
G01X12791Y10360D01*
G01X12836Y10314D01*
G01X12894Y10289D01*
G01X12968Y10280D01*
G01X13032Y10285D01*
G01X13075Y10300D01*
G01X13097Y10323D01*
G01X13095Y10354D01*
G01X13090Y10369D01*
G01X13082Y10394D01*
G01X13070Y10428D01*
G01X13057Y10471D01*
G01X13041Y10521D01*
G01X13024Y10579D01*
G01X13004Y10642D01*
G01X12983Y10710D01*
G01X12962Y10782D01*
G01X12939Y10857D01*
G01X12915Y10935D01*
G01X12892Y11014D01*
G01X12867Y11094D01*
G01X12843Y11173D01*
G01X12820Y11251D01*
G01X12798Y11327D01*
G01X12776Y11400D01*
G01X12755Y11469D01*
G01X12737Y11534D01*
G01X12719Y11593D01*
G01X12692Y11644D01*
G01X12641Y11674D01*
G37*
G36*
G01X16467Y11692D02*
G01X15810Y11692D01*
G01X15691Y11689D01*
G01X15603Y11684D01*
G01X15541Y11674D01*
G01X15500Y11660D01*
G01X15476Y11639D01*
G01X15466Y11611D01*
G01X15463Y11575D01*
G01X15466Y11540D01*
G01X15474Y11513D01*
G01X15490Y11492D01*
G01X15518Y11477D01*
G01X15559Y11467D01*
G01X15616Y11461D01*
G01X15691Y11458D01*
G01X15787Y11457D01*
G01X15892Y11456D01*
G01X15972Y11454D01*
G01X16030Y11447D01*
G01X16069Y11434D01*
G01X16092Y11413D01*
G01X16105Y11382D01*
G01X16109Y11338D01*
G01X16110Y11281D01*
G01X16109Y11223D01*
G01X16105Y11180D01*
G01X16093Y11149D01*
G01X16071Y11128D01*
G01X16036Y11115D01*
G01X15983Y11107D01*
G01X15911Y11104D01*
G01X15816Y11104D01*
G01X15676Y11100D01*
G01X15585Y11085D01*
G01X15537Y11058D01*
G01X15522Y11016D01*
G01X15537Y10974D01*
G01X15585Y10947D01*
G01X15676Y10932D01*
G01X15816Y10928D01*
G01X16110Y10928D01*
G01X16110Y10534D01*
G01X15787Y10543D01*
G01X15686Y10546D01*
G01X15608Y10545D01*
G01X15551Y10541D01*
G01X15511Y10531D01*
G01X15485Y10515D01*
G01X15471Y10490D01*
G01X15465Y10457D01*
G01X15463Y10414D01*
G01X15465Y10369D01*
G01X15472Y10336D01*
G01X15491Y10312D01*
G01X15528Y10297D01*
G01X15586Y10288D01*
G01X15672Y10285D01*
G01X15791Y10288D01*
G01X15948Y10293D01*
G01X16434Y10310D01*
G01X16450Y11001D01*
G01X16467Y11692D01*
G37*
G36*
G01X14917Y11954D02*
G01X14858Y11982D01*
G01X14777Y11980D01*
G01X14674Y11951D01*
G01X14638Y11930D01*
G01X14608Y11901D01*
G01X14588Y11868D01*
G01X14581Y11833D01*
G01X14570Y11800D01*
G01X14539Y11774D01*
G01X14491Y11757D01*
G01X14429Y11751D01*
G01X14351Y11745D01*
G01X14307Y11722D01*
G01X14291Y11671D01*
G01X14295Y11583D01*
G01X14296Y11516D01*
G01X14283Y11451D01*
G01X14259Y11390D01*
G01X14226Y11335D01*
G01X14184Y11289D01*
G01X14136Y11253D01*
G01X14082Y11230D01*
G01X14026Y11222D01*
G01X14000Y11218D01*
G01X13979Y11203D01*
G01X13964Y11175D01*
G01X13952Y11131D01*
G01X13945Y11068D01*
G01X13941Y10983D01*
G01X13940Y10874D01*
G01X13942Y10737D01*
G01X13944Y10642D01*
G01X13947Y10560D01*
G01X13951Y10491D01*
G01X13955Y10437D01*
G01X13960Y10399D01*
G01X13966Y10379D01*
G01X13972Y10378D01*
G01X13977Y10398D01*
G01X13992Y10462D01*
G01X14013Y10514D01*
G01X14042Y10554D01*
G01X14079Y10585D01*
G01X14128Y10608D01*
G01X14189Y10622D01*
G01X14266Y10630D01*
G01X14360Y10632D01*
G01X14580Y10633D01*
G01X14570Y11089D01*
G01X14570Y11182D01*
G01X14571Y11266D01*
G01X14575Y11345D01*
G01X14581Y11417D01*
G01X14589Y11482D01*
G01X14600Y11541D01*
G01X14614Y11594D01*
G01X14630Y11641D01*
G01X14649Y11681D01*
G01X14670Y11716D01*
G01X14694Y11745D01*
G01X14721Y11769D01*
G01X14751Y11787D01*
G01X14784Y11800D01*
G01X14819Y11807D01*
G01X14857Y11810D01*
G01X14915Y11815D01*
G01X14950Y11831D01*
G01X14963Y11858D01*
G01X14955Y11898D01*
G01X14917Y11954D01*
G37*
G36*
G01X15284Y11320D02*
G01X15265Y11330D01*
G01X15250Y11324D01*
G01X15240Y11298D01*
G01X15234Y11249D01*
G01X15230Y11174D01*
G01X15228Y11070D01*
G01X15228Y10527D01*
G01X15374Y10595D01*
G01X15450Y10632D01*
G01X15479Y10655D01*
G01X15463Y10670D01*
G01X15404Y10682D01*
G01X15346Y10701D01*
G01X15310Y10743D01*
G01X15292Y10816D01*
G01X15287Y10932D01*
G01X15292Y11029D01*
G01X15306Y11102D01*
G01X15329Y11150D01*
G01X15360Y11167D01*
G01X15418Y11172D01*
G01X15479Y11181D01*
G01X15541Y11191D01*
G01X15600Y11203D01*
G01X15654Y11217D01*
G01X15699Y11231D01*
G01X15734Y11245D01*
G01X15754Y11258D01*
G01X15749Y11269D01*
G01X15713Y11276D01*
G01X15651Y11278D01*
G01X15569Y11273D01*
G01X15481Y11269D01*
G01X15403Y11273D01*
G01X15343Y11282D01*
G01X15310Y11297D01*
G01X15284Y11320D01*
G37*
G36*
G01X17026Y11852D02*
G01X16967Y11867D01*
G01X16900Y11856D01*
G01X16850Y11818D01*
G01X16826Y11800D01*
G01X16784Y11790D01*
G01X16730Y11788D01*
G01X16671Y11795D01*
G01X16591Y11805D01*
G01X16546Y11789D01*
G01X16526Y11735D01*
G01X16522Y11635D01*
G01X16522Y11447D01*
G01X16703Y11599D01*
G01X16780Y11658D01*
G01X16855Y11706D01*
G01X16921Y11739D01*
G01X16968Y11751D01*
G01X17000Y11756D01*
G01X17027Y11768D01*
G01X17044Y11787D01*
G01X17052Y11810D01*
G01X17026Y11852D01*
G37*
G36*
G01X15275Y11848D02*
G01X15250Y11864D01*
G01X15233Y11830D01*
G01X15228Y11748D01*
G01X15232Y11703D01*
G01X15244Y11672D01*
G01X15262Y11658D01*
G01X15284Y11661D01*
G01X15303Y11681D01*
G01X15314Y11711D01*
G01X15316Y11746D01*
G01X15307Y11783D01*
G01X15275Y11848D01*
G37*
G36*
G01X15957Y11923D02*
G01X15933Y11927D01*
G01X15911Y11923D01*
G01X15886Y11910D01*
G01X15864Y11892D01*
G01X15846Y11869D01*
G01X15841Y11846D01*
G01X15856Y11827D01*
G01X15888Y11815D01*
G01X15933Y11810D01*
G01X15979Y11815D01*
G01X16011Y11827D01*
G01X16026Y11846D01*
G01X16022Y11869D01*
G01X16004Y11892D01*
G01X15981Y11910D01*
G01X15957Y11923D01*
G37*
G36*
G01X17826Y12631D02*
G01X17784Y12635D01*
G01X17739Y12632D01*
G01X17693Y12622D01*
G01X17645Y12604D01*
G01X17597Y12578D01*
G01X17548Y12544D01*
G01X17490Y12496D01*
G01X17483Y12473D01*
G01X17535Y12473D01*
G01X17651Y12491D01*
G01X17771Y12507D01*
G01X17842Y12498D01*
G01X17882Y12455D01*
G01X17909Y12370D01*
G01X17919Y12295D01*
G01X17912Y12224D01*
G01X17891Y12162D01*
G01X17860Y12111D01*
G01X17820Y12077D01*
G01X17776Y12060D01*
G01X17730Y12067D01*
G01X17684Y12099D01*
G01X17650Y12139D01*
G01X17640Y12168D01*
G01X17650Y12188D01*
G01X17684Y12205D01*
G01X17731Y12242D01*
G01X17721Y12286D01*
G01X17664Y12324D01*
G01X17573Y12339D01*
G01X17516Y12332D01*
G01X17483Y12307D01*
G01X17470Y12257D01*
G01X17474Y12178D01*
G01X17481Y12127D01*
G01X17491Y12089D01*
G01X17507Y12060D01*
G01X17530Y12041D01*
G01X17565Y12027D01*
G01X17612Y12020D01*
G01X17675Y12017D01*
G01X17757Y12016D01*
G01X18022Y12016D01*
G01X18041Y12249D01*
G01X18043Y12311D01*
G01X18039Y12369D01*
G01X18028Y12421D01*
G01X18012Y12469D01*
G01X17991Y12511D01*
G01X17966Y12547D01*
G01X17936Y12578D01*
G01X17903Y12602D01*
G01X17866Y12620D01*
G01X17826Y12631D01*
G37*
G36*
G01X16213Y13568D02*
G01X16165Y13575D01*
G01X16108Y13568D01*
G01X16073Y13546D01*
G01X16059Y13506D01*
G01X16062Y13442D01*
G01X16077Y13400D01*
G01X16104Y13362D01*
G01X16141Y13332D01*
G01X16181Y13311D01*
G01X16220Y13300D01*
G01X16254Y13303D01*
G01X16278Y13320D01*
G01X16286Y13354D01*
G01X16286Y13486D01*
G01X16277Y13521D01*
G01X16251Y13549D01*
G01X16213Y13568D01*
G37*
G36*
G01X17937Y14692D02*
G01X17349Y14692D01*
G01X17266Y14690D01*
G01X17193Y14687D01*
G01X17128Y14683D01*
G01X17071Y14678D01*
G01X17020Y14671D01*
G01X16975Y14661D01*
G01X16936Y14650D01*
G01X16901Y14638D01*
G01X16870Y14622D01*
G01X16841Y14605D01*
G01X16813Y14584D01*
G01X16784Y14555D01*
G01X16757Y14518D01*
G01X16733Y14473D01*
G01X16712Y14423D01*
G01X16692Y14366D01*
G01X16677Y14305D01*
G01X16663Y14239D01*
G01X16653Y14171D01*
G01X16647Y14100D01*
G01X16643Y14028D01*
G01X16643Y13955D01*
G01X16646Y13883D01*
G01X16653Y13811D01*
G01X16663Y13742D01*
G01X16678Y13675D01*
G01X16695Y13612D01*
G01X16712Y13567D01*
G01X16731Y13527D01*
G01X16754Y13489D01*
G01X16779Y13457D01*
G01X16809Y13428D01*
G01X16842Y13402D01*
G01X16881Y13380D01*
G01X16925Y13361D01*
G01X16975Y13345D01*
G01X17030Y13332D01*
G01X17093Y13322D01*
G01X17163Y13314D01*
G01X17240Y13309D01*
G01X17325Y13306D01*
G01X17419Y13304D01*
G01X17522Y13305D01*
G01X17904Y13310D01*
G01X17921Y14001D01*
G01X17937Y14692D01*
G37*

%LPD*%
G36*
G01X17581Y14457D02*
G01X17380Y14457D01*
G01X17298Y14456D01*
G01X17229Y14453D01*
G01X17171Y14445D01*
G01X17123Y14434D01*
G01X17085Y14417D01*
G01X17054Y14392D01*
G01X17031Y14361D01*
G01X17014Y14320D01*
G01X17003Y14270D01*
G01X16997Y14209D01*
G01X16994Y14136D01*
G01X16993Y14051D01*
G01X16994Y13959D01*
G01X16999Y13879D01*
G01X17007Y13810D01*
G01X17020Y13752D01*
G01X17038Y13704D01*
G01X17062Y13665D01*
G01X17092Y13634D01*
G01X17129Y13610D01*
G01X17173Y13594D01*
G01X17225Y13582D01*
G01X17287Y13576D01*
G01X17357Y13575D01*
G01X17581Y13575D01*
G01X17581Y14457D01*
G37*

%LPC*%
G36*
G01X17250Y14217D02*
G01X17190Y14221D01*
G01X17145Y14220D01*
G01X17111Y14215D01*
G01X17086Y14204D01*
G01X17069Y14183D01*
G01X17060Y14153D01*
G01X17057Y14109D01*
G01X17058Y14049D01*
G01X17063Y13972D01*
G01X17071Y13898D01*
G01X17084Y13835D01*
G01X17101Y13784D01*
G01X17122Y13744D01*
G01X17145Y13717D01*
G01X17170Y13701D01*
G01X17196Y13699D01*
G01X17224Y13709D01*
G01X17251Y13732D01*
G01X17277Y13768D01*
G01X17302Y13818D01*
G01X17325Y13882D01*
G01X17349Y13969D01*
G01X17362Y14042D01*
G01X17363Y14101D01*
G01X17353Y14147D01*
G01X17331Y14181D01*
G01X17297Y14204D01*
G01X17250Y14217D01*
G37*

%LPD*%
G36*
G01X12434Y11432D02*
G01X12410Y11457D01*
G01X12394Y11445D01*
G01X12373Y11410D01*
G01X12350Y11357D01*
G01X12326Y11291D01*
G01X12300Y11216D01*
G01X12276Y11136D01*
G01X12254Y11054D01*
G01X12235Y10976D01*
G01X12221Y10906D01*
G01X12212Y10847D01*
G01X12210Y10804D01*
G01X12216Y10782D01*
G01X12247Y10768D01*
G01X12301Y10758D01*
G01X12369Y10753D01*
G01X12444Y10752D01*
G01X12517Y10754D01*
G01X12580Y10761D01*
G01X12623Y10772D01*
G01X12640Y10786D01*
G01X12632Y10825D01*
G01X12613Y10904D01*
G01X12583Y11013D01*
G01X12547Y11139D01*
G01X12507Y11262D01*
G01X12469Y11363D01*
G01X12434Y11432D01*
G37*

%LPD*%
G36*
G01X17510Y11455D02*
G01X17438Y11455D01*
G01X17361Y11449D01*
G01X17288Y11437D01*
G01X17221Y11419D01*
G01X17165Y11396D01*
G01X17134Y11376D01*
G01X17109Y11352D01*
G01X17089Y11322D01*
G01X17074Y11285D01*
G01X17063Y11238D01*
G01X17056Y11181D01*
G01X17053Y11110D01*
G01X17052Y11026D01*
G01X17053Y10962D01*
G01X17057Y10900D01*
G01X17063Y10841D01*
G01X17072Y10786D01*
G01X17083Y10738D01*
G01X17095Y10697D01*
G01X17108Y10666D01*
G01X17122Y10645D01*
G01X17169Y10618D01*
G01X17246Y10595D01*
G01X17342Y10580D01*
G01X17445Y10575D01*
G01X17698Y10575D01*
G01X17698Y11058D01*
G01X17695Y11136D01*
G01X17692Y11208D01*
G01X17687Y11272D01*
G01X17681Y11327D01*
G01X17674Y11371D01*
G01X17667Y11402D01*
G01X17659Y11418D01*
G01X17626Y11437D01*
G01X17575Y11449D01*
G01X17510Y11455D01*
G37*

%LPC*%
G36*
G01X17321Y11198D02*
G01X17271Y11204D01*
G01X17233Y11199D01*
G01X17206Y11179D01*
G01X17189Y11144D01*
G01X17179Y11092D01*
G01X17177Y11023D01*
G01X17181Y10933D01*
G01X17195Y10799D01*
G01X17218Y10714D01*
G01X17257Y10666D01*
G01X17316Y10647D01*
G01X17379Y10639D01*
G01X17401Y10642D01*
G01X17383Y10659D01*
G01X17326Y10695D01*
G01X17274Y10732D01*
G01X17254Y10762D01*
G01X17264Y10792D01*
G01X17305Y10830D01*
G01X17344Y10870D01*
G01X17376Y10918D01*
G01X17401Y10973D01*
G01X17418Y11028D01*
G01X17425Y11081D01*
G01X17423Y11126D01*
G01X17409Y11160D01*
G01X17383Y11180D01*
G01X17321Y11198D01*
G37*

%LPD*%
G36*
G01X37094Y48382D02*
G01X37084Y48397D01*
G01X37072Y48383D01*
G01X37048Y48344D01*
G01X37014Y48286D01*
G01X36973Y48214D01*
G01X36926Y48131D01*
G01X36877Y48043D01*
G01X36827Y47954D01*
G01X36782Y47870D01*
G01X36741Y47794D01*
G01X36709Y47733D01*
G01X36688Y47690D01*
G01X36680Y47670D01*
G01X36685Y47666D01*
G01X36700Y47662D01*
G01X36727Y47659D01*
G01X36768Y47656D01*
G01X36822Y47654D01*
G01X36891Y47653D01*
G01X36978Y47652D01*
G01X37180Y47652D01*
G01X37262Y47653D01*
G01X37331Y47654D01*
G01X37388Y47656D01*
G01X37431Y47658D01*
G01X37461Y47661D01*
G01X37480Y47664D01*
G01X37486Y47668D01*
G01X37481Y47682D01*
G01X37468Y47711D01*
G01X37444Y47756D01*
G01X37413Y47817D01*
G01X37372Y47892D01*
G01X37321Y47983D01*
G01X37262Y48089D01*
G01X37194Y48210D01*
G01X37153Y48283D01*
G01X37118Y48342D01*
G01X37094Y48382D01*
G37*

%LPD*%
G36*
G01X36583Y47559D02*
G01X36580Y47561D01*
G01X36563Y47536D01*
G01X36524Y47471D01*
G01X36470Y47379D01*
G01X36410Y47272D01*
G01X36384Y47226D01*
G01X36348Y47162D01*
G01X36266Y47014D01*
G01X36168Y46839D01*
G01X36466Y46827D01*
G01X36567Y46823D01*
G01X36663Y46822D01*
G01X36752Y46822D01*
G01X36829Y46823D01*
G01X36893Y46826D01*
G01X36942Y46830D01*
G01X36973Y46836D01*
G01X36984Y46842D01*
G01X36977Y46859D01*
G01X36958Y46897D01*
G01X36929Y46953D01*
G01X36891Y47023D01*
G01X36849Y47101D01*
G01X36804Y47184D01*
G01X36757Y47267D01*
G01X36713Y47347D01*
G01X36673Y47419D01*
G01X36639Y47478D01*
G01X36614Y47520D01*
G01X36600Y47542D01*
G01X36594Y47549D01*
G01X36588Y47555D01*
G01X36583Y47559D01*
G37*

%LPD*%
G36*
G01X37584Y47553D02*
G01X37577Y47553D01*
G01X37571Y47546D01*
G01X37558Y47527D01*
G01X37540Y47498D01*
G01X37517Y47458D01*
G01X37487Y47408D01*
G01X37453Y47347D01*
G01X37413Y47276D01*
G01X37367Y47194D01*
G01X37338Y47141D01*
G01X37276Y47026D01*
G01X37247Y46971D01*
G01X37221Y46921D01*
G01X37200Y46882D01*
G01X37187Y46854D01*
G01X37182Y46842D01*
G01X37193Y46836D01*
G01X37224Y46830D01*
G01X37272Y46826D01*
G01X37337Y46823D01*
G01X37414Y46822D01*
G01X37502Y46822D01*
G01X37598Y46823D01*
G01X37700Y46827D01*
G01X37997Y46839D01*
G01X37818Y47158D01*
G01X37781Y47223D01*
G01X37746Y47285D01*
G01X37714Y47344D01*
G01X37684Y47396D01*
G01X37659Y47441D01*
G01X37638Y47478D01*
G01X37623Y47504D01*
G01X37614Y47519D01*
G01X37604Y47535D01*
G01X37594Y47547D01*
G01X37584Y47553D01*
G37*

%LPD*%
G36*
G01X36140Y47962D02*
G01X36095Y47987D01*
G01X36045Y47972D01*
G01X35985Y47915D01*
G01X35908Y47811D01*
G01X35884Y47773D01*
G01X35854Y47722D01*
G01X35820Y47662D01*
G01X35785Y47599D01*
G01X35752Y47537D01*
G01X35724Y47482D01*
G01X35702Y47438D01*
G01X35690Y47410D01*
G01X35671Y47409D01*
G01X35619Y47425D01*
G01X35535Y47458D01*
G01X35418Y47508D01*
G01X35286Y47566D01*
G01X35168Y47616D01*
G01X35065Y47661D01*
G01X34975Y47699D01*
G01X34898Y47731D01*
G01X34832Y47757D01*
G01X34776Y47777D01*
G01X34730Y47793D01*
G01X34693Y47803D01*
G01X34663Y47809D01*
G01X34640Y47811D01*
G01X34623Y47809D01*
G01X34610Y47803D01*
G01X34600Y47795D01*
G01X34594Y47782D01*
G01X34590Y47768D01*
G01X34591Y47742D01*
G01X34603Y47698D01*
G01X34622Y47638D01*
G01X34649Y47568D01*
G01X34679Y47490D01*
G01X34713Y47410D01*
G01X34748Y47330D01*
G01X34783Y47255D01*
G01X34815Y47189D01*
G01X34844Y47136D01*
G01X34867Y47099D01*
G01X34883Y47082D01*
G01X34918Y47077D01*
G01X34996Y47067D01*
G01X35105Y47055D01*
G01X35235Y47042D01*
G01X35364Y47029D01*
G01X35473Y47017D01*
G01X35550Y47009D01*
G01X35585Y47004D01*
G01X35598Y46997D01*
G01X35596Y46990D01*
G01X35575Y46981D01*
G01X35534Y46970D01*
G01X35471Y46957D01*
G01X35384Y46941D01*
G01X35271Y46922D01*
G01X35130Y46900D01*
G01X35039Y46886D01*
G01X34953Y46872D01*
G01X34874Y46859D01*
G01X34803Y46848D01*
G01X34743Y46838D01*
G01X34695Y46829D01*
G01X34662Y46824D01*
G01X34646Y46821D01*
G01X34608Y46802D01*
G01X34592Y46764D01*
G01X34597Y46705D01*
G01X34625Y46616D01*
G01X34652Y46546D01*
G01X34678Y46479D01*
G01X34704Y46419D01*
G01X34729Y46365D01*
G01X34752Y46319D01*
G01X34772Y46284D01*
G01X34788Y46260D01*
G01X34801Y46249D01*
G01X34812Y46248D01*
G01X34830Y46251D01*
G01X34856Y46257D01*
G01X34891Y46266D01*
G01X34933Y46279D01*
G01X34982Y46294D01*
G01X35102Y46334D01*
G01X35173Y46359D01*
G01X35251Y46387D01*
G01X35335Y46417D01*
G01X35425Y46450D01*
G01X35549Y46494D01*
G01X35630Y46516D01*
G01X35669Y46517D01*
G01X35670Y46497D01*
G01X35642Y46475D01*
G01X35575Y46428D01*
G01X35478Y46361D01*
G01X35361Y46282D01*
G01X35300Y46242D01*
G01X35243Y46203D01*
G01X35141Y46135D01*
G01X35101Y46107D01*
G01X35069Y46084D01*
G01X35046Y46068D01*
G01X35035Y46059D01*
G01X35007Y46020D01*
G01X35014Y45971D01*
G01X35062Y45903D01*
G01X35155Y45806D01*
G01X35217Y45746D01*
G01X35269Y45701D01*
G01X35309Y45671D01*
G01X35332Y45661D01*
G01X35341Y45664D01*
G01X35356Y45672D01*
G01X35376Y45687D01*
G01X35400Y45707D01*
G01X35431Y45734D01*
G01X35468Y45767D01*
G01X35510Y45807D01*
G01X35559Y45853D01*
G01X35614Y45906D01*
G01X35675Y45966D01*
G01X35743Y46033D01*
G01X35818Y46108D01*
G01X35857Y46146D01*
G01X35883Y46165D01*
G01X35900Y46169D01*
G01X35914Y46161D01*
G01X35920Y46141D01*
G01X35908Y46097D01*
G01X35873Y46016D01*
G01X35808Y45882D01*
G01X35756Y45776D01*
G01X35718Y45697D01*
G01X35692Y45639D01*
G01X35676Y45599D01*
G01X35670Y45572D01*
G01X35671Y45553D01*
G01X35679Y45539D01*
G01X35692Y45525D01*
G01X35713Y45509D01*
G01X35747Y45499D01*
G01X35805Y45495D01*
G01X35901Y45494D01*
G01X35973Y45495D01*
G01X36037Y45496D01*
G01X36084Y45500D01*
G01X36110Y45503D01*
G01X36122Y45508D01*
G01X36133Y45517D01*
G01X36146Y45535D01*
G01X36161Y45564D01*
G01X36180Y45607D01*
G01X36205Y45667D01*
G01X36238Y45747D01*
G01X36278Y45851D01*
G01X36309Y45927D01*
G01X36341Y45998D01*
G01X36370Y46056D01*
G01X36393Y46094D01*
G01X36426Y46152D01*
G01X36444Y46211D01*
G01X36448Y46269D01*
G01X36437Y46328D01*
G01X36411Y46386D01*
G01X36370Y46444D01*
G01X36315Y46502D01*
G01X36245Y46560D01*
G01X36204Y46592D01*
G01X36168Y46625D01*
G01X36136Y46661D01*
G01X36108Y46698D01*
G01X36083Y46738D01*
G01X36063Y46781D01*
G01X36046Y46826D01*
G01X36032Y46875D01*
G01X36022Y46928D01*
G01X36015Y46985D01*
G01X36011Y47046D01*
G01X36009Y47112D01*
G01X36011Y47186D01*
G01X36015Y47257D01*
G01X36022Y47328D01*
G01X36032Y47400D01*
G01X36046Y47474D01*
G01X36063Y47551D01*
G01X36085Y47632D01*
G01X36110Y47718D01*
G01X36145Y47837D01*
G01X36160Y47903D01*
G01X36157Y47939D01*
G01X36140Y47962D01*
G37*

%LPC*%
G36*
G01X36129Y46021D02*
G01X36103Y46026D01*
G01X36085Y46017D01*
G01X36062Y45988D01*
G01X36031Y45937D01*
G01X35990Y45860D01*
G01X35957Y45794D01*
G01X35930Y45738D01*
G01X35912Y45697D01*
G01X35905Y45677D01*
G01X35910Y45671D01*
G01X35923Y45666D01*
G01X35942Y45663D01*
G01X35964Y45661D01*
G01X35998Y45663D01*
G01X36018Y45671D01*
G01X36032Y45690D01*
G01X36047Y45726D01*
G01X36058Y45759D01*
G01X36074Y45802D01*
G01X36091Y45850D01*
G01X36108Y45895D01*
G01X36131Y45962D01*
G01X36138Y46002D01*
G01X36129Y46021D01*
G37*
G36*
G01X35767Y46325D02*
G01X35763Y46329D01*
G01X35749Y46326D01*
G01X35722Y46310D01*
G01X35661Y46272D01*
G01X35576Y46217D01*
G01X35476Y46152D01*
G01X35222Y45986D01*
G01X35336Y45874D01*
G01X35552Y46091D01*
G01X35620Y46159D01*
G01X35675Y46215D01*
G01X35715Y46258D01*
G01X35744Y46291D01*
G01X35761Y46313D01*
G01X35767Y46325D01*
G37*
G36*
G01X35834Y47097D02*
G01X35825Y47249D01*
G01X35803Y47173D01*
G01X35794Y47130D01*
G01X35786Y47069D01*
G01X35781Y46998D01*
G01X35778Y46922D01*
G01X35778Y46852D01*
G01X35781Y46789D01*
G01X35788Y46734D01*
G01X35798Y46684D01*
G01X35812Y46635D01*
G01X35831Y46587D01*
G01X35855Y46537D01*
G01X35886Y46483D01*
G01X35912Y46441D01*
G01X35944Y46398D01*
G01X35980Y46354D01*
G01X36017Y46311D01*
G01X36055Y46273D01*
G01X36091Y46239D01*
G01X36124Y46212D01*
G01X36153Y46193D01*
G01X36177Y46183D01*
G01X36196Y46179D01*
G01X36214Y46183D01*
G01X36237Y46194D01*
G01X36256Y46208D01*
G01X36268Y46222D01*
G01X36274Y46240D01*
G01X36274Y46263D01*
G01X36269Y46292D01*
G01X36244Y46326D01*
G01X36182Y46384D01*
G01X36066Y46487D01*
G01X36024Y46527D01*
G01X35989Y46568D01*
G01X35957Y46615D01*
G01X35928Y46669D01*
G01X35907Y46714D01*
G01X35890Y46757D01*
G01X35875Y46801D01*
G01X35864Y46847D01*
G01X35854Y46898D01*
G01X35847Y46955D01*
G01X35840Y47021D01*
G01X35834Y47097D01*
G37*
G36*
G01X35590Y46789D02*
G01X35575Y46796D01*
G01X35549Y46793D01*
G01X35536Y46790D01*
G01X35510Y46786D01*
G01X35472Y46780D01*
G01X35425Y46772D01*
G01X35370Y46763D01*
G01X35308Y46754D01*
G01X35240Y46744D01*
G01X35170Y46732D01*
G01X35034Y46712D01*
G01X34920Y46695D01*
G01X34840Y46684D01*
G01X34807Y46679D01*
G01X34799Y46670D01*
G01X34803Y46641D01*
G01X34819Y46592D01*
G01X34848Y46523D01*
G01X34886Y46437D01*
G01X34981Y46472D01*
G01X35039Y46494D01*
G01X35126Y46525D01*
G01X35230Y46563D01*
G01X35339Y46603D01*
G01X35485Y46658D01*
G01X35564Y46692D01*
G01X35595Y46716D01*
G01X35601Y46740D01*
G01X35599Y46771D01*
G01X35590Y46789D01*
G37*
G36*
G01X34863Y47557D02*
G01X34852Y47560D01*
G01X34848Y47559D01*
G01X34845Y47557D01*
G01X34843Y47554D01*
G01X34842Y47549D01*
G01X34847Y47534D01*
G01X34862Y47499D01*
G01X34882Y47451D01*
G01X34907Y47395D01*
G01X34940Y47324D01*
G01X34965Y47278D01*
G01X34987Y47253D01*
G01X35009Y47241D01*
G01X35045Y47235D01*
G01X35115Y47226D01*
G01X35208Y47216D01*
G01X35316Y47204D01*
G01X35405Y47196D01*
G01X35478Y47190D01*
G01X35537Y47187D01*
G01X35581Y47186D01*
G01X35612Y47189D01*
G01X35629Y47194D01*
G01X35632Y47203D01*
G01X35622Y47216D01*
G01X35599Y47231D01*
G01X35563Y47251D01*
G01X35514Y47275D01*
G01X35454Y47303D01*
G01X35392Y47331D01*
G01X35328Y47359D01*
G01X35262Y47389D01*
G01X35195Y47417D01*
G01X35131Y47446D01*
G01X35069Y47472D01*
G01X35013Y47496D01*
G01X34962Y47517D01*
G01X34919Y47535D01*
G01X34885Y47549D01*
G01X34863Y47557D01*
G37*

%LPD*%
G36*
G01X38124Y47972D02*
G01X38091Y47984D01*
G01X38058Y47982D01*
G01X38024Y47965D01*
G01X38008Y47950D01*
G01X38003Y47929D01*
G01X38010Y47889D01*
G01X38029Y47817D01*
G01X38058Y47709D01*
G01X38084Y47612D01*
G01X38105Y47524D01*
G01X38123Y47446D01*
G01X38137Y47375D01*
G01X38148Y47310D01*
G01X38156Y47251D01*
G01X38161Y47195D01*
G01X38164Y47143D01*
G01X38163Y47094D01*
G01X38160Y47045D01*
G01X38155Y46997D01*
G01X38143Y46917D01*
G01X38127Y46849D01*
G01X38106Y46788D01*
G01X38077Y46733D01*
G01X38039Y46679D01*
G01X37990Y46624D01*
G01X37927Y46564D01*
G01X37851Y46497D01*
G01X37801Y46451D01*
G01X37763Y46402D01*
G01X37736Y46351D01*
G01X37721Y46301D01*
G01X37716Y46249D01*
G01X37723Y46198D01*
G01X37741Y46147D01*
G01X37771Y46096D01*
G01X37795Y46056D01*
G01X37826Y45993D01*
G01X37860Y45917D01*
G01X37894Y45835D01*
G01X37925Y45754D01*
G01X37955Y45678D01*
G01X37980Y45615D01*
G01X37996Y45575D01*
G01X38009Y45548D01*
G01X38023Y45526D01*
G01X38038Y45511D01*
G01X38053Y45503D01*
G01X38080Y45500D01*
G01X38129Y45497D01*
G01X38192Y45495D01*
G01X38265Y45494D01*
G01X38361Y45495D01*
G01X38419Y45499D01*
G01X38452Y45509D01*
G01X38474Y45525D01*
G01X38487Y45539D01*
G01X38495Y45552D01*
G01X38496Y45571D01*
G01X38490Y45599D01*
G01X38474Y45639D01*
G01X38447Y45697D01*
G01X38409Y45776D01*
G01X38358Y45882D01*
G01X38294Y46014D01*
G01X38258Y46096D01*
G01X38246Y46140D01*
G01X38252Y46160D01*
G01X38268Y46165D01*
G01X38297Y46150D01*
G01X38346Y46107D01*
G01X38425Y46031D01*
G01X38531Y45926D01*
G01X38617Y45842D01*
G01X38685Y45778D01*
G01X38737Y45730D01*
G01X38775Y45696D01*
G01X38802Y45675D01*
G01X38821Y45664D01*
G01X38834Y45661D01*
G01X38857Y45672D01*
G01X38897Y45703D01*
G01X38950Y45749D01*
G01X39011Y45808D01*
G01X39060Y45856D01*
G01X39099Y45896D01*
G01X39128Y45930D01*
G01X39147Y45959D01*
G01X39155Y45987D01*
G01X39150Y46014D01*
G01X39132Y46042D01*
G01X39100Y46074D01*
G01X39054Y46110D01*
G01X38992Y46154D01*
G01X38914Y46206D01*
G01X38820Y46269D01*
G01X38753Y46313D01*
G01X38692Y46356D01*
G01X38636Y46395D01*
G01X38588Y46429D01*
G01X38549Y46458D01*
G01X38519Y46482D01*
G01X38500Y46497D01*
G01X38495Y46504D01*
G01X38500Y46512D01*
G01X38514Y46516D01*
G01X38536Y46514D01*
G01X38570Y46505D01*
G01X38618Y46491D01*
G01X38682Y46470D01*
G01X38764Y46441D01*
G01X38868Y46404D01*
G01X39010Y46352D01*
G01X39121Y46313D01*
G01X39204Y46284D01*
G01X39265Y46265D01*
G01X39309Y46253D01*
G01X39337Y46248D01*
G01X39356Y46249D01*
G01X39370Y46253D01*
G01X39381Y46264D01*
G01X39395Y46285D01*
G01X39413Y46316D01*
G01X39433Y46359D01*
G01X39457Y46411D01*
G01X39483Y46474D01*
G01X39513Y46547D01*
G01X39545Y46630D01*
G01X39566Y46686D01*
G01X39576Y46726D01*
G01X39578Y46754D01*
G01X39571Y46776D01*
G01X39565Y46791D01*
G01X39555Y46803D01*
G01X39536Y46813D01*
G01X39499Y46823D01*
G01X39438Y46835D01*
G01X39345Y46851D01*
G01X39213Y46872D01*
G01X39036Y46900D01*
G01X38895Y46922D01*
G01X38782Y46941D01*
G01X38694Y46957D01*
G01X38631Y46970D01*
G01X38591Y46981D01*
G01X38570Y46990D01*
G01X38567Y46997D01*
G01X38581Y47004D01*
G01X38616Y47009D01*
G01X38693Y47018D01*
G01X38803Y47030D01*
G01X38932Y47042D01*
G01X39062Y47056D01*
G01X39171Y47068D01*
G01X39249Y47077D01*
G01X39284Y47083D01*
G01X39296Y47097D01*
G01X39317Y47129D01*
G01X39343Y47177D01*
G01X39374Y47240D01*
G01X39409Y47314D01*
G01X39446Y47396D01*
G01X39484Y47486D01*
G01X39522Y47579D01*
G01X39556Y47665D01*
G01X39574Y47720D01*
G01X39578Y47755D01*
G01X39571Y47780D01*
G01X39561Y47797D01*
G01X39549Y47809D01*
G01X39534Y47817D01*
G01X39518Y47819D01*
G01X39504Y47818D01*
G01X39483Y47812D01*
G01X39454Y47803D01*
G01X39418Y47790D01*
G01X39373Y47773D01*
G01X39321Y47753D01*
G01X39259Y47728D01*
G01X39190Y47699D01*
G01X39110Y47666D01*
G01X39022Y47628D01*
G01X38924Y47586D01*
G01X38817Y47539D01*
G01X38687Y47483D01*
G01X38581Y47438D01*
G01X38508Y47408D01*
G01X38481Y47397D01*
G01X38460Y47439D01*
G01X38439Y47482D01*
G01X38414Y47535D01*
G01X38385Y47591D01*
G01X38352Y47651D01*
G01X38317Y47711D01*
G01X38282Y47770D01*
G01X38247Y47825D01*
G01X38213Y47873D01*
G01X38183Y47914D01*
G01X38157Y47945D01*
G01X38124Y47972D01*
G37*

%LPC*%
G36*
G01X38083Y46017D02*
G01X38065Y46026D01*
G01X38054Y46025D01*
G01X38043Y46023D01*
G01X38034Y46020D01*
G01X38029Y46017D01*
G01X38026Y46002D01*
G01X38034Y45966D01*
G01X38057Y45897D01*
G01X38098Y45787D01*
G01X38125Y45715D01*
G01X38145Y45678D01*
G01X38165Y45664D01*
G01X38194Y45661D01*
G01X38214Y45662D01*
G01X38232Y45665D01*
G01X38245Y45670D01*
G01X38252Y45676D01*
G01X38249Y45695D01*
G01X38234Y45735D01*
G01X38209Y45792D01*
G01X38177Y45858D01*
G01X38137Y45935D01*
G01X38106Y45988D01*
G01X38083Y46017D01*
G37*
G36*
G01X38443Y46310D02*
G01X38405Y46327D01*
G01X38398Y46318D01*
G01X38414Y46297D01*
G01X38461Y46246D01*
G01X38530Y46175D01*
G01X38832Y45873D01*
G01X38887Y45931D01*
G01X38943Y45988D01*
G01X38682Y46158D01*
G01X38528Y46257D01*
G01X38443Y46310D01*
G37*
G36*
G01X38367Y47151D02*
G01X38345Y47249D01*
G01X38335Y47166D01*
G01X38331Y47126D01*
G01X38327Y47079D01*
G01X38325Y47032D01*
G01X38323Y46990D01*
G01X38316Y46909D01*
G01X38299Y46826D01*
G01X38272Y46742D01*
G01X38236Y46660D01*
G01X38220Y46632D01*
G01X38202Y46604D01*
G01X38178Y46574D01*
G01X38149Y46541D01*
G01X38115Y46505D01*
G01X38073Y46465D01*
G01X38024Y46419D01*
G01X37966Y46367D01*
G01X37930Y46333D01*
G01X37903Y46302D01*
G01X37887Y46277D01*
G01X37881Y46257D01*
G01X37891Y46226D01*
G01X37918Y46201D01*
G01X37952Y46185D01*
G01X37986Y46185D01*
G01X38030Y46207D01*
G01X38080Y46243D01*
G01X38132Y46293D01*
G01X38184Y46352D01*
G01X38235Y46417D01*
G01X38281Y46488D01*
G01X38321Y46559D01*
G01X38352Y46629D01*
G01X38367Y46677D01*
G01X38377Y46736D01*
G01X38385Y46803D01*
G01X38389Y46874D01*
G01X38389Y46948D01*
G01X38386Y47020D01*
G01X38378Y47089D01*
G01X38367Y47151D01*
G37*
G36*
G01X38679Y46786D02*
G01X38624Y46795D01*
G01X38591Y46792D01*
G01X38574Y46777D01*
G01X38568Y46747D01*
G01X38563Y46700D01*
G01X38795Y46615D01*
G01X38896Y46578D01*
G01X38996Y46541D01*
G01X39086Y46508D01*
G01X39152Y46484D01*
G01X39276Y46438D01*
G01X39323Y46541D01*
G01X39341Y46582D01*
G01X39356Y46618D01*
G01X39366Y46645D01*
G01X39370Y46659D01*
G01X39345Y46668D01*
G01X39278Y46684D01*
G01X39177Y46703D01*
G01X39055Y46724D01*
G01X38990Y46734D01*
G01X38928Y46745D01*
G01X38868Y46754D01*
G01X38814Y46763D01*
G01X38767Y46771D01*
G01X38727Y46778D01*
G01X38679Y46786D01*
G37*
G36*
G01X39324Y47557D02*
G01X39311Y47558D01*
G01X39267Y47543D01*
G01X39188Y47511D01*
G01X39066Y47458D01*
G01X38913Y47391D01*
G01X38791Y47337D01*
G01X38698Y47295D01*
G01X38629Y47263D01*
G01X38583Y47239D01*
G01X38553Y47222D01*
G01X38538Y47209D01*
G01X38534Y47200D01*
G01X38539Y47189D01*
G01X38560Y47183D01*
G01X38602Y47183D01*
G01X38675Y47188D01*
G01X38762Y47195D01*
G01X38850Y47203D01*
G01X38935Y47213D01*
G01X39013Y47222D01*
G01X39081Y47231D01*
G01X39136Y47239D01*
G01X39173Y47247D01*
G01X39189Y47253D01*
G01X39215Y47303D01*
G01X39261Y47404D01*
G01X39305Y47505D01*
G01X39324Y47557D01*
G37*

%LPD*%
G36*
G01X36567Y45457D02*
G01X36531Y45491D01*
G01X36486Y45489D01*
G01X36419Y45445D01*
G01X36320Y45354D01*
G01X36229Y45259D01*
G01X36180Y45195D01*
G01X36168Y45150D01*
G01X36187Y45113D01*
G01X36225Y45086D01*
G01X36270Y45092D01*
G01X36335Y45135D01*
G01X36430Y45222D01*
G01X36486Y45278D01*
G01X36533Y45329D01*
G01X36567Y45368D01*
G01X36582Y45390D01*
G01X36584Y45405D01*
G01X36582Y45422D01*
G01X36576Y45440D01*
G01X36567Y45457D01*
G37*

%LPD*%
G36*
G01X37713Y45479D02*
G01X37664Y45491D01*
G01X37617Y45475D01*
G01X37586Y45438D01*
G01X37584Y45389D01*
G01X37601Y45362D01*
G01X37637Y45320D01*
G01X37686Y45270D01*
G01X37742Y45218D01*
G01X37798Y45167D01*
G01X37851Y45124D01*
G01X37892Y45095D01*
G01X37917Y45083D01*
G01X37951Y45092D01*
G01X37979Y45114D01*
G01X37996Y45145D01*
G01X37997Y45178D01*
G01X37985Y45199D01*
G01X37957Y45233D01*
G01X37918Y45278D01*
G01X37872Y45328D01*
G01X37825Y45377D01*
G01X37779Y45422D01*
G01X37741Y45458D01*
G01X37713Y45479D01*
G37*

%LPD*%
G36*
G01X38052Y45004D02*
G01X38041Y45006D01*
G01X37987Y45002D01*
G01X37906Y44987D01*
G01X37822Y44966D01*
G01X37756Y44944D01*
G01X37697Y44911D01*
G01X37648Y44871D01*
G01X37611Y44826D01*
G01X37588Y44781D01*
G01X37580Y44740D01*
G01X37588Y44705D01*
G01X37614Y44682D01*
G01X37659Y44673D01*
G01X37685Y44676D01*
G01X37708Y44685D01*
G01X37730Y44702D01*
G01X37755Y44731D01*
G01X37779Y44757D01*
G01X37805Y44779D01*
G01X37833Y44795D01*
G01X37862Y44807D01*
G01X37927Y44819D01*
G01X38012Y44824D01*
G01X38093Y44824D01*
G01X38145Y44816D01*
G01X38165Y44799D01*
G01X38167Y44769D01*
G01X38152Y44722D01*
G01X38120Y44658D01*
G01X38093Y44607D01*
G01X38081Y44577D01*
G01X38084Y44558D01*
G01X38100Y44538D01*
G01X38136Y44512D01*
G01X38175Y44506D01*
G01X38215Y44521D01*
G01X38252Y44556D01*
G01X38290Y44615D01*
G01X38316Y44674D01*
G01X38332Y44733D01*
G01X38336Y44790D01*
G01X38330Y44842D01*
G01X38312Y44888D01*
G01X38283Y44927D01*
G01X38243Y44956D01*
G01X38219Y44966D01*
G01X38189Y44977D01*
G01X38156Y44985D01*
G01X38125Y44992D01*
G01X38097Y44997D01*
G01X38072Y45001D01*
G01X38052Y45004D01*
G37*

%LPD*%
G36*
G01X36272Y44985D02*
G01X36210Y44989D01*
G01X36132Y44988D01*
G01X36042Y44985D01*
G01X35987Y44979D01*
G01X35950Y44966D01*
G01X35916Y44943D01*
G01X35870Y44898D01*
G01X35843Y44845D01*
G01X35834Y44783D01*
G01X35843Y44710D01*
G01X35854Y44674D01*
G01X35869Y44635D01*
G01X35887Y44598D01*
G01X35906Y44568D01*
G01X35931Y44536D01*
G01X35952Y44518D01*
G01X35975Y44508D01*
G01X36003Y44506D01*
G01X36029Y44508D01*
G01X36048Y44514D01*
G01X36062Y44524D01*
G01X36074Y44539D01*
G01X36081Y44560D01*
G01X36079Y44585D01*
G01X36066Y44621D01*
G01X36041Y44675D01*
G01X36008Y44755D01*
G01X36009Y44801D01*
G01X36050Y44820D01*
G01X36139Y44825D01*
G01X36238Y44821D01*
G01X36310Y44806D01*
G01X36364Y44778D01*
G01X36409Y44733D01*
G01X36435Y44704D01*
G01X36458Y44685D01*
G01X36481Y44676D01*
G01X36507Y44673D01*
G01X36531Y44675D01*
G01X36550Y44681D01*
G01X36564Y44690D01*
G01X36574Y44705D01*
G01X36583Y44736D01*
G01X36579Y44771D01*
G01X36563Y44809D01*
G01X36538Y44847D01*
G01X36504Y44883D01*
G01X36463Y44916D01*
G01X36416Y44945D01*
G01X36365Y44967D01*
G01X36323Y44979D01*
G01X36272Y44985D01*
G37*

%LPD*%
G36*
G01X37089Y46670D02*
G01X37081Y46673D01*
G01X37075Y46669D01*
G01X37068Y46657D01*
G01X37054Y46628D01*
G01X37032Y46583D01*
G01X37005Y46525D01*
G01X36973Y46455D01*
G01X36937Y46375D01*
G01X36897Y46288D01*
G01X36855Y46194D01*
G01X36813Y46102D01*
G01X36777Y46021D01*
G01X36746Y45953D01*
G01X36721Y45895D01*
G01X36701Y45846D01*
G01X36687Y45805D01*
G01X36678Y45771D01*
G01X36675Y45743D01*
G01X36677Y45720D01*
G01X36685Y45698D01*
G01X36698Y45679D01*
G01X36716Y45661D01*
G01X36740Y45641D01*
G01X36770Y45620D01*
G01X36804Y45596D01*
G01X36844Y45567D01*
G01X36984Y45462D01*
G01X36984Y45356D01*
G01X36983Y45295D01*
G01X36979Y45264D01*
G01X36966Y45253D01*
G01X36942Y45251D01*
G01X36923Y45249D01*
G01X36902Y45244D01*
G01X36882Y45236D01*
G01X36866Y45227D01*
G01X36847Y45209D01*
G01X36837Y45177D01*
G01X36833Y45114D01*
G01X36832Y45001D01*
G01X36832Y44797D01*
G01X36913Y44562D01*
G01X36945Y44471D01*
G01X36971Y44399D01*
G01X36994Y44344D01*
G01X37013Y44304D01*
G01X37030Y44276D01*
G01X37047Y44259D01*
G01X37064Y44250D01*
G01X37083Y44248D01*
G01X37102Y44250D01*
G01X37119Y44258D01*
G01X37135Y44276D01*
G01X37153Y44303D01*
G01X37172Y44344D01*
G01X37194Y44399D01*
G01X37220Y44471D01*
G01X37252Y44563D01*
G01X37333Y44802D01*
G01X37333Y45115D01*
G01X37329Y45178D01*
G01X37319Y45209D01*
G01X37300Y45227D01*
G01X37283Y45236D01*
G01X37264Y45244D01*
G01X37243Y45249D01*
G01X37224Y45251D01*
G01X37199Y45253D01*
G01X37187Y45264D01*
G01X37183Y45295D01*
G01X37182Y45355D01*
G01X37182Y45460D01*
G01X37269Y45525D01*
G01X37309Y45555D01*
G01X37354Y45590D01*
G01X37398Y45626D01*
G01X37435Y45656D01*
G01X37514Y45723D01*
G01X37472Y45825D01*
G01X37459Y45855D01*
G01X37442Y45895D01*
G01X37420Y45945D01*
G01X37395Y46002D01*
G01X37367Y46065D01*
G01X37338Y46132D01*
G01X37276Y46272D01*
G01X37245Y46341D01*
G01X37215Y46407D01*
G01X37188Y46469D01*
G01X37162Y46525D01*
G01X37141Y46573D01*
G01X37123Y46612D01*
G01X37110Y46639D01*
G01X37103Y46653D01*
G01X37096Y46664D01*
G01X37089Y46670D01*
G37*

%LPC*%
G36*
G01X37166Y45068D02*
G01X36999Y45068D01*
G01X36999Y44966D01*
G01X37009Y44870D01*
G01X37032Y44761D01*
G01X37060Y44672D01*
G01X37084Y44638D01*
G01X37108Y44678D01*
G01X37135Y44766D01*
G01X37157Y44873D01*
G01X37166Y44966D01*
G01X37166Y45068D01*
G37*
G36*
G01X37090Y46246D02*
G01X37083Y46254D01*
G01X37075Y46245D01*
G01X37062Y46221D01*
G01X37043Y46186D01*
G01X37023Y46144D01*
G01X36999Y46091D01*
G01X36973Y46032D01*
G01X36946Y45972D01*
G01X36920Y45914D01*
G01X36898Y45861D01*
G01X36879Y45818D01*
G01X36867Y45789D01*
G01X36863Y45776D01*
G01X36895Y45747D01*
G01X36968Y45692D01*
G01X37043Y45639D01*
G01X37083Y45615D01*
G01X37123Y45639D01*
G01X37198Y45692D01*
G01X37270Y45747D01*
G01X37303Y45776D01*
G01X37289Y45811D01*
G01X37273Y45849D01*
G01X37252Y45897D01*
G01X37227Y45954D01*
G01X37199Y46016D01*
G01X37169Y46083D01*
G01X37138Y46151D01*
G01X37120Y46191D01*
G01X37103Y46223D01*
G01X37090Y46246D01*
G37*

%LPD*%
G54D11*
G01X17145Y38735D02*
G01X17145Y35179D01*
G54D32*
G01X26369Y6585D02*
G01X25049Y6585D01*
G01X25049Y8655D01*
G01X26369Y8655D01*
G01X27501Y6585D02*
G01X28821Y6585D01*
G01X28821Y8655D01*
G01X27501Y8655D01*
G54D33*
G01X29742Y20384D02*
G01X29742Y10195D01*
G01X25442Y10195D01*
G01X25442Y20384D01*
G01X29742Y20384D01*
G54D32*
G01X25607Y21824D02*
G01X24286Y21824D01*
G01X24286Y23895D01*
G01X25607Y23895D01*
G01X26739Y21824D02*
G01X28059Y21824D01*
G01X28059Y23895D01*
G01X26739Y23895D01*
G54D33*
G01X29742Y35497D02*
G01X29742Y25308D01*
G01X25442Y25308D01*
G01X25442Y35497D01*
G01X29742Y35497D01*
G54D32*
G01X26369Y37064D02*
G01X25048Y37064D01*
G01X25048Y39135D01*
G01X26369Y39135D01*
G01X27501Y37064D02*
G01X28821Y37064D01*
G01X28821Y39135D01*
G01X27501Y39135D01*
G54D33*
G01X29741Y50737D02*
G01X29741Y40547D01*
G01X25441Y40547D01*
G01X25441Y50737D01*
G01X29741Y50737D01*
G54D32*
G01X14016Y30118D02*
G01X15337Y30118D01*
G01X15337Y28047D01*
G01X14016Y28047D01*
G01X12884Y30118D02*
G01X11564Y30118D01*
G01X11564Y28047D01*
G01X12884Y28047D01*
G54D10*
G01X11303Y34417D02*
G01X11938Y34417D01*
G01X11938Y54610D01*
G01X8255Y54610D01*
G01X8255Y34417D01*
G01X11303Y34417D01*
G54D36*
G01X14600Y1962D02*
G01X14635Y2030D01*
G01X14737Y2063D01*
G01X14838Y2063D01*
G01X14940Y2030D01*
G01X14975Y1962D01*
G01X14940Y1893D01*
G01X14874Y1860D01*
G01X14704Y1825D01*
G01X14635Y1792D01*
G01X14600Y1723D01*
G01X14600Y1687D01*
G01X14635Y1621D01*
G01X14737Y1586D01*
G01X14838Y1586D01*
G01X14940Y1621D01*
G01X14975Y1687D01*
G01X14206Y2063D02*
G01X14272Y2030D01*
G01X14340Y1962D01*
G01X14376Y1860D01*
G01X14376Y1792D01*
G01X14340Y1687D01*
G01X14272Y1621D01*
G01X14206Y1586D01*
G01X14102Y1586D01*
G01X14033Y1621D01*
G01X13967Y1687D01*
G01X13932Y1792D01*
G01X13932Y1860D01*
G01X13967Y1962D01*
G01X14033Y2030D01*
G01X14102Y2063D01*
G01X14206Y2063D01*
G01X13434Y2302D02*
G01X13502Y2302D01*
G01X13571Y2269D01*
G01X13604Y2165D01*
G01X13604Y1586D01*
G01X13708Y2063D02*
G01X13469Y2063D01*
G01X13106Y2302D02*
G01X13106Y1723D01*
G01X13073Y1621D01*
G01X13004Y1586D01*
G01X12936Y1586D01*
G01X13210Y2063D02*
G01X12971Y2063D01*
G01X12712Y2063D02*
G01X12575Y1586D01*
G01X12438Y2063D02*
G01X12575Y1586D01*
G01X12438Y2063D02*
G01X12303Y1586D01*
G01X12166Y2063D02*
G01X12303Y1586D01*
G01X11531Y2063D02*
G01X11531Y1586D01*
G01X11531Y1962D02*
G01X11600Y2030D01*
G01X11668Y2063D01*
G01X11770Y2063D01*
G01X11839Y2030D01*
G01X11907Y1962D01*
G01X11940Y1860D01*
G01X11940Y1792D01*
G01X11907Y1687D01*
G01X11839Y1621D01*
G01X11770Y1586D01*
G01X11668Y1586D01*
G01X11600Y1621D01*
G01X11531Y1687D01*
G01X11308Y2063D02*
G01X11308Y1586D01*
G01X11308Y1860D02*
G01X11272Y1962D01*
G01X11204Y2030D01*
G01X11138Y2063D01*
G01X11033Y2063D01*
G01X10810Y1860D02*
G01X10401Y1860D01*
G01X10401Y1926D01*
G01X10434Y1995D01*
G01X10470Y2030D01*
G01X10536Y2063D01*
G01X10640Y2063D01*
G01X10708Y2030D01*
G01X10774Y1962D01*
G01X10810Y1860D01*
G01X10810Y1792D01*
G01X10774Y1687D01*
G01X10708Y1621D01*
G01X10640Y1586D01*
G01X10536Y1586D01*
G01X10470Y1621D01*
G01X10401Y1687D01*
G01X15720Y3011D02*
G01X15788Y2978D01*
G01X15854Y2909D01*
G01X15890Y2808D01*
G01X15890Y2739D01*
G01X15854Y2635D01*
G01X15788Y2569D01*
G01X15720Y2534D01*
G01X15618Y2534D01*
G01X15550Y2569D01*
G01X15481Y2635D01*
G01X15445Y2739D01*
G01X15445Y2808D01*
G01X15481Y2909D01*
G01X15550Y2978D01*
G01X15618Y3011D01*
G01X15720Y3011D01*
G01X15222Y3011D02*
G01X15222Y2295D01*
G01X15222Y2909D02*
G01X15153Y2978D01*
G01X15085Y3011D01*
G01X14983Y3011D01*
G01X14915Y2978D01*
G01X14846Y2909D01*
G01X14813Y2808D01*
G01X14813Y2739D01*
G01X14846Y2635D01*
G01X14915Y2569D01*
G01X14983Y2534D01*
G01X15085Y2534D01*
G01X15153Y2569D01*
G01X15222Y2635D01*
G01X14587Y2808D02*
G01X14178Y2808D01*
G01X14178Y2874D01*
G01X14213Y2942D01*
G01X14247Y2978D01*
G01X14315Y3011D01*
G01X14417Y3011D01*
G01X14485Y2978D01*
G01X14554Y2909D01*
G01X14587Y2808D01*
G01X14587Y2739D01*
G01X14554Y2635D01*
G01X14485Y2569D01*
G01X14417Y2534D01*
G01X14315Y2534D01*
G01X14247Y2569D01*
G01X14178Y2635D01*
G01X13954Y3011D02*
G01X13954Y2534D01*
G01X13954Y2874D02*
G01X13850Y2978D01*
G01X13782Y3011D01*
G01X13680Y3011D01*
G01X13612Y2978D01*
G01X13578Y2874D01*
G01X13578Y2534D01*
G01X12453Y2909D02*
G01X12486Y2978D01*
G01X12590Y3011D01*
G01X12692Y3011D01*
G01X12794Y2978D01*
G01X12829Y2909D01*
G01X12794Y2841D01*
G01X12725Y2808D01*
G01X12555Y2772D01*
G01X12486Y2739D01*
G01X12453Y2671D01*
G01X12453Y2635D01*
G01X12486Y2569D01*
G01X12590Y2534D01*
G01X12692Y2534D01*
G01X12794Y2569D01*
G01X12829Y2635D01*
G01X12057Y3011D02*
G01X12126Y2978D01*
G01X12194Y2909D01*
G01X12227Y2808D01*
G01X12227Y2739D01*
G01X12194Y2635D01*
G01X12126Y2569D01*
G01X12057Y2534D01*
G01X11955Y2534D01*
G01X11887Y2569D01*
G01X11818Y2635D01*
G01X11785Y2739D01*
G01X11785Y2808D01*
G01X11818Y2909D01*
G01X11887Y2978D01*
G01X11955Y3011D01*
G01X12057Y3011D01*
G01X11559Y3011D02*
G01X11559Y2671D01*
G01X11526Y2569D01*
G01X11458Y2534D01*
G01X11356Y2534D01*
G01X11287Y2569D01*
G01X11186Y2671D01*
G01X11186Y3011D02*
G01X11186Y2534D01*
G01X10960Y3011D02*
G01X10960Y2534D01*
G01X10960Y2808D02*
G01X10927Y2909D01*
G01X10858Y2978D01*
G01X10790Y3011D01*
G01X10688Y3011D01*
G01X10053Y2909D02*
G01X10122Y2978D01*
G01X10190Y3011D01*
G01X10292Y3011D01*
G01X10360Y2978D01*
G01X10429Y2909D01*
G01X10462Y2808D01*
G01X10462Y2739D01*
G01X10429Y2635D01*
G01X10360Y2569D01*
G01X10292Y2534D01*
G01X10190Y2534D01*
G01X10122Y2569D01*
G01X10053Y2635D01*
G01X9829Y2808D02*
G01X9418Y2808D01*
G01X9418Y2874D01*
G01X9454Y2942D01*
G01X9487Y2978D01*
G01X9555Y3011D01*
G01X9657Y3011D01*
G01X9725Y2978D01*
G01X9794Y2909D01*
G01X9829Y2808D01*
G01X9829Y2739D01*
G01X9794Y2635D01*
G01X9725Y2569D01*
G01X9657Y2534D01*
G01X9555Y2534D01*
G01X9487Y2569D01*
G01X9418Y2635D01*

%LPD*%
G36*
G01X7904Y26797D02*
G01X6731Y26797D01*
G01X6731Y26654D01*
G01X7119Y26611D01*
G01X7121Y26544D01*
G01X7122Y26475D01*
G01X7123Y26407D01*
G01X7124Y26338D01*
G01X7124Y26269D01*
G01X7125Y26200D01*
G01X7125Y26131D01*
G01X7126Y25991D01*
G01X7126Y25921D01*
G01X7127Y25851D01*
G01X7127Y24952D01*
G01X7126Y24884D01*
G01X7126Y24815D01*
G01X7125Y24677D01*
G01X7125Y24608D01*
G01X7124Y24539D01*
G01X7124Y24470D01*
G01X7123Y24401D01*
G01X7121Y24264D01*
G01X7119Y24196D01*
G01X6731Y24150D01*
G01X6731Y24005D01*
G01X7904Y24005D01*
G01X7904Y24150D01*
G01X7515Y24193D01*
G01X7514Y24262D01*
G01X7511Y24467D01*
G01X7510Y24535D01*
G01X7510Y24604D01*
G01X7509Y24673D01*
G01X7509Y24742D01*
G01X7508Y24811D01*
G01X7508Y25989D01*
G01X7509Y26128D01*
G01X7511Y26336D01*
G01X7514Y26543D01*
G01X7515Y26611D01*
G01X7904Y26654D01*
G01X7904Y26797D01*
G37*

%LPD*%
G36*
G01X10325Y26797D02*
G01X9204Y26797D01*
G01X9131Y26795D01*
G01X9060Y26791D01*
G01X8991Y26785D01*
G01X8926Y26777D01*
G01X8863Y26766D01*
G01X8802Y26753D01*
G01X8745Y26737D01*
G01X8690Y26719D01*
G01X8638Y26699D01*
G01X8588Y26678D01*
G01X8542Y26654D01*
G01X8497Y26627D01*
G01X8456Y26599D01*
G01X8417Y26569D01*
G01X8381Y26537D01*
G01X8347Y26504D01*
G01X8317Y26468D01*
G01X8289Y26431D01*
G01X8264Y26392D01*
G01X8241Y26351D01*
G01X8221Y26309D01*
G01X8203Y26265D01*
G01X8189Y26219D01*
G01X8177Y26173D01*
G01X8168Y26124D01*
G01X8161Y26075D01*
G01X8157Y26023D01*
G01X8155Y25971D01*
G01X8156Y25922D01*
G01X8161Y25873D01*
G01X8167Y25825D01*
G01X8176Y25777D01*
G01X8188Y25731D01*
G01X8202Y25686D01*
G01X8220Y25642D01*
G01X8240Y25599D01*
G01X8263Y25557D01*
G01X8290Y25517D01*
G01X8319Y25478D01*
G01X8351Y25441D01*
G01X8386Y25405D01*
G01X8425Y25371D01*
G01X8466Y25339D01*
G01X8512Y25309D01*
G01X8560Y25280D01*
G01X8612Y25254D01*
G01X8667Y25229D01*
G01X8725Y25207D01*
G01X8788Y25188D01*
G01X8853Y25170D01*
G01X8923Y25155D01*
G01X8996Y25143D01*
G01X9073Y25133D01*
G01X9154Y25126D01*
G01X9238Y25122D01*
G01X9326Y25120D01*
G01X9547Y25120D01*
G01X9547Y24718D01*
G01X9546Y24661D01*
G01X9546Y24603D01*
G01X9545Y24546D01*
G01X9544Y24430D01*
G01X9541Y24254D01*
G01X9540Y24196D01*
G01X9144Y24150D01*
G01X9144Y24005D01*
G01X10325Y24005D01*
G01X10325Y24150D01*
G01X9936Y24193D01*
G01X9934Y24262D01*
G01X9931Y24467D01*
G01X9931Y24535D01*
G01X9930Y24604D01*
G01X9930Y24673D01*
G01X9929Y24742D01*
G01X9929Y24879D01*
G01X9928Y24949D01*
G01X9928Y25850D01*
G01X9929Y25920D01*
G01X9929Y25989D01*
G01X9930Y26128D01*
G01X9931Y26336D01*
G01X9934Y26543D01*
G01X9936Y26611D01*
G01X10325Y26654D01*
G01X10325Y26797D01*
G37*

%LPC*%
G36*
G01X9540Y26634D02*
G01X9273Y26634D01*
G01X9200Y26632D01*
G01X9131Y26627D01*
G01X9066Y26618D01*
G01X9006Y26605D01*
G01X8949Y26590D01*
G01X8896Y26571D01*
G01X8847Y26549D01*
G01X8802Y26523D01*
G01X8761Y26494D01*
G01X8723Y26462D01*
G01X8690Y26426D01*
G01X8660Y26388D01*
G01X8633Y26346D01*
G01X8611Y26301D01*
G01X8592Y26253D01*
G01X8577Y26203D01*
G01X8564Y26149D01*
G01X8556Y26092D01*
G01X8551Y26033D01*
G01X8549Y25971D01*
G01X8551Y25912D01*
G01X8556Y25854D01*
G01X8563Y25798D01*
G01X8575Y25745D01*
G01X8590Y25694D01*
G01X8608Y25645D01*
G01X8630Y25599D01*
G01X8656Y25556D01*
G01X8685Y25515D01*
G01X8719Y25478D01*
G01X8756Y25443D01*
G01X8797Y25412D01*
G01X8842Y25384D01*
G01X8892Y25359D01*
G01X8945Y25338D01*
G01X9004Y25320D01*
G01X9066Y25306D01*
G01X9133Y25296D01*
G01X9204Y25290D01*
G01X9281Y25288D01*
G01X9547Y25288D01*
G01X9547Y26000D01*
G01X9546Y26072D01*
G01X9544Y26354D01*
G01X9540Y26634D01*
G37*

%LPD*%
G36*
G01X11871Y26797D02*
G01X10698Y26797D01*
G01X10698Y26654D01*
G01X11087Y26611D01*
G01X11088Y26544D01*
G01X11089Y26475D01*
G01X11090Y26407D01*
G01X11092Y26269D01*
G01X11092Y26200D01*
G01X11093Y26131D01*
G01X11094Y25991D01*
G01X11094Y24815D01*
G01X11093Y24677D01*
G01X11092Y24608D01*
G01X11092Y24539D01*
G01X11090Y24401D01*
G01X11088Y24264D01*
G01X11087Y24196D01*
G01X10698Y24150D01*
G01X10698Y24005D01*
G01X11871Y24005D01*
G01X11871Y24150D01*
G01X11483Y24193D01*
G01X11481Y24262D01*
G01X11478Y24467D01*
G01X11478Y24535D01*
G01X11477Y24604D01*
G01X11477Y24673D01*
G01X11476Y24742D01*
G01X11476Y24879D01*
G01X11475Y24949D01*
G01X11475Y25850D01*
G01X11476Y25920D01*
G01X11476Y25989D01*
G01X11477Y26128D01*
G01X11478Y26336D01*
G01X11481Y26543D01*
G01X11483Y26611D01*
G01X11871Y26654D01*
G01X11871Y26797D01*
G37*

%LPD*%
G36*
G01X14272Y26797D02*
G01X13093Y26797D01*
G01X13093Y26654D01*
G01X13487Y26611D01*
G01X13488Y26543D01*
G01X13492Y26267D01*
G01X13493Y26129D01*
G01X13494Y26059D01*
G01X13494Y25921D01*
G01X13495Y25852D01*
G01X13495Y24919D01*
G01X13494Y24855D01*
G01X13494Y24724D01*
G01X13493Y24658D01*
G01X13492Y24524D01*
G01X13489Y24320D01*
G01X13488Y24251D01*
G01X13487Y24183D01*
G01X12527Y24183D01*
G01X12390Y24790D01*
G01X12171Y24790D01*
G01X12202Y24005D01*
G01X14272Y24005D01*
G01X14272Y24150D01*
G01X13883Y24193D01*
G01X13878Y24538D01*
G01X13876Y24812D01*
G01X13876Y25991D01*
G01X13877Y26131D01*
G01X13878Y26200D01*
G01X13878Y26269D01*
G01X13880Y26407D01*
G01X13881Y26475D01*
G01X13882Y26544D01*
G01X13883Y26611D01*
G01X14272Y26654D01*
G01X14272Y26797D01*
G37*

%LPD*%
G36*
G01X15819Y26797D02*
G01X14645Y26797D01*
G01X14645Y26654D01*
G01X15034Y26611D01*
G01X15035Y26544D01*
G01X15036Y26475D01*
G01X15037Y26407D01*
G01X15039Y26269D01*
G01X15039Y26200D01*
G01X15040Y26131D01*
G01X15041Y25991D01*
G01X15041Y24815D01*
G01X15040Y24677D01*
G01X15039Y24608D01*
G01X15039Y24539D01*
G01X15037Y24401D01*
G01X15035Y24264D01*
G01X15034Y24196D01*
G01X14645Y24150D01*
G01X14645Y24005D01*
G01X15819Y24005D01*
G01X15819Y24150D01*
G01X15430Y24193D01*
G01X15428Y24262D01*
G01X15425Y24467D01*
G01X15425Y24535D01*
G01X15424Y24604D01*
G01X15424Y24673D01*
G01X15423Y24742D01*
G01X15423Y24879D01*
G01X15422Y24949D01*
G01X15422Y25850D01*
G01X15423Y25920D01*
G01X15423Y25989D01*
G01X15424Y26128D01*
G01X15425Y26336D01*
G01X15428Y26543D01*
G01X15430Y26611D01*
G01X15819Y26654D01*
G01X15819Y26797D01*
G37*

%LPD*%
G36*
G01X18404Y26797D02*
G01X16116Y26797D01*
G01X16088Y26055D01*
G01X16291Y26055D01*
G01X16408Y26616D01*
G01X17063Y26616D01*
G01X17065Y26548D01*
G01X17068Y26340D01*
G01X17069Y26132D01*
G01X17070Y25991D01*
G01X17070Y25922D01*
G01X17071Y25852D01*
G01X17071Y24952D01*
G01X17070Y24884D01*
G01X17070Y24815D01*
G01X17069Y24677D01*
G01X17069Y24608D01*
G01X17068Y24539D01*
G01X17068Y24470D01*
G01X17067Y24401D01*
G01X17065Y24264D01*
G01X17063Y24196D01*
G01X16634Y24150D01*
G01X16634Y24005D01*
G01X17891Y24005D01*
G01X17891Y24150D01*
G01X17459Y24196D01*
G01X17454Y24536D01*
G01X17452Y24811D01*
G01X17452Y25991D01*
G01X17453Y26132D01*
G01X17455Y26340D01*
G01X17458Y26548D01*
G01X17459Y26616D01*
G01X18115Y26616D01*
G01X18229Y26055D01*
G01X18440Y26055D01*
G01X18404Y26797D01*
G37*

%LPD*%
G36*
G01X19629Y26797D02*
G01X18630Y26797D01*
G01X18630Y26654D01*
G01X19004Y26603D01*
G01X19009Y25135D01*
G01X19010Y25057D01*
G01X19013Y24981D01*
G01X19020Y24908D01*
G01X19027Y24838D01*
G01X19037Y24772D01*
G01X19050Y24708D01*
G01X19064Y24647D01*
G01X19081Y24588D01*
G01X19099Y24532D01*
G01X19120Y24480D01*
G01X19142Y24430D01*
G01X19167Y24382D01*
G01X19193Y24337D01*
G01X19221Y24295D01*
G01X19251Y24256D01*
G01X19283Y24219D01*
G01X19316Y24184D01*
G01X19351Y24152D01*
G01X19387Y24122D01*
G01X19425Y24095D01*
G01X19465Y24071D01*
G01X19506Y24048D01*
G01X19548Y24028D01*
G01X19592Y24010D01*
G01X19637Y23994D01*
G01X19683Y23981D01*
G01X19731Y23969D01*
G01X19780Y23960D01*
G01X19830Y23953D01*
G01X19881Y23948D01*
G01X19933Y23945D01*
G01X19987Y23944D01*
G01X20043Y23945D01*
G01X20098Y23948D01*
G01X20151Y23953D01*
G01X20204Y23960D01*
G01X20255Y23968D01*
G01X20305Y23980D01*
G01X20354Y23992D01*
G01X20401Y24008D01*
G01X20446Y24025D01*
G01X20490Y24044D01*
G01X20533Y24066D01*
G01X20574Y24090D01*
G01X20613Y24116D01*
G01X20651Y24144D01*
G01X20687Y24174D01*
G01X20721Y24207D01*
G01X20754Y24242D01*
G01X20785Y24280D01*
G01X20814Y24320D01*
G01X20841Y24362D01*
G01X20866Y24407D01*
G01X20889Y24454D01*
G01X20910Y24504D01*
G01X20929Y24556D01*
G01X20946Y24611D01*
G01X20961Y24668D01*
G01X20973Y24728D01*
G01X20984Y24790D01*
G01X20992Y24855D01*
G01X20998Y24923D01*
G01X21002Y24994D01*
G01X21003Y25067D01*
G01X21003Y26062D01*
G01X21004Y26132D01*
G01X21004Y26201D01*
G01X21005Y26340D01*
G01X21005Y26409D01*
G01X21006Y26478D01*
G01X21007Y26548D01*
G01X21008Y26616D01*
G01X21358Y26654D01*
G01X21358Y26797D01*
G01X20193Y26797D01*
G01X20193Y26654D01*
G01X20614Y26606D01*
G01X20616Y26538D01*
G01X20617Y26470D01*
G01X20618Y26403D01*
G01X20619Y26335D01*
G01X20619Y26266D01*
G01X20620Y26198D01*
G01X20621Y26061D01*
G01X20621Y25923D01*
G01X20622Y25854D01*
G01X20622Y25163D01*
G01X20620Y25076D01*
G01X20616Y24994D01*
G01X20609Y24917D01*
G01X20599Y24844D01*
G01X20587Y24776D01*
G01X20572Y24713D01*
G01X20555Y24654D01*
G01X20535Y24599D01*
G01X20513Y24548D01*
G01X20488Y24501D01*
G01X20460Y24459D01*
G01X20431Y24420D01*
G01X20399Y24385D01*
G01X20365Y24353D01*
G01X20330Y24325D01*
G01X20292Y24300D01*
G01X20251Y24279D01*
G01X20209Y24261D01*
G01X20165Y24246D01*
G01X20119Y24234D01*
G01X20072Y24225D01*
G01X20022Y24218D01*
G01X19971Y24214D01*
G01X19918Y24213D01*
G01X19859Y24215D01*
G01X19801Y24219D01*
G01X19747Y24227D01*
G01X19695Y24237D01*
G01X19645Y24251D01*
G01X19598Y24268D01*
G01X19553Y24289D01*
G01X19512Y24313D01*
G01X19473Y24340D01*
G01X19436Y24371D01*
G01X19402Y24406D01*
G01X19370Y24445D01*
G01X19341Y24487D01*
G01X19314Y24534D01*
G01X19290Y24584D01*
G01X19268Y24639D01*
G01X19249Y24698D01*
G01X19232Y24761D01*
G01X19219Y24829D01*
G01X19207Y24900D01*
G01X19198Y24977D01*
G01X19192Y25058D01*
G01X19188Y25144D01*
G01X19187Y25234D01*
G01X19192Y26596D01*
G01X19629Y26654D01*
G01X19629Y26797D01*
G37*

%LPD*%

%LPD*%
G36*
G01X13023Y19810D02*
G01X12961Y19812D01*
G01X12882Y19809D01*
G01X12809Y19802D01*
G01X12739Y19792D01*
G01X12674Y19776D01*
G01X12613Y19757D01*
G01X12556Y19734D01*
G01X12503Y19707D01*
G01X12455Y19676D01*
G01X12410Y19642D01*
G01X12371Y19605D01*
G01X12334Y19564D01*
G01X12302Y19520D01*
G01X12274Y19473D01*
G01X12250Y19423D01*
G01X12230Y19371D01*
G01X12213Y19316D01*
G01X12200Y19258D01*
G01X12191Y19199D01*
G01X12186Y19136D01*
G01X12184Y19072D01*
G01X12185Y19028D01*
G01X12188Y18984D01*
G01X12194Y18941D01*
G01X12203Y18898D01*
G01X12213Y18855D01*
G01X12227Y18812D01*
G01X12243Y18769D01*
G01X12262Y18725D01*
G01X12284Y18681D01*
G01X12309Y18636D01*
G01X12337Y18589D01*
G01X12369Y18542D01*
G01X12403Y18493D01*
G01X12441Y18442D01*
G01X12482Y18389D01*
G01X12527Y18334D01*
G01X12576Y18277D01*
G01X12627Y18217D01*
G01X12683Y18154D01*
G01X12743Y18089D01*
G01X12807Y18020D01*
G01X12874Y17948D01*
G01X12946Y17872D01*
G01X13022Y17792D01*
G01X13051Y17762D01*
G01X13083Y17729D01*
G01X13118Y17693D01*
G01X13155Y17654D01*
G01X13194Y17613D01*
G01X13236Y17570D01*
G01X13279Y17526D01*
G01X13324Y17479D01*
G01X13370Y17432D01*
G01X13464Y17336D01*
G01X13512Y17287D01*
G01X12065Y17287D01*
G01X12065Y16962D01*
G01X13779Y16962D01*
G01X13779Y17221D01*
G01X13736Y17269D01*
G01X13694Y17317D01*
G01X13609Y17411D01*
G01X13527Y17505D01*
G01X13486Y17550D01*
G01X13446Y17596D01*
G01X13367Y17686D01*
G01X13328Y17729D01*
G01X13290Y17772D01*
G01X13253Y17815D01*
G01X13181Y17897D01*
G01X13147Y17937D01*
G01X13087Y18006D01*
G01X13031Y18072D01*
G01X12978Y18137D01*
G01X12929Y18199D01*
G01X12882Y18260D01*
G01X12838Y18320D01*
G01X12798Y18377D01*
G01X12761Y18434D01*
G01X12727Y18489D01*
G01X12695Y18544D01*
G01X12667Y18597D01*
G01X12643Y18649D01*
G01X12621Y18701D01*
G01X12602Y18752D01*
G01X12586Y18803D01*
G01X12573Y18853D01*
G01X12562Y18904D01*
G01X12555Y18954D01*
G01X12551Y19004D01*
G01X12550Y19055D01*
G01X12552Y19120D01*
G01X12559Y19182D01*
G01X12570Y19241D01*
G01X12586Y19297D01*
G01X12605Y19349D01*
G01X12629Y19398D01*
G01X12656Y19443D01*
G01X12688Y19484D01*
G01X12723Y19520D01*
G01X12761Y19553D01*
G01X12803Y19581D01*
G01X12849Y19604D01*
G01X12897Y19623D01*
G01X12948Y19636D01*
G01X13003Y19644D01*
G01X13060Y19646D01*
G01X13108Y19645D01*
G01X13162Y19641D01*
G01X13221Y19634D01*
G01X13284Y19621D01*
G01X13368Y19316D01*
G01X13387Y19250D01*
G01X13410Y19194D01*
G01X13434Y19149D01*
G01X13461Y19113D01*
G01X13490Y19087D01*
G01X13522Y19068D01*
G01X13558Y19058D01*
G01X13596Y19055D01*
G01X13659Y19063D01*
G01X13715Y19089D01*
G01X13762Y19129D01*
G01X13799Y19182D01*
G01X13788Y19243D01*
G01X13773Y19301D01*
G01X13753Y19356D01*
G01X13729Y19408D01*
G01X13702Y19457D01*
G01X13671Y19503D01*
G01X13636Y19545D01*
G01X13598Y19584D01*
G01X13558Y19620D01*
G01X13514Y19654D01*
G01X13467Y19683D01*
G01X13418Y19710D01*
G01X13367Y19734D01*
G01X13314Y19755D01*
G01X13258Y19772D01*
G01X13202Y19786D01*
G01X13143Y19797D01*
G01X13084Y19805D01*
G01X13023Y19810D01*
G37*

%LPD*%
G36*
G01X14983Y19753D02*
G01X14028Y19753D01*
G01X14028Y19613D01*
G01X14389Y19563D01*
G01X15265Y16934D01*
G01X15440Y16934D01*
G01X16416Y19575D01*
G01X16733Y19611D01*
G01X16733Y19753D01*
G01X15600Y19753D01*
G01X15600Y19593D01*
G01X16009Y19560D01*
G01X15278Y17462D01*
G01X14599Y19558D01*
G01X14983Y19593D01*
G01X14983Y19753D01*
G37*

%LPD*%

%LPD*%
G36*
G01X10698Y23241D02*
G01X9525Y23241D01*
G01X9525Y23098D01*
G01X9913Y23055D01*
G01X9915Y22988D01*
G01X9916Y22919D01*
G01X9917Y22851D01*
G01X9918Y22782D01*
G01X9918Y22713D01*
G01X9919Y22644D01*
G01X9919Y22575D01*
G01X9920Y22435D01*
G01X9920Y22295D01*
G01X9921Y22226D01*
G01X9921Y21466D01*
G01X9920Y21396D01*
G01X9920Y21259D01*
G01X9919Y21121D01*
G01X9919Y21052D01*
G01X9918Y20983D01*
G01X9918Y20914D01*
G01X9917Y20845D01*
G01X9915Y20708D01*
G01X9913Y20640D01*
G01X9525Y20594D01*
G01X9525Y20449D01*
G01X10698Y20449D01*
G01X10698Y20594D01*
G01X10309Y20637D01*
G01X10308Y20706D01*
G01X10305Y20911D01*
G01X10304Y20979D01*
G01X10304Y21048D01*
G01X10303Y21117D01*
G01X10303Y21186D01*
G01X10302Y21255D01*
G01X10302Y22433D01*
G01X10303Y22572D01*
G01X10305Y22780D01*
G01X10308Y22987D01*
G01X10309Y23055D01*
G01X10698Y23098D01*
G01X10698Y23241D01*
G37*

%LPD*%
G36*
G01X15275Y23241D02*
G01X14102Y23241D01*
G01X14102Y23098D01*
G01X14490Y23055D01*
G01X14492Y22988D01*
G01X14493Y22919D01*
G01X14494Y22851D01*
G01X14495Y22782D01*
G01X14495Y22713D01*
G01X14496Y22644D01*
G01X14496Y22575D01*
G01X14497Y22435D01*
G01X14497Y22295D01*
G01X14498Y22226D01*
G01X14498Y21466D01*
G01X14497Y21396D01*
G01X14497Y21259D01*
G01X14496Y21121D01*
G01X14496Y21052D01*
G01X14495Y20983D01*
G01X14495Y20914D01*
G01X14494Y20845D01*
G01X14492Y20708D01*
G01X14490Y20640D01*
G01X14102Y20594D01*
G01X14102Y20449D01*
G01X15275Y20449D01*
G01X15275Y20594D01*
G01X14886Y20637D01*
G01X14885Y20706D01*
G01X14882Y20911D01*
G01X14881Y20979D01*
G01X14881Y21048D01*
G01X14880Y21117D01*
G01X14880Y21186D01*
G01X14879Y21255D01*
G01X14879Y22433D01*
G01X14880Y22572D01*
G01X14882Y22780D01*
G01X14885Y22987D01*
G01X14886Y23055D01*
G01X15275Y23098D01*
G01X15275Y23241D01*
G37*

%LPD*%
G36*
G01X16456Y23241D02*
G01X15651Y23241D01*
G01X15651Y23098D01*
G01X16042Y23055D01*
G01X16044Y22988D01*
G01X16045Y22919D01*
G01X16046Y22851D01*
G01X16047Y22782D01*
G01X16047Y22713D01*
G01X16048Y22644D01*
G01X16048Y22575D01*
G01X16049Y22435D01*
G01X16049Y22295D01*
G01X16050Y22226D01*
G01X16050Y21466D01*
G01X16049Y21396D01*
G01X16049Y21189D01*
G01X16048Y21121D01*
G01X16047Y20913D01*
G01X16044Y20706D01*
G01X16042Y20637D01*
G01X15656Y20594D01*
G01X15656Y20449D01*
G01X16791Y20449D01*
G01X16791Y20594D01*
G01X16431Y20637D01*
G01X16429Y20705D01*
G01X16428Y20773D01*
G01X16427Y20840D01*
G01X16426Y20908D01*
G01X16425Y21044D01*
G01X16425Y21113D01*
G01X16424Y21181D01*
G01X16424Y21318D01*
G01X16423Y21386D01*
G01X16423Y21729D01*
G01X16418Y22849D01*
G01X17358Y20449D01*
G01X17538Y20449D01*
G01X18514Y22842D01*
G01X18512Y22748D01*
G01X18509Y22651D01*
G01X18507Y22554D01*
G01X18504Y22457D01*
G01X18502Y22364D01*
G01X18499Y22276D01*
G01X18497Y22195D01*
G01X18495Y22123D01*
G01X18493Y22062D01*
G01X18492Y22016D01*
G01X18491Y21984D01*
G01X18491Y20647D01*
G01X18127Y20594D01*
G01X18127Y20449D01*
G01X19062Y20449D01*
G01X19062Y20594D01*
G01X18686Y20647D01*
G01X18681Y23050D01*
G01X19062Y23098D01*
G01X19062Y23241D01*
G01X18300Y23241D01*
G01X17358Y20924D01*
G01X16456Y23241D01*
G37*

%LPD*%
G36*
G01X12001Y23241D02*
G01X11015Y23241D01*
G01X11015Y23098D01*
G01X11366Y23047D01*
G01X11369Y20421D01*
G01X11518Y20421D01*
G01X13223Y22763D01*
G01X13213Y20652D01*
G01X12768Y20594D01*
G01X12768Y20449D01*
G01X13754Y20449D01*
G01X13754Y20594D01*
G01X13403Y20642D01*
G01X13395Y23007D01*
G01X13439Y23060D01*
G01X13736Y23098D01*
G01X13736Y23241D01*
G01X13091Y23241D01*
G01X11549Y21107D01*
G01X11557Y23045D01*
G01X12001Y23098D01*
G01X12001Y23241D01*
G37*

%LPD*%
G54D38*
G01X16510Y53885D02*
G01X16510Y52930D01*
G01X16510Y53885D02*
G01X16100Y53885D01*
G01X15964Y53839D01*
G01X15919Y53794D01*
G01X15873Y53703D01*
G01X15873Y53567D01*
G01X15919Y53476D01*
G01X15964Y53430D01*
G01X16100Y53385D01*
G01X16510Y53385D01*
G01X15300Y53885D02*
G01X15437Y53839D01*
G01X15528Y53703D01*
G01X15573Y53476D01*
G01X15573Y53340D01*
G01X15528Y53112D01*
G01X15437Y52976D01*
G01X15300Y52930D01*
G01X15210Y52930D01*
G01X15073Y52976D01*
G01X14982Y53112D01*
G01X14937Y53340D01*
G01X14937Y53476D01*
G01X14982Y53703D01*
G01X15073Y53839D01*
G01X15210Y53885D01*
G01X15300Y53885D01*
G01X14591Y53158D02*
G01X14637Y53112D01*
G01X14591Y53067D01*
G01X14546Y53112D01*
G01X14591Y53158D01*
G01X14200Y53658D02*
G01X14200Y53703D01*
G01X14155Y53794D01*
G01X14110Y53839D01*
G01X14019Y53885D01*
G01X13837Y53885D01*
G01X13746Y53839D01*
G01X13700Y53794D01*
G01X13655Y53703D01*
G01X13655Y53612D01*
G01X13700Y53521D01*
G01X13791Y53385D01*
G01X14246Y52930D01*
G01X13610Y52930D01*
G01X12764Y53885D02*
G01X13219Y53885D01*
G01X13264Y53476D01*
G01X13219Y53521D01*
G01X13082Y53567D01*
G01X12946Y53567D01*
G01X12810Y53521D01*
G01X12719Y53430D01*
G01X12673Y53294D01*
G01X12673Y53203D01*
G01X12719Y53067D01*
G01X12810Y52976D01*
G01X12946Y52930D01*
G01X13082Y52930D01*
G01X13219Y52976D01*
G01X13264Y53021D01*
G01X13310Y53112D01*
G01X16510Y51345D02*
G01X16510Y50390D01*
G01X16510Y51345D02*
G01X16100Y51345D01*
G01X15964Y51299D01*
G01X15919Y51254D01*
G01X15873Y51163D01*
G01X15873Y51027D01*
G01X15919Y50936D01*
G01X15964Y50890D01*
G01X16100Y50845D01*
G01X16510Y50845D01*
G01X15300Y51345D02*
G01X15437Y51299D01*
G01X15528Y51163D01*
G01X15573Y50936D01*
G01X15573Y50800D01*
G01X15528Y50572D01*
G01X15437Y50436D01*
G01X15300Y50390D01*
G01X15210Y50390D01*
G01X15073Y50436D01*
G01X14982Y50572D01*
G01X14937Y50800D01*
G01X14937Y50936D01*
G01X14982Y51163D01*
G01X15073Y51299D01*
G01X15210Y51345D01*
G01X15300Y51345D01*
G01X14591Y50618D02*
G01X14637Y50572D01*
G01X14591Y50527D01*
G01X14546Y50572D01*
G01X14591Y50618D01*
G01X14200Y51118D02*
G01X14200Y51163D01*
G01X14155Y51254D01*
G01X14110Y51299D01*
G01X14019Y51345D01*
G01X13837Y51345D01*
G01X13746Y51299D01*
G01X13700Y51254D01*
G01X13655Y51163D01*
G01X13655Y51072D01*
G01X13700Y50981D01*
G01X13791Y50845D01*
G01X14246Y50390D01*
G01X13610Y50390D01*
G01X12764Y51209D02*
G01X12810Y51299D01*
G01X12946Y51345D01*
G01X13037Y51345D01*
G01X13173Y51299D01*
G01X13264Y51163D01*
G01X13310Y50936D01*
G01X13310Y50709D01*
G01X13264Y50527D01*
G01X13173Y50436D01*
G01X13037Y50390D01*
G01X12991Y50390D01*
G01X12855Y50436D01*
G01X12764Y50527D01*
G01X12719Y50663D01*
G01X12719Y50709D01*
G01X12764Y50845D01*
G01X12855Y50936D01*
G01X12991Y50981D01*
G01X13037Y50981D01*
G01X13173Y50936D01*
G01X13264Y50845D01*
G01X13310Y50709D01*
G01X16536Y48768D02*
G01X16536Y47813D01*
G01X16536Y48768D02*
G01X16127Y48768D01*
G01X15990Y48722D01*
G01X15945Y48677D01*
G01X15899Y48586D01*
G01X15899Y48449D01*
G01X15945Y48358D01*
G01X15990Y48313D01*
G01X16127Y48268D01*
G01X16536Y48268D01*
G01X15327Y48768D02*
G01X15463Y48722D01*
G01X15554Y48586D01*
G01X15599Y48358D01*
G01X15599Y48222D01*
G01X15554Y47995D01*
G01X15463Y47858D01*
G01X15327Y47813D01*
G01X15236Y47813D01*
G01X15099Y47858D01*
G01X15009Y47995D01*
G01X14963Y48222D01*
G01X14963Y48358D01*
G01X15009Y48586D01*
G01X15099Y48722D01*
G01X15236Y48768D01*
G01X15327Y48768D01*
G01X14618Y48040D02*
G01X14663Y47995D01*
G01X14618Y47949D01*
G01X14572Y47995D01*
G01X14618Y48040D01*
G01X14227Y48540D02*
G01X14227Y48586D01*
G01X14181Y48677D01*
G01X14136Y48722D01*
G01X14045Y48768D01*
G01X13863Y48768D01*
G01X13772Y48722D01*
G01X13727Y48677D01*
G01X13681Y48586D01*
G01X13681Y48495D01*
G01X13727Y48404D01*
G01X13818Y48268D01*
G01X14272Y47813D01*
G01X13636Y47813D01*
G01X12700Y48768D02*
G01X13154Y47813D01*
G01X13336Y48768D02*
G01X12700Y48768D01*
G01X16536Y46228D02*
G01X16536Y45273D01*
G01X16536Y46228D02*
G01X16127Y46228D01*
G01X15990Y46182D01*
G01X15945Y46137D01*
G01X15899Y46046D01*
G01X15899Y45909D01*
G01X15945Y45818D01*
G01X15990Y45773D01*
G01X16127Y45728D01*
G01X16536Y45728D01*
G01X15327Y46228D02*
G01X15463Y46182D01*
G01X15554Y46046D01*
G01X15599Y45818D01*
G01X15599Y45682D01*
G01X15554Y45455D01*
G01X15463Y45318D01*
G01X15327Y45273D01*
G01X15236Y45273D01*
G01X15099Y45318D01*
G01X15009Y45455D01*
G01X14963Y45682D01*
G01X14963Y45818D01*
G01X15009Y46046D01*
G01X15099Y46182D01*
G01X15236Y46228D01*
G01X15327Y46228D01*
G01X14618Y45500D02*
G01X14663Y45455D01*
G01X14618Y45409D01*
G01X14572Y45455D01*
G01X14618Y45500D01*
G01X14227Y46000D02*
G01X14227Y46046D01*
G01X14181Y46137D01*
G01X14136Y46182D01*
G01X14045Y46228D01*
G01X13863Y46228D01*
G01X13772Y46182D01*
G01X13727Y46137D01*
G01X13681Y46046D01*
G01X13681Y45955D01*
G01X13727Y45864D01*
G01X13818Y45728D01*
G01X14272Y45273D01*
G01X13636Y45273D01*
G01X13109Y46228D02*
G01X13245Y46182D01*
G01X13290Y46091D01*
G01X13290Y46000D01*
G01X13245Y45909D01*
G01X13154Y45864D01*
G01X12972Y45818D01*
G01X12836Y45773D01*
G01X12745Y45682D01*
G01X12700Y45591D01*
G01X12700Y45455D01*
G01X12745Y45364D01*
G01X12790Y45318D01*
G01X12927Y45273D01*
G01X13109Y45273D01*
G01X13245Y45318D01*
G01X13290Y45364D01*
G01X13336Y45455D01*
G01X13336Y45591D01*
G01X13290Y45682D01*
G01X13199Y45773D01*
G01X13063Y45818D01*
G01X12881Y45864D01*
G01X12790Y45909D01*
G01X12745Y46000D01*
G01X12745Y46091D01*
G01X12790Y46182D01*
G01X12927Y46228D01*
G01X13109Y46228D01*
G01X16510Y43725D02*
G01X16510Y42770D01*
G01X16510Y43725D02*
G01X16100Y43725D01*
G01X15964Y43679D01*
G01X15919Y43634D01*
G01X15873Y43543D01*
G01X15873Y43407D01*
G01X15919Y43316D01*
G01X15964Y43270D01*
G01X16100Y43225D01*
G01X16510Y43225D01*
G01X15300Y43725D02*
G01X15437Y43679D01*
G01X15528Y43543D01*
G01X15573Y43316D01*
G01X15573Y43180D01*
G01X15528Y42952D01*
G01X15437Y42816D01*
G01X15300Y42770D01*
G01X15210Y42770D01*
G01X15073Y42816D01*
G01X14982Y42952D01*
G01X14937Y43180D01*
G01X14937Y43316D01*
G01X14982Y43543D01*
G01X15073Y43679D01*
G01X15210Y43725D01*
G01X15300Y43725D01*
G01X14591Y42998D02*
G01X14637Y42952D01*
G01X14591Y42907D01*
G01X14546Y42952D01*
G01X14591Y42998D01*
G01X14200Y43498D02*
G01X14200Y43543D01*
G01X14155Y43634D01*
G01X14110Y43679D01*
G01X14019Y43725D01*
G01X13837Y43725D01*
G01X13746Y43679D01*
G01X13700Y43634D01*
G01X13655Y43543D01*
G01X13655Y43452D01*
G01X13700Y43361D01*
G01X13791Y43225D01*
G01X14246Y42770D01*
G01X13610Y42770D01*
G01X12719Y43407D02*
G01X12764Y43270D01*
G01X12855Y43180D01*
G01X12991Y43134D01*
G01X13037Y43134D01*
G01X13173Y43180D01*
G01X13264Y43270D01*
G01X13310Y43407D01*
G01X13310Y43452D01*
G01X13264Y43589D01*
G01X13173Y43679D01*
G01X13037Y43725D01*
G01X12991Y43725D01*
G01X12855Y43679D01*
G01X12764Y43589D01*
G01X12719Y43407D01*
G01X12719Y43180D01*
G01X12764Y42952D01*
G01X12855Y42816D01*
G01X12991Y42770D01*
G01X13082Y42770D01*
G01X13219Y42816D01*
G01X13264Y42907D01*
G01X16510Y41185D02*
G01X16510Y40230D01*
G01X16510Y41185D02*
G01X16100Y41185D01*
G01X15964Y41139D01*
G01X15919Y41094D01*
G01X15873Y41003D01*
G01X15873Y40867D01*
G01X15919Y40776D01*
G01X15964Y40730D01*
G01X16100Y40685D01*
G01X16510Y40685D01*
G01X15300Y41185D02*
G01X15437Y41139D01*
G01X15528Y41003D01*
G01X15573Y40776D01*
G01X15573Y40640D01*
G01X15528Y40412D01*
G01X15437Y40276D01*
G01X15300Y40230D01*
G01X15210Y40230D01*
G01X15073Y40276D01*
G01X14982Y40412D01*
G01X14937Y40640D01*
G01X14937Y40776D01*
G01X14982Y41003D01*
G01X15073Y41139D01*
G01X15210Y41185D01*
G01X15300Y41185D01*
G01X14591Y40458D02*
G01X14637Y40412D01*
G01X14591Y40367D01*
G01X14546Y40412D01*
G01X14591Y40458D01*
G01X14155Y41185D02*
G01X13655Y41185D01*
G01X13928Y40821D01*
G01X13791Y40821D01*
G01X13700Y40776D01*
G01X13655Y40730D01*
G01X13610Y40594D01*
G01X13610Y40503D01*
G01X13655Y40367D01*
G01X13746Y40276D01*
G01X13882Y40230D01*
G01X14019Y40230D01*
G01X14155Y40276D01*
G01X14200Y40321D01*
G01X14246Y40412D01*
G01X13037Y41185D02*
G01X13173Y41139D01*
G01X13264Y41003D01*
G01X13310Y40776D01*
G01X13310Y40640D01*
G01X13264Y40412D01*
G01X13173Y40276D01*
G01X13037Y40230D01*
G01X12946Y40230D01*
G01X12810Y40276D01*
G01X12719Y40412D01*
G01X12673Y40640D01*
G01X12673Y40776D01*
G01X12719Y41003D01*
G01X12810Y41139D01*
G01X12946Y41185D01*
G01X13037Y41185D01*
G01X16510Y38645D02*
G01X16510Y37690D01*
G01X16510Y38645D02*
G01X16100Y38645D01*
G01X15964Y38599D01*
G01X15919Y38554D01*
G01X15873Y38463D01*
G01X15873Y38327D01*
G01X15919Y38236D01*
G01X15964Y38190D01*
G01X16100Y38145D01*
G01X16510Y38145D01*
G01X15300Y38645D02*
G01X15437Y38599D01*
G01X15528Y38463D01*
G01X15573Y38236D01*
G01X15573Y38100D01*
G01X15528Y37872D01*
G01X15437Y37736D01*
G01X15300Y37690D01*
G01X15210Y37690D01*
G01X15073Y37736D01*
G01X14982Y37872D01*
G01X14937Y38100D01*
G01X14937Y38236D01*
G01X14982Y38463D01*
G01X15073Y38599D01*
G01X15210Y38645D01*
G01X15300Y38645D01*
G01X14591Y37918D02*
G01X14637Y37872D01*
G01X14591Y37827D01*
G01X14546Y37872D01*
G01X14591Y37918D01*
G01X14246Y38463D02*
G01X14155Y38509D01*
G01X14019Y38645D01*
G01X14019Y37690D01*
G01X13446Y38645D02*
G01X13582Y38599D01*
G01X13673Y38463D01*
G01X13719Y38236D01*
G01X13719Y38100D01*
G01X13673Y37872D01*
G01X13582Y37736D01*
G01X13446Y37690D01*
G01X13355Y37690D01*
G01X13219Y37736D01*
G01X13128Y37872D01*
G01X13082Y38100D01*
G01X13082Y38236D01*
G01X13128Y38463D01*
G01X13219Y38599D01*
G01X13355Y38645D01*
G01X13446Y38645D01*
G01X16509Y36105D02*
G01X16509Y35151D01*
G01X16509Y36105D02*
G01X16100Y36105D01*
G01X15964Y36060D01*
G01X15919Y36014D01*
G01X15873Y35923D01*
G01X15873Y35787D01*
G01X15919Y35696D01*
G01X15964Y35651D01*
G01X16100Y35605D01*
G01X16509Y35605D01*
G01X15300Y36105D02*
G01X15437Y36060D01*
G01X15528Y35923D01*
G01X15573Y35696D01*
G01X15573Y35560D01*
G01X15528Y35332D01*
G01X15437Y35196D01*
G01X15300Y35151D01*
G01X15209Y35151D01*
G01X15073Y35196D01*
G01X14982Y35332D01*
G01X14937Y35560D01*
G01X14937Y35696D01*
G01X14982Y35923D01*
G01X15073Y36060D01*
G01X15209Y36105D01*
G01X15300Y36105D01*
G01X14591Y35378D02*
G01X14637Y35332D01*
G01X14591Y35287D01*
G01X14546Y35332D01*
G01X14591Y35378D01*
G01X13973Y36105D02*
G01X14109Y36060D01*
G01X14200Y35923D01*
G01X14246Y35696D01*
G01X14246Y35560D01*
G01X14200Y35332D01*
G01X14109Y35196D01*
G01X13973Y35151D01*
G01X13882Y35151D01*
G01X13746Y35196D01*
G01X13655Y35332D01*
G01X13609Y35560D01*
G01X13609Y35696D01*
G01X13655Y35923D01*
G01X13746Y36060D01*
G01X13882Y36105D01*
G01X13973Y36105D01*
G01X12719Y35787D02*
G01X12764Y35651D01*
G01X12855Y35560D01*
G01X12991Y35514D01*
G01X13037Y35514D01*
G01X13173Y35560D01*
G01X13264Y35651D01*
G01X13309Y35787D01*
G01X13309Y35832D01*
G01X13264Y35969D01*
G01X13173Y36060D01*
G01X13037Y36105D01*
G01X12991Y36105D01*
G01X12855Y36060D01*
G01X12764Y35969D01*
G01X12719Y35787D01*
G01X12719Y35560D01*
G01X12764Y35332D01*
G01X12855Y35196D01*
G01X12991Y35151D01*
G01X13082Y35151D01*
G01X13219Y35196D01*
G01X13264Y35287D01*
G01X20543Y37338D02*
G01X20543Y36383D01*
G01X20543Y37338D02*
G01X19906Y36383D01*
G01X19906Y37338D02*
G01X19906Y36383D01*
G01X19606Y37338D02*
G01X19606Y36383D01*
G01X19606Y37338D02*
G01X19015Y37338D01*
G01X19606Y36883D02*
G01X19243Y36883D01*
G01X18034Y37110D02*
G01X18079Y37201D01*
G01X18170Y37292D01*
G01X18261Y37338D01*
G01X18443Y37338D01*
G01X18533Y37292D01*
G01X18624Y37201D01*
G01X18670Y37110D01*
G01X18715Y36974D01*
G01X18715Y36747D01*
G01X18670Y36610D01*
G01X18624Y36519D01*
G01X18533Y36428D01*
G01X18443Y36383D01*
G01X18261Y36383D01*
G01X18170Y36428D01*
G01X18079Y36519D01*
G01X18034Y36610D01*
G54D36*
G01X29972Y7892D02*
G01X29972Y7415D01*
G01X29972Y7892D02*
G01X29767Y7892D01*
G01X29699Y7870D01*
G01X29676Y7847D01*
G01X29653Y7801D01*
G01X29653Y7756D01*
G01X29676Y7710D01*
G01X29699Y7688D01*
G01X29767Y7665D01*
G01X29972Y7665D01*
G01X29812Y7665D02*
G01X29653Y7415D01*
G01X29276Y7892D02*
G01X29503Y7574D01*
G01X29162Y7574D01*
G01X29276Y7892D02*
G01X29276Y7415D01*
G01X29736Y21227D02*
G01X29736Y20886D01*
G01X29714Y20818D01*
G01X29668Y20773D01*
G01X29600Y20750D01*
G01X29554Y20750D01*
G01X29486Y20773D01*
G01X29441Y20818D01*
G01X29418Y20886D01*
G01X29418Y21227D01*
G01X28995Y21227D02*
G01X29223Y21227D01*
G01X29245Y21023D01*
G01X29223Y21045D01*
G01X29154Y21068D01*
G01X29086Y21068D01*
G01X29018Y21045D01*
G01X28973Y21000D01*
G01X28950Y20932D01*
G01X28950Y20886D01*
G01X28973Y20818D01*
G01X29018Y20773D01*
G01X29086Y20750D01*
G01X29154Y20750D01*
G01X29223Y20773D01*
G01X29245Y20795D01*
G01X29268Y20841D01*
G01X29361Y23240D02*
G01X29361Y22763D01*
G01X29361Y23240D02*
G01X29156Y23240D01*
G01X29088Y23218D01*
G01X29065Y23195D01*
G01X29043Y23150D01*
G01X29043Y23104D01*
G01X29065Y23059D01*
G01X29088Y23036D01*
G01X29156Y23013D01*
G01X29361Y23013D01*
G01X29202Y23013D02*
G01X29043Y22763D01*
G01X28847Y23240D02*
G01X28597Y23240D01*
G01X28734Y23059D01*
G01X28665Y23059D01*
G01X28620Y23036D01*
G01X28597Y23013D01*
G01X28574Y22945D01*
G01X28574Y22900D01*
G01X28597Y22831D01*
G01X28643Y22786D01*
G01X28711Y22763D01*
G01X28779Y22763D01*
G01X28847Y22786D01*
G01X28870Y22809D01*
G01X28893Y22854D01*
G01X29736Y36340D02*
G01X29736Y35999D01*
G01X29714Y35931D01*
G01X29668Y35886D01*
G01X29600Y35863D01*
G01X29554Y35863D01*
G01X29486Y35886D01*
G01X29441Y35931D01*
G01X29418Y35999D01*
G01X29418Y36340D01*
G01X29041Y36340D02*
G01X29268Y36022D01*
G01X28927Y36022D01*
G01X29041Y36340D02*
G01X29041Y35863D01*
G01X24764Y38372D02*
G01X24764Y37895D01*
G01X24764Y38372D02*
G01X24560Y38372D01*
G01X24492Y38350D01*
G01X24469Y38327D01*
G01X24446Y38281D01*
G01X24446Y38236D01*
G01X24469Y38190D01*
G01X24492Y38168D01*
G01X24560Y38145D01*
G01X24764Y38145D01*
G01X24605Y38145D02*
G01X24446Y37895D01*
G01X24274Y38259D02*
G01X24274Y38281D01*
G01X24251Y38327D01*
G01X24228Y38350D01*
G01X24183Y38372D01*
G01X24092Y38372D01*
G01X24046Y38350D01*
G01X24024Y38327D01*
G01X24001Y38281D01*
G01X24001Y38236D01*
G01X24024Y38190D01*
G01X24069Y38122D01*
G01X24296Y37895D01*
G01X23978Y37895D01*
G01X29609Y51707D02*
G01X29609Y51366D01*
G01X29587Y51298D01*
G01X29541Y51253D01*
G01X29473Y51230D01*
G01X29427Y51230D01*
G01X29359Y51253D01*
G01X29314Y51298D01*
G01X29291Y51366D01*
G01X29291Y51707D01*
G01X29096Y51707D02*
G01X28846Y51707D01*
G01X28982Y51525D01*
G01X28914Y51525D01*
G01X28868Y51503D01*
G01X28846Y51480D01*
G01X28823Y51412D01*
G01X28823Y51366D01*
G01X28846Y51298D01*
G01X28891Y51253D01*
G01X28959Y51230D01*
G01X29027Y51230D01*
G01X29096Y51253D01*
G01X29118Y51275D01*
G01X29141Y51321D01*
G01X16169Y29291D02*
G01X16191Y29337D01*
G01X16237Y29382D01*
G01X16282Y29405D01*
G01X16373Y29405D01*
G01X16419Y29382D01*
G01X16464Y29337D01*
G01X16487Y29291D01*
G01X16510Y29223D01*
G01X16510Y29109D01*
G01X16487Y29041D01*
G01X16464Y28996D01*
G01X16419Y28950D01*
G01X16373Y28927D01*
G01X16282Y28927D01*
G01X16237Y28950D01*
G01X16191Y28996D01*
G01X16169Y29041D01*
G01X15996Y29291D02*
G01X15996Y29314D01*
G01X15973Y29359D01*
G01X15950Y29382D01*
G01X15905Y29405D01*
G01X15814Y29405D01*
G01X15769Y29382D01*
G01X15746Y29359D01*
G01X15723Y29314D01*
G01X15723Y29268D01*
G01X15746Y29223D01*
G01X15791Y29155D01*
G01X16019Y28927D01*
G01X15700Y28927D01*
G54D10*
G75*
G01X29591Y19812D02*
G03X29591Y19812I-254J0D01*
G01*
G75*
G01X29591Y34925D02*
G03X29591Y34925I-254J0D01*
G01*
G75*
G01X29591Y50165D02*
G03X29591Y50165I-254J0D01*
G01*
M00*
M02*
